G04 Layer_Color=16711935*
%FSLAX44Y44*%
%MOMM*%
G71*
G01*
G75*
%ADD95C,0.5000*%
%ADD185R,1.0000X0.4000*%
%ADD197R,0.9000X0.3500*%
%ADD198R,0.3500X0.9000*%
%ADD207R,0.4000X0.9500*%
%ADD208R,0.9500X0.4000*%
%ADD210R,2.7000X2.7000*%
%ADD226R,0.8500X0.3000*%
%ADD248R,34.8000X5.9750*%
%ADD255R,2.6000X1.8000*%
%ADD256R,0.6000X0.8000*%
G04:AMPARAMS|DCode=257|XSize=0.7mm|YSize=0.7mm|CornerRadius=0.11mm|HoleSize=0mm|Usage=FLASHONLY|Rotation=180.000|XOffset=0mm|YOffset=0mm|HoleType=Round|Shape=RoundedRectangle|*
%AMROUNDEDRECTD257*
21,1,0.7000,0.4800,0,0,180.0*
21,1,0.4800,0.7000,0,0,180.0*
1,1,0.2200,-0.2400,0.2400*
1,1,0.2200,0.2400,0.2400*
1,1,0.2200,0.2400,-0.2400*
1,1,0.2200,-0.2400,-0.2400*
%
%ADD257ROUNDEDRECTD257*%
G04:AMPARAMS|DCode=258|XSize=1.4mm|YSize=0.9mm|CornerRadius=0.15mm|HoleSize=0mm|Usage=FLASHONLY|Rotation=0.000|XOffset=0mm|YOffset=0mm|HoleType=Round|Shape=RoundedRectangle|*
%AMROUNDEDRECTD258*
21,1,1.4000,0.6000,0,0,0.0*
21,1,1.1000,0.9000,0,0,0.0*
1,1,0.3000,0.5500,-0.3000*
1,1,0.3000,-0.5500,-0.3000*
1,1,0.3000,-0.5500,0.3000*
1,1,0.3000,0.5500,0.3000*
%
%ADD258ROUNDEDRECTD258*%
G04:AMPARAMS|DCode=259|XSize=0.7mm|YSize=0.7mm|CornerRadius=0.11mm|HoleSize=0mm|Usage=FLASHONLY|Rotation=270.000|XOffset=0mm|YOffset=0mm|HoleType=Round|Shape=RoundedRectangle|*
%AMROUNDEDRECTD259*
21,1,0.7000,0.4800,0,0,270.0*
21,1,0.4800,0.7000,0,0,270.0*
1,1,0.2200,-0.2400,-0.2400*
1,1,0.2200,-0.2400,0.2400*
1,1,0.2200,0.2400,0.2400*
1,1,0.2200,0.2400,-0.2400*
%
%ADD259ROUNDEDRECTD259*%
G04:AMPARAMS|DCode=260|XSize=0.6mm|YSize=0.7mm|CornerRadius=0.1mm|HoleSize=0mm|Usage=FLASHONLY|Rotation=0.000|XOffset=0mm|YOffset=0mm|HoleType=Round|Shape=RoundedRectangle|*
%AMROUNDEDRECTD260*
21,1,0.6000,0.5000,0,0,0.0*
21,1,0.4000,0.7000,0,0,0.0*
1,1,0.2000,0.2000,-0.2500*
1,1,0.2000,-0.2000,-0.2500*
1,1,0.2000,-0.2000,0.2500*
1,1,0.2000,0.2000,0.2500*
%
%ADD260ROUNDEDRECTD260*%
G04:AMPARAMS|DCode=261|XSize=0.6mm|YSize=0.7mm|CornerRadius=0.1mm|HoleSize=0mm|Usage=FLASHONLY|Rotation=270.000|XOffset=0mm|YOffset=0mm|HoleType=Round|Shape=RoundedRectangle|*
%AMROUNDEDRECTD261*
21,1,0.6000,0.5000,0,0,270.0*
21,1,0.4000,0.7000,0,0,270.0*
1,1,0.2000,-0.2500,-0.2000*
1,1,0.2000,-0.2500,0.2000*
1,1,0.2000,0.2500,0.2000*
1,1,0.2000,0.2500,-0.2000*
%
%ADD261ROUNDEDRECTD261*%
G04:AMPARAMS|DCode=262|XSize=0.6mm|YSize=0.7mm|CornerRadius=0.1mm|HoleSize=0mm|Usage=FLASHONLY|Rotation=315.000|XOffset=0mm|YOffset=0mm|HoleType=Round|Shape=RoundedRectangle|*
%AMROUNDEDRECTD262*
21,1,0.6000,0.5000,0,0,315.0*
21,1,0.4000,0.7000,0,0,315.0*
1,1,0.2000,-0.0354,-0.3182*
1,1,0.2000,-0.3182,-0.0354*
1,1,0.2000,0.0354,0.3182*
1,1,0.2000,0.3182,0.0354*
%
%ADD262ROUNDEDRECTD262*%
G04:AMPARAMS|DCode=263|XSize=0.6mm|YSize=0.7mm|CornerRadius=0.1mm|HoleSize=0mm|Usage=FLASHONLY|Rotation=225.000|XOffset=0mm|YOffset=0mm|HoleType=Round|Shape=RoundedRectangle|*
%AMROUNDEDRECTD263*
21,1,0.6000,0.5000,0,0,225.0*
21,1,0.4000,0.7000,0,0,225.0*
1,1,0.2000,-0.3182,0.0354*
1,1,0.2000,-0.0354,0.3182*
1,1,0.2000,0.3182,-0.0354*
1,1,0.2000,0.0354,-0.3182*
%
%ADD263ROUNDEDRECTD263*%
G04:AMPARAMS|DCode=264|XSize=1.1mm|YSize=1mm|CornerRadius=0.1625mm|HoleSize=0mm|Usage=FLASHONLY|Rotation=90.000|XOffset=0mm|YOffset=0mm|HoleType=Round|Shape=RoundedRectangle|*
%AMROUNDEDRECTD264*
21,1,1.1000,0.6750,0,0,90.0*
21,1,0.7750,1.0000,0,0,90.0*
1,1,0.3250,0.3375,0.3875*
1,1,0.3250,0.3375,-0.3875*
1,1,0.3250,-0.3375,-0.3875*
1,1,0.3250,-0.3375,0.3875*
%
%ADD264ROUNDEDRECTD264*%
G04:AMPARAMS|DCode=265|XSize=1.1mm|YSize=1mm|CornerRadius=0.1625mm|HoleSize=0mm|Usage=FLASHONLY|Rotation=0.000|XOffset=0mm|YOffset=0mm|HoleType=Round|Shape=RoundedRectangle|*
%AMROUNDEDRECTD265*
21,1,1.1000,0.6750,0,0,0.0*
21,1,0.7750,1.0000,0,0,0.0*
1,1,0.3250,0.3875,-0.3375*
1,1,0.3250,-0.3875,-0.3375*
1,1,0.3250,-0.3875,0.3375*
1,1,0.3250,0.3875,0.3375*
%
%ADD265ROUNDEDRECTD265*%
G04:AMPARAMS|DCode=266|XSize=1.4mm|YSize=0.9mm|CornerRadius=0.15mm|HoleSize=0mm|Usage=FLASHONLY|Rotation=270.000|XOffset=0mm|YOffset=0mm|HoleType=Round|Shape=RoundedRectangle|*
%AMROUNDEDRECTD266*
21,1,1.4000,0.6000,0,0,270.0*
21,1,1.1000,0.9000,0,0,270.0*
1,1,0.3000,-0.3000,-0.5500*
1,1,0.3000,-0.3000,0.5500*
1,1,0.3000,0.3000,0.5500*
1,1,0.3000,0.3000,-0.5500*
%
%ADD266ROUNDEDRECTD266*%
%ADD267R,0.8000X0.6000*%
%ADD268R,1.8000X2.6000*%
%ADD273C,1.7000*%
%ADD281C,3.0000*%
G04:AMPARAMS|DCode=289|XSize=0.7mm|YSize=1.1mm|CornerRadius=0.125mm|HoleSize=0mm|Usage=FLASHONLY|Rotation=0.000|XOffset=0mm|YOffset=0mm|HoleType=Round|Shape=RoundedRectangle|*
%AMROUNDEDRECTD289*
21,1,0.7000,0.8500,0,0,0.0*
21,1,0.4500,1.1000,0,0,0.0*
1,1,0.2500,0.2250,-0.4250*
1,1,0.2500,-0.2250,-0.4250*
1,1,0.2500,-0.2250,0.4250*
1,1,0.2500,0.2250,0.4250*
%
%ADD289ROUNDEDRECTD289*%
%ADD295R,0.7000X0.5500*%
%ADD296R,0.7000X0.4000*%
%ADD297R,0.8000X4.3000*%
%ADD298R,0.8000X3.3000*%
G04:AMPARAMS|DCode=301|XSize=0.7mm|YSize=0.7mm|CornerRadius=0.11mm|HoleSize=0mm|Usage=FLASHONLY|Rotation=315.000|XOffset=0mm|YOffset=0mm|HoleType=Round|Shape=RoundedRectangle|*
%AMROUNDEDRECTD301*
21,1,0.7000,0.4800,0,0,315.0*
21,1,0.4800,0.7000,0,0,315.0*
1,1,0.2200,0.0000,-0.3394*
1,1,0.2200,-0.3394,0.0000*
1,1,0.2200,0.0000,0.3394*
1,1,0.2200,0.3394,0.0000*
%
%ADD301ROUNDEDRECTD301*%
G04:AMPARAMS|DCode=305|XSize=0.7mm|YSize=0.7mm|CornerRadius=0.11mm|HoleSize=0mm|Usage=FLASHONLY|Rotation=45.000|XOffset=0mm|YOffset=0mm|HoleType=Round|Shape=RoundedRectangle|*
%AMROUNDEDRECTD305*
21,1,0.7000,0.4800,0,0,45.0*
21,1,0.4800,0.7000,0,0,45.0*
1,1,0.2200,0.3394,0.0000*
1,1,0.2200,0.0000,-0.3394*
1,1,0.2200,-0.3394,0.0000*
1,1,0.2200,0.0000,0.3394*
%
%ADD305ROUNDEDRECTD305*%
G04:AMPARAMS|DCode=306|XSize=1.4mm|YSize=0.9mm|CornerRadius=0.15mm|HoleSize=0mm|Usage=FLASHONLY|Rotation=225.000|XOffset=0mm|YOffset=0mm|HoleType=Round|Shape=RoundedRectangle|*
%AMROUNDEDRECTD306*
21,1,1.4000,0.6000,0,0,225.0*
21,1,1.1000,0.9000,0,0,225.0*
1,1,0.3000,-0.6010,-0.1768*
1,1,0.3000,0.1768,0.6010*
1,1,0.3000,0.6010,0.1768*
1,1,0.3000,-0.1768,-0.6010*
%
%ADD306ROUNDEDRECTD306*%
G04:AMPARAMS|DCode=307|XSize=1.4mm|YSize=0.9mm|CornerRadius=0.15mm|HoleSize=0mm|Usage=FLASHONLY|Rotation=315.000|XOffset=0mm|YOffset=0mm|HoleType=Round|Shape=RoundedRectangle|*
%AMROUNDEDRECTD307*
21,1,1.4000,0.6000,0,0,315.0*
21,1,1.1000,0.9000,0,0,315.0*
1,1,0.3000,0.1768,-0.6010*
1,1,0.3000,-0.6010,0.1768*
1,1,0.3000,-0.1768,0.6010*
1,1,0.3000,0.6010,-0.1768*
%
%ADD307ROUNDEDRECTD307*%
%ADD316C,0.4500*%
%ADD327R,0.7500X0.3000*%
%ADD328R,0.3000X0.7500*%
G04:AMPARAMS|DCode=338|XSize=1.9mm|YSize=1.25mm|CornerRadius=0.1938mm|HoleSize=0mm|Usage=FLASHONLY|Rotation=270.000|XOffset=0mm|YOffset=0mm|HoleType=Round|Shape=RoundedRectangle|*
%AMROUNDEDRECTD338*
21,1,1.9000,0.8625,0,0,270.0*
21,1,1.5125,1.2500,0,0,270.0*
1,1,0.3875,-0.4313,-0.7562*
1,1,0.3875,-0.4313,0.7562*
1,1,0.3875,0.4313,0.7562*
1,1,0.3875,0.4313,-0.7562*
%
%ADD338ROUNDEDRECTD338*%
G04:AMPARAMS|DCode=347|XSize=1.9mm|YSize=1.25mm|CornerRadius=0.1938mm|HoleSize=0mm|Usage=FLASHONLY|Rotation=180.000|XOffset=0mm|YOffset=0mm|HoleType=Round|Shape=RoundedRectangle|*
%AMROUNDEDRECTD347*
21,1,1.9000,0.8625,0,0,180.0*
21,1,1.5125,1.2500,0,0,180.0*
1,1,0.3875,-0.7562,0.4313*
1,1,0.3875,0.7562,0.4313*
1,1,0.3875,0.7562,-0.4313*
1,1,0.3875,-0.7562,-0.4313*
%
%ADD347ROUNDEDRECTD347*%
%ADD350R,3.6000X2.0000*%
%ADD360C,2.0000*%
%ADD368R,0.4000X1.0000*%
%ADD371C,5.1000*%
%ADD372O,3.7000X5.1000*%
%ADD373C,2.1000*%
%ADD374C,3.6000*%
G04:AMPARAMS|DCode=375|XSize=3.6mm|YSize=3.6mm|CornerRadius=0.925mm|HoleSize=0mm|Usage=FLASHONLY|Rotation=90.000|XOffset=0mm|YOffset=0mm|HoleType=Round|Shape=RoundedRectangle|*
%AMROUNDEDRECTD375*
21,1,3.6000,1.7500,0,0,90.0*
21,1,1.7500,3.6000,0,0,90.0*
1,1,1.8500,0.8750,0.8750*
1,1,1.8500,0.8750,-0.8750*
1,1,1.8500,-0.8750,-0.8750*
1,1,1.8500,-0.8750,0.8750*
%
%ADD375ROUNDEDRECTD375*%
G04:AMPARAMS|DCode=376|XSize=1.624mm|YSize=1.624mm|CornerRadius=0.2405mm|HoleSize=0mm|Usage=FLASHONLY|Rotation=90.000|XOffset=0mm|YOffset=0mm|HoleType=Round|Shape=RoundedRectangle|*
%AMROUNDEDRECTD376*
21,1,1.6240,1.1430,0,0,90.0*
21,1,1.1430,1.6240,0,0,90.0*
1,1,0.4810,0.5715,0.5715*
1,1,0.4810,0.5715,-0.5715*
1,1,0.4810,-0.5715,-0.5715*
1,1,0.4810,-0.5715,0.5715*
%
%ADD376ROUNDEDRECTD376*%
%ADD377O,2.1000X5.1000*%
%ADD378O,2.3000X5.1000*%
%ADD379O,5.1000X2.1000*%
G04:AMPARAMS|DCode=380|XSize=1.624mm|YSize=1.624mm|CornerRadius=0.2405mm|HoleSize=0mm|Usage=FLASHONLY|Rotation=0.000|XOffset=0mm|YOffset=0mm|HoleType=Round|Shape=RoundedRectangle|*
%AMROUNDEDRECTD380*
21,1,1.6240,1.1430,0,0,0.0*
21,1,1.1430,1.6240,0,0,0.0*
1,1,0.4810,0.5715,-0.5715*
1,1,0.4810,-0.5715,-0.5715*
1,1,0.4810,-0.5715,0.5715*
1,1,0.4810,0.5715,0.5715*
%
%ADD380ROUNDEDRECTD380*%
%ADD381C,0.9000*%
%ADD382C,2.9800*%
%ADD383C,1.8500*%
%ADD384C,1.1000*%
%ADD385C,1.4000*%
%ADD387C,4.1000*%
%ADD388R,1.1000X0.5000*%
%ADD389O,0.8000X2.7000*%
G04:AMPARAMS|DCode=390|XSize=2.3mm|YSize=0.65mm|CornerRadius=0.1875mm|HoleSize=0mm|Usage=FLASHONLY|Rotation=90.000|XOffset=0mm|YOffset=0mm|HoleType=Round|Shape=RoundedRectangle|*
%AMROUNDEDRECTD390*
21,1,2.3000,0.2750,0,0,90.0*
21,1,1.9250,0.6500,0,0,90.0*
1,1,0.3750,0.1375,0.9625*
1,1,0.3750,0.1375,-0.9625*
1,1,0.3750,-0.1375,-0.9625*
1,1,0.3750,-0.1375,0.9625*
%
%ADD390ROUNDEDRECTD390*%
%ADD391R,1.6000X1.3000*%
%ADD392R,1.5000X1.0000*%
G04:AMPARAMS|DCode=393|XSize=1.1mm|YSize=1mm|CornerRadius=0.1625mm|HoleSize=0mm|Usage=FLASHONLY|Rotation=135.000|XOffset=0mm|YOffset=0mm|HoleType=Round|Shape=RoundedRectangle|*
%AMROUNDEDRECTD393*
21,1,1.1000,0.6750,0,0,135.0*
21,1,0.7750,1.0000,0,0,135.0*
1,1,0.3250,-0.0354,0.5127*
1,1,0.3250,0.5127,-0.0354*
1,1,0.3250,0.0354,-0.5127*
1,1,0.3250,-0.5127,0.0354*
%
%ADD393ROUNDEDRECTD393*%
G04:AMPARAMS|DCode=394|XSize=1.1mm|YSize=1mm|CornerRadius=0.1625mm|HoleSize=0mm|Usage=FLASHONLY|Rotation=225.000|XOffset=0mm|YOffset=0mm|HoleType=Round|Shape=RoundedRectangle|*
%AMROUNDEDRECTD394*
21,1,1.1000,0.6750,0,0,225.0*
21,1,0.7750,1.0000,0,0,225.0*
1,1,0.3250,-0.5127,-0.0354*
1,1,0.3250,0.0354,0.5127*
1,1,0.3250,0.5127,0.0354*
1,1,0.3250,-0.0354,-0.5127*
%
%ADD394ROUNDEDRECTD394*%
%ADD395R,1.3000X0.6000*%
%ADD396R,4.1500X4.4000*%
G04:AMPARAMS|DCode=397|XSize=0.7mm|YSize=1.1mm|CornerRadius=0.125mm|HoleSize=0mm|Usage=FLASHONLY|Rotation=270.000|XOffset=0mm|YOffset=0mm|HoleType=Round|Shape=RoundedRectangle|*
%AMROUNDEDRECTD397*
21,1,0.7000,0.8500,0,0,270.0*
21,1,0.4500,1.1000,0,0,270.0*
1,1,0.2500,-0.4250,-0.2250*
1,1,0.2500,-0.4250,0.2250*
1,1,0.2500,0.4250,0.2250*
1,1,0.2500,0.4250,-0.2250*
%
%ADD397ROUNDEDRECTD397*%
%ADD398R,1.4500X1.7500*%
%ADD399R,0.4000X0.8000*%
%ADD400R,1.0000X0.4500*%
%ADD401R,0.4500X1.0000*%
%ADD402R,1.1000X2.6500*%
%ADD403O,1.0000X0.3500*%
%ADD404O,0.3500X1.0000*%
%ADD405R,0.4500X0.4000*%
G04:AMPARAMS|DCode=406|XSize=1.1mm|YSize=1.3mm|CornerRadius=0.175mm|HoleSize=0mm|Usage=FLASHONLY|Rotation=90.000|XOffset=0mm|YOffset=0mm|HoleType=Round|Shape=RoundedRectangle|*
%AMROUNDEDRECTD406*
21,1,1.1000,0.9500,0,0,90.0*
21,1,0.7500,1.3000,0,0,90.0*
1,1,0.3500,0.4750,0.3750*
1,1,0.3500,0.4750,-0.3750*
1,1,0.3500,-0.4750,-0.3750*
1,1,0.3500,-0.4750,0.3750*
%
%ADD406ROUNDEDRECTD406*%
%ADD407R,0.4000X0.4500*%
G04:AMPARAMS|DCode=408|XSize=0.4mm|YSize=0.45mm|CornerRadius=0mm|HoleSize=0mm|Usage=FLASHONLY|Rotation=45.000|XOffset=0mm|YOffset=0mm|HoleType=Round|Shape=Rectangle|*
%AMROTATEDRECTD408*
4,1,4,0.0177,-0.3005,-0.3005,0.0177,-0.0177,0.3005,0.3005,-0.0177,0.0177,-0.3005,0.0*
%
%ADD408ROTATEDRECTD408*%

%ADD409R,0.5000X1.0500*%
%ADD410R,1.0500X0.5000*%
%ADD411R,0.5500X1.5000*%
%ADD412R,2.8000X2.8000*%
G04:AMPARAMS|DCode=413|XSize=0.4mm|YSize=0.45mm|CornerRadius=0mm|HoleSize=0mm|Usage=FLASHONLY|Rotation=135.000|XOffset=0mm|YOffset=0mm|HoleType=Round|Shape=Rectangle|*
%AMROTATEDRECTD413*
4,1,4,0.3005,0.0177,-0.0177,-0.3005,-0.3005,-0.0177,0.0177,0.3005,0.3005,0.0177,0.0*
%
%ADD413ROTATEDRECTD413*%

%ADD414R,1.0500X0.4500*%
%ADD415R,0.4500X1.0500*%
G04:AMPARAMS|DCode=416|XSize=1.9mm|YSize=1.3mm|CornerRadius=0.2mm|HoleSize=0mm|Usage=FLASHONLY|Rotation=180.000|XOffset=0mm|YOffset=0mm|HoleType=Round|Shape=RoundedRectangle|*
%AMROUNDEDRECTD416*
21,1,1.9000,0.9000,0,0,180.0*
21,1,1.5000,1.3000,0,0,180.0*
1,1,0.4000,-0.7500,0.4500*
1,1,0.4000,0.7500,0.4500*
1,1,0.4000,0.7500,-0.4500*
1,1,0.4000,-0.7500,-0.4500*
%
%ADD416ROUNDEDRECTD416*%
%ADD417R,1.1000X1.4500*%
%ADD418R,1.4500X0.8000*%
%ADD419R,0.8000X1.4500*%
G04:AMPARAMS|DCode=420|XSize=2.6mm|YSize=1.6mm|CornerRadius=0.2375mm|HoleSize=0mm|Usage=FLASHONLY|Rotation=0.000|XOffset=0mm|YOffset=0mm|HoleType=Round|Shape=RoundedRectangle|*
%AMROUNDEDRECTD420*
21,1,2.6000,1.1250,0,0,0.0*
21,1,2.1250,1.6000,0,0,0.0*
1,1,0.4750,1.0625,-0.5625*
1,1,0.4750,-1.0625,-0.5625*
1,1,0.4750,-1.0625,0.5625*
1,1,0.4750,1.0625,0.5625*
%
%ADD420ROUNDEDRECTD420*%
G04:AMPARAMS|DCode=421|XSize=1.5mm|YSize=1.3mm|CornerRadius=0.2mm|HoleSize=0mm|Usage=FLASHONLY|Rotation=270.000|XOffset=0mm|YOffset=0mm|HoleType=Round|Shape=RoundedRectangle|*
%AMROUNDEDRECTD421*
21,1,1.5000,0.9000,0,0,270.0*
21,1,1.1000,1.3000,0,0,270.0*
1,1,0.4000,-0.4500,-0.5500*
1,1,0.4000,-0.4500,0.5500*
1,1,0.4000,0.4500,0.5500*
1,1,0.4000,0.4500,-0.5500*
%
%ADD421ROUNDEDRECTD421*%
G04:AMPARAMS|DCode=422|XSize=1.1mm|YSize=1.3mm|CornerRadius=0.175mm|HoleSize=0mm|Usage=FLASHONLY|Rotation=0.000|XOffset=0mm|YOffset=0mm|HoleType=Round|Shape=RoundedRectangle|*
%AMROUNDEDRECTD422*
21,1,1.1000,0.9500,0,0,0.0*
21,1,0.7500,1.3000,0,0,0.0*
1,1,0.3500,0.3750,-0.4750*
1,1,0.3500,-0.3750,-0.4750*
1,1,0.3500,-0.3750,0.4750*
1,1,0.3500,0.3750,0.4750*
%
%ADD422ROUNDEDRECTD422*%
%ADD423R,3.2000X3.2000*%
%ADD424R,2.2000X2.2000*%
%ADD425R,3.3000X3.3000*%
%ADD426R,0.3500X0.8500*%
%ADD427R,0.8500X0.3500*%
%ADD428R,0.3500X1.0000*%
%ADD429R,1.0000X0.3500*%
%ADD430R,1.0000X2.0000*%
%ADD431C,0.3900*%
G36*
X513000Y458252D02*
X539500Y458252D01*
X539500Y458252D01*
X539549Y458248D01*
X539598Y458243D01*
X539670Y458221D01*
X539692Y458214D01*
X539779Y458168D01*
X539855Y458105D01*
X607605Y390356D01*
X607605Y390355D01*
X607668Y390279D01*
X607714Y390192D01*
X607721Y390171D01*
X607743Y390098D01*
X607752Y390000D01*
X607752Y354750D01*
X607752Y354750D01*
X607747Y354701D01*
X607743Y354652D01*
X607721Y354580D01*
X607714Y354558D01*
X607668Y354471D01*
X607605Y354395D01*
X583855Y330645D01*
X583855Y330645D01*
X583821Y330617D01*
X583779Y330582D01*
X583692Y330536D01*
X583598Y330507D01*
X583589Y330506D01*
X583500Y330498D01*
X583500Y330498D01*
X548458Y330498D01*
X524855Y306895D01*
X524855Y306895D01*
X524821Y306867D01*
X524779Y306832D01*
X524692Y306786D01*
X524598Y306757D01*
X524500Y306748D01*
X524500Y306748D01*
X465750D01*
X465750Y306748D01*
X465701Y306752D01*
X465652Y306757D01*
X465580Y306779D01*
X465558Y306786D01*
X465471Y306832D01*
X465395Y306895D01*
X427645Y344645D01*
X427645Y344645D01*
X427582Y344721D01*
X427536Y344808D01*
X427507Y344902D01*
X427498Y344997D01*
X394362Y344998D01*
X394362D01*
D01*
X394353Y344999D01*
X394264Y345007D01*
X394170Y345036D01*
X394130Y345057D01*
X394083Y345082D01*
X394049Y345110D01*
X394007Y345145D01*
X394007Y345145D01*
X390628Y348524D01*
X390628Y348524D01*
X390600Y348558D01*
X390565Y348600D01*
X390519Y348687D01*
X390490Y348781D01*
X390490Y348791D01*
X390481Y348879D01*
X390481Y348880D01*
X390481Y353171D01*
X389525Y354127D01*
X385941D01*
X384986Y353171D01*
Y344879D01*
X384976Y344781D01*
X384947Y344687D01*
X384901Y344600D01*
X384838Y344524D01*
X384762Y344462D01*
X384675Y344415D01*
X384581Y344386D01*
X384483Y344377D01*
X372121D01*
X372121Y344377D01*
X372032Y344386D01*
X372023Y344386D01*
X371928Y344415D01*
X371842Y344462D01*
X371800Y344496D01*
X371765Y344524D01*
X371765Y344524D01*
X367542Y348748D01*
X344750D01*
X344652Y348757D01*
X344558Y348786D01*
X344471Y348832D01*
X344395Y348895D01*
X344332Y348971D01*
X344286Y349058D01*
X344257Y349152D01*
X344248Y349250D01*
Y356042D01*
X342378Y357911D01*
X342316Y357988D01*
X342269Y358074D01*
X342262Y358096D01*
X342241Y358169D01*
X342236Y358218D01*
X342231Y358267D01*
X342231Y358267D01*
Y367879D01*
X342241Y367977D01*
X342269Y368072D01*
X342316Y368158D01*
X342378Y368235D01*
X342378Y368235D01*
X348628Y374484D01*
X348628Y374485D01*
X356231Y382088D01*
X356231Y383421D01*
X352275Y387377D01*
X350191D01*
X347089Y384274D01*
X347089Y384274D01*
X347054Y384246D01*
X347012Y384212D01*
X346925Y384165D01*
X346831Y384137D01*
X346822Y384136D01*
X346733Y384127D01*
X346684Y384132D01*
X346635Y384137D01*
X346563Y384159D01*
X346541Y384165D01*
X346454Y384212D01*
X346378Y384274D01*
X346350Y384308D01*
X346315Y384350D01*
X346269Y384437D01*
X346240Y384531D01*
X346240Y384540D01*
X346231Y384629D01*
X346231Y384630D01*
Y406421D01*
X340628Y412024D01*
Y412024D01*
X340628D01*
X340565Y412100D01*
X340525Y412176D01*
X340519Y412187D01*
D01*
X340519Y412187D01*
X340490Y412281D01*
X340482Y412370D01*
X340481Y412379D01*
D01*
Y412379D01*
X340490Y412477D01*
X340499Y412506D01*
X340519Y412572D01*
X340565Y412659D01*
X340628Y412735D01*
X340628Y412735D01*
X342378Y414484D01*
X342454Y414547D01*
X342495Y414568D01*
X342541Y414593D01*
X342570Y414602D01*
X342635Y414622D01*
X342733Y414632D01*
X342831Y414622D01*
X342860Y414613D01*
X342926Y414593D01*
X342966Y414572D01*
X343013Y414547D01*
X343089Y414484D01*
X343089Y414484D01*
X349691Y407882D01*
X359750Y407882D01*
X359848Y407872D01*
X359942Y407844D01*
X360029Y407797D01*
X360105Y407735D01*
X360168Y407658D01*
X360214Y407571D01*
X360243Y407477D01*
X360252Y407379D01*
X360252Y399071D01*
X362071Y397252D01*
X365792D01*
X371145Y402605D01*
X371221Y402668D01*
X371308Y402714D01*
X371330Y402721D01*
X371402Y402743D01*
X371451Y402747D01*
X371500Y402752D01*
X371500Y402752D01*
X396233Y402752D01*
X396331Y402743D01*
X396426Y402714D01*
X396512Y402668D01*
X396589Y402605D01*
X396651Y402529D01*
X396697Y402442D01*
X396726Y402348D01*
X396736Y402250D01*
X396736Y388130D01*
X396736Y388129D01*
X396731Y388080D01*
X396726Y388031D01*
X396704Y387959D01*
X396697Y387937D01*
X396651Y387850D01*
X396589Y387774D01*
X396588Y387774D01*
X394736Y385921D01*
X394736Y377087D01*
X404941Y366882D01*
X480921D01*
X498247Y384208D01*
X498248Y443500D01*
X498248Y443500D01*
X498252Y443549D01*
X498257Y443598D01*
X498279Y443670D01*
X498286Y443692D01*
X498332Y443779D01*
X498395Y443855D01*
X512645Y458105D01*
X512645Y458105D01*
X512679Y458133D01*
X512721Y458168D01*
X512808Y458214D01*
X512902Y458243D01*
X513000Y458252D01*
X513000Y458252D01*
D02*
G37*
G36*
X341260Y373147D02*
X341354Y373118D01*
X341441Y373072D01*
X341517Y373009D01*
X341580Y372933D01*
X341626Y372846D01*
X341655Y372752D01*
X341664Y372654D01*
Y356404D01*
X341655Y356306D01*
X341626Y356212D01*
X341580Y356125D01*
X341517Y356049D01*
X341441Y355987D01*
X341354Y355940D01*
X341260Y355911D01*
X341162Y355902D01*
X335912D01*
X335814Y355911D01*
X335720Y355940D01*
X335633Y355987D01*
X335557Y356049D01*
X335494Y356125D01*
X335448Y356212D01*
X335419Y356306D01*
X335410Y356404D01*
Y372654D01*
X335419Y372752D01*
X335448Y372846D01*
X335494Y372933D01*
X335557Y373009D01*
X335633Y373072D01*
X335720Y373118D01*
X335814Y373147D01*
X335912Y373157D01*
X341162D01*
X341260Y373147D01*
D02*
G37*
G36*
X341527Y931518D02*
X341621Y931489D01*
X341708Y931443D01*
X341784Y931380D01*
X341846Y931304D01*
X341893Y931217D01*
X341921Y931123D01*
X341931Y931025D01*
Y914775D01*
X341921Y914677D01*
X341893Y914583D01*
X341846Y914496D01*
X341784Y914420D01*
X341708Y914357D01*
X341621Y914311D01*
X341527Y914282D01*
X341429Y914273D01*
X336179D01*
X336081Y914282D01*
X335986Y914311D01*
X335900Y914357D01*
X335823Y914420D01*
X335761Y914496D01*
X335714Y914583D01*
X335686Y914677D01*
X335676Y914775D01*
Y931025D01*
X335686Y931123D01*
X335714Y931217D01*
X335761Y931304D01*
X335823Y931380D01*
X335900Y931443D01*
X335986Y931489D01*
X336081Y931518D01*
X336179Y931527D01*
X341429D01*
X341527Y931518D01*
D02*
G37*
G36*
X343098Y972993D02*
X343127Y972984D01*
X343192Y972964D01*
X343233Y972943D01*
X343279Y972918D01*
X343355Y972855D01*
X343355Y972855D01*
X349958Y966252D01*
X359750Y966252D01*
X359848Y966243D01*
X359942Y966214D01*
X360029Y966168D01*
X360105Y966105D01*
X360168Y966029D01*
X360214Y965942D01*
X360243Y965848D01*
X360252Y965750D01*
X360252Y957708D01*
X361958Y956002D01*
X365542Y956002D01*
X370645Y961105D01*
X370721Y961168D01*
X370808Y961214D01*
X370830Y961221D01*
X370902Y961243D01*
X370951Y961248D01*
X371000Y961253D01*
X371000Y961252D01*
X396500Y961252D01*
X396598Y961243D01*
X396692Y961214D01*
X396779Y961168D01*
X396855Y961105D01*
X396918Y961029D01*
X396964Y960942D01*
X396993Y960848D01*
X397002Y960750D01*
X397002Y946500D01*
X397002Y946500D01*
X396998Y946451D01*
X396993Y946402D01*
X396971Y946330D01*
X396964Y946308D01*
X396918Y946221D01*
X396855Y946145D01*
X396855Y946145D01*
X395002Y944292D01*
X395002Y935458D01*
X405208Y925252D01*
X446250Y925252D01*
X446250Y925252D01*
X446250Y925252D01*
X478250D01*
X478250Y925252D01*
X478299Y925248D01*
X478348Y925243D01*
X478420Y925221D01*
X478442Y925214D01*
X478529Y925168D01*
X478605Y925105D01*
X483605Y920105D01*
X483668Y920029D01*
X483714Y919942D01*
X483743Y919848D01*
X483752Y919750D01*
X483752Y919750D01*
X483752Y886458D01*
X524605Y845605D01*
X524668Y845529D01*
X524714Y845442D01*
X524743Y845348D01*
X524752Y845250D01*
X524752Y845250D01*
X524752Y781208D01*
X527458Y778502D01*
X590000Y778502D01*
X590000Y778502D01*
X590049Y778497D01*
X590098Y778493D01*
X590170Y778471D01*
X590192Y778464D01*
X590279Y778418D01*
X590355Y778355D01*
X590355Y778355D01*
X597105Y771605D01*
X597105Y771605D01*
X597133Y771571D01*
X597168Y771529D01*
X597214Y771442D01*
X597243Y771348D01*
X597243Y771339D01*
X597252Y771250D01*
X597252Y771250D01*
X597253Y747750D01*
X597253Y747750D01*
X597248Y747701D01*
X597243Y747652D01*
X597221Y747580D01*
X597214Y747558D01*
X597168Y747471D01*
X597105Y747395D01*
X590855Y741145D01*
X590855Y741145D01*
X590779Y741082D01*
X590692Y741036D01*
X590670Y741029D01*
X590598Y741007D01*
X590500Y740997D01*
X467500D01*
X467500Y740997D01*
X467451Y741002D01*
X467402Y741007D01*
X467330Y741029D01*
X467308Y741036D01*
X467221Y741082D01*
X467145Y741145D01*
X467145Y741145D01*
X460395Y747895D01*
X460395Y747895D01*
X460332Y747971D01*
X460286Y748058D01*
X460279Y748080D01*
X460257Y748152D01*
X460248Y748250D01*
X460248Y781042D01*
X455042Y786248D01*
X437750D01*
X437750Y786248D01*
X437701Y786252D01*
X437652Y786257D01*
X437580Y786279D01*
X437558Y786286D01*
X437471Y786332D01*
X437395Y786395D01*
X427645Y796145D01*
X427645Y796145D01*
X427582Y796221D01*
X427536Y796308D01*
X427529Y796330D01*
X427507Y796402D01*
X427498Y796500D01*
Y845250D01*
X427498Y845250D01*
X427502Y845299D01*
X427507Y845348D01*
X427529Y845420D01*
X427536Y845442D01*
X427582Y845529D01*
X427645Y845605D01*
X439748Y857708D01*
Y889042D01*
X425145Y903645D01*
X425145Y903645D01*
X425082Y903721D01*
X425068Y903748D01*
X394250Y903748D01*
X394250Y903748D01*
X394152Y903757D01*
X394058Y903786D01*
X393971Y903832D01*
X393929Y903867D01*
X393895Y903895D01*
X393894Y903895D01*
X390895Y906895D01*
X390895Y906895D01*
X390867Y906929D01*
X390832Y906971D01*
X390786Y907058D01*
X390757Y907152D01*
X390756Y907161D01*
X390747Y907250D01*
X390748Y907250D01*
X390748Y911542D01*
X389792Y912498D01*
X386208D01*
X385252Y911542D01*
Y906000D01*
X385252Y906000D01*
X385248Y905951D01*
X385243Y905902D01*
X385214Y905808D01*
X385168Y905721D01*
X385133Y905679D01*
X385105Y905645D01*
X385105Y905645D01*
X382855Y903395D01*
X382855Y903395D01*
X382779Y903332D01*
X382753Y903318D01*
X382692Y903286D01*
X382648Y903272D01*
X382598Y903257D01*
X382554Y903253D01*
X382500Y903248D01*
X382500Y903248D01*
X366749Y903248D01*
X366749Y903248D01*
X366669Y903256D01*
X366651Y903258D01*
X366557Y903287D01*
X366534Y903299D01*
X366470Y903333D01*
X366421Y903373D01*
X366394Y903395D01*
X366394Y903396D01*
X362292Y907498D01*
X345000Y907497D01*
X344902Y907507D01*
X344808Y907536D01*
X344721Y907582D01*
X344645Y907645D01*
X344582Y907721D01*
X344536Y907808D01*
X344507Y907902D01*
X344498Y908000D01*
X344497Y914292D01*
X342895Y915895D01*
X342895Y915895D01*
X342867Y915929D01*
X342832Y915971D01*
X342786Y916058D01*
X342757Y916152D01*
X342748Y916250D01*
X342748Y916250D01*
X342748Y925750D01*
X342757Y925848D01*
X342786Y925942D01*
X342832Y926029D01*
X342895Y926105D01*
X342895Y926105D01*
X356498Y939708D01*
X356497Y941792D01*
X352542Y945748D01*
X350458D01*
X347355Y942645D01*
X347355Y942645D01*
X347321Y942617D01*
X347279Y942582D01*
X347192Y942536D01*
X347098Y942507D01*
X347089Y942506D01*
X347000Y942498D01*
X346951Y942502D01*
X346902Y942507D01*
X346830Y942529D01*
X346808Y942536D01*
X346721Y942582D01*
X346645Y942645D01*
X346617Y942679D01*
X346582Y942721D01*
X346536Y942808D01*
X346507Y942902D01*
X346506Y942911D01*
X346497Y943000D01*
X346497Y943000D01*
Y964792D01*
X340895Y970395D01*
Y970395D01*
X340895D01*
X340832Y970471D01*
X340792Y970547D01*
X340786Y970558D01*
D01*
X340786Y970558D01*
X340757Y970652D01*
X340748Y970740D01*
X340747Y970750D01*
D01*
Y970750D01*
X340757Y970848D01*
X340766Y970877D01*
X340786Y970942D01*
X340832Y971029D01*
X340895Y971105D01*
X340895Y971105D01*
X342645Y972855D01*
X342721Y972918D01*
X342761Y972939D01*
X342808Y972964D01*
X342836Y972973D01*
X342902Y972993D01*
X343000Y973002D01*
X343098Y972993D01*
D02*
G37*
D95*
X1255250Y660000D02*
D03*
X1245250Y660000D02*
D03*
X1155250Y760000D02*
D03*
X1285250Y480000D02*
D03*
X1205250Y680000D02*
D03*
X1295250Y700000D02*
D03*
X1295250Y710000D02*
D03*
X1315250Y740000D02*
D03*
Y730000D02*
D03*
X1295250Y660000D02*
D03*
X1295250Y670000D02*
D03*
X1315250Y670000D02*
D03*
X1315250Y680000D02*
D03*
X1315250Y710000D02*
D03*
X1315250Y720000D02*
D03*
Y700000D02*
D03*
X1315250Y690000D02*
D03*
X1295250Y690000D02*
D03*
X1285250D02*
D03*
X1315250Y620000D02*
D03*
X1315250Y610000D02*
D03*
X1225250Y550000D02*
D03*
X1195250Y670000D02*
D03*
X1195250Y680000D02*
D03*
X1155250Y560000D02*
D03*
Y570000D02*
D03*
X1135250Y690000D02*
D03*
Y700000D02*
D03*
X1185250Y560000D02*
D03*
Y550000D02*
D03*
X1205250Y540000D02*
D03*
Y550000D02*
D03*
X1195250Y560000D02*
D03*
Y570000D02*
D03*
X1185250Y540000D02*
D03*
Y530000D02*
D03*
X1255250Y620000D02*
D03*
X1265250Y620000D02*
D03*
X1701750Y606000D02*
D03*
X1135250Y550000D02*
D03*
X1145250Y560000D02*
D03*
X1185250Y700000D02*
D03*
Y690000D02*
D03*
X1125250Y680000D02*
D03*
Y670000D02*
D03*
X1255250Y580000D02*
D03*
X1245250D02*
D03*
X1275250Y510000D02*
D03*
X1265250Y600000D02*
D03*
X1235250Y570000D02*
D03*
X1225250Y560000D02*
D03*
X1215250Y620000D02*
D03*
X1205250Y620000D02*
D03*
X1035250Y680000D02*
D03*
X1025250Y680000D02*
D03*
Y670000D02*
D03*
X1105250Y530000D02*
D03*
X1725750Y622000D02*
D03*
X1717750Y614000D02*
D03*
X1661750Y582000D02*
D03*
X1652093Y602000D02*
D03*
X1661750Y574000D02*
D03*
X1701750Y590000D02*
D03*
Y582000D02*
D03*
X1701750Y598000D02*
D03*
X1035250Y610000D02*
D03*
X1225250Y580000D02*
D03*
X1235250D02*
D03*
X1235250Y590000D02*
D03*
X1245250D02*
D03*
X1165250Y500000D02*
D03*
Y490000D02*
D03*
Y480000D02*
D03*
X1155250Y530000D02*
D03*
X1245250Y510000D02*
D03*
X1205250D02*
D03*
X1215250D02*
D03*
X1235250Y520000D02*
D03*
X1215250Y520000D02*
D03*
X1275250Y520000D02*
D03*
X1165250Y520000D02*
D03*
X1145250Y500000D02*
D03*
X1125250Y500000D02*
D03*
X1135250Y490000D02*
D03*
Y480000D02*
D03*
X1205250Y490000D02*
D03*
X1195250Y490000D02*
D03*
X1255250D02*
D03*
X1265250D02*
D03*
X1275250D02*
D03*
X1225250D02*
D03*
X1155250Y480000D02*
D03*
X1035250Y480000D02*
D03*
X1075250D02*
D03*
X1115250D02*
D03*
X1145250D02*
D03*
X1245250Y480000D02*
D03*
X1265250Y480000D02*
D03*
X1215250D02*
D03*
X1225250D02*
D03*
X1195250D02*
D03*
X1185250D02*
D03*
X1305250D02*
D03*
X1035250Y490000D02*
D03*
X1115250D02*
D03*
X1095250D02*
D03*
X1085250Y490000D02*
D03*
X1145250Y520000D02*
D03*
X1055250D02*
D03*
X1045250Y520000D02*
D03*
X1025250D02*
D03*
X1035250Y510000D02*
D03*
X1025250Y510000D02*
D03*
X1045250D02*
D03*
X1055250Y510000D02*
D03*
X1105250D02*
D03*
X1095250D02*
D03*
X1135250D02*
D03*
X1035250Y500000D02*
D03*
X1025250Y500000D02*
D03*
X1055250Y500000D02*
D03*
X1075250D02*
D03*
X1115250D02*
D03*
X1135250D02*
D03*
X1255250D02*
D03*
X1275250D02*
D03*
X1215250D02*
D03*
X1225250D02*
D03*
X1235250D02*
D03*
X1185250D02*
D03*
X1175250D02*
D03*
X1085250Y550000D02*
D03*
X1075250Y550000D02*
D03*
X1065250D02*
D03*
X1055250D02*
D03*
X1025250Y550000D02*
D03*
X1035250Y550000D02*
D03*
Y540000D02*
D03*
X1045250Y540000D02*
D03*
X1055250Y540000D02*
D03*
X1065250D02*
D03*
X1255250D02*
D03*
X1275250D02*
D03*
X1035250Y530000D02*
D03*
X1025250Y530000D02*
D03*
X1045250D02*
D03*
X1065250Y530000D02*
D03*
X1075250D02*
D03*
X1145250D02*
D03*
X1135250D02*
D03*
X1245250Y530000D02*
D03*
X1235250Y530000D02*
D03*
X1165250Y530000D02*
D03*
X1175250Y580000D02*
D03*
X1145250D02*
D03*
X1085250Y580000D02*
D03*
X1095250Y580000D02*
D03*
X1115250D02*
D03*
X1075250D02*
D03*
X1065250D02*
D03*
X1045250Y580000D02*
D03*
X1025250D02*
D03*
X1035250Y580000D02*
D03*
X1025250Y570000D02*
D03*
X1045250D02*
D03*
X1055250Y570000D02*
D03*
X1065250D02*
D03*
X1115250D02*
D03*
X1145250D02*
D03*
X1035250Y560000D02*
D03*
X1025250Y560000D02*
D03*
X1045250D02*
D03*
X1055250Y560000D02*
D03*
X1075250D02*
D03*
X1105250D02*
D03*
X1095250D02*
D03*
X1175250D02*
D03*
X1235250Y610000D02*
D03*
X1125250Y610000D02*
D03*
X1095250Y610000D02*
D03*
X1105250D02*
D03*
X1075250D02*
D03*
X1045250Y610000D02*
D03*
X1025250D02*
D03*
X1035250Y600000D02*
D03*
X1025250Y600000D02*
D03*
X1055250Y600000D02*
D03*
X1065250D02*
D03*
X1075250D02*
D03*
X1115250D02*
D03*
X1105250D02*
D03*
X1085250Y600000D02*
D03*
X1125250D02*
D03*
X1035250Y590000D02*
D03*
X1045250Y590000D02*
D03*
X1055250Y590000D02*
D03*
X1115250D02*
D03*
X1105250D02*
D03*
X1095250D02*
D03*
X1235250Y640000D02*
D03*
X1215250D02*
D03*
X1205250Y640000D02*
D03*
X1255250Y640000D02*
D03*
X1245250Y640000D02*
D03*
X1095250Y640000D02*
D03*
X1105250D02*
D03*
X1115250D02*
D03*
X1065250D02*
D03*
X1055250D02*
D03*
X1045250Y640000D02*
D03*
X1035250Y640000D02*
D03*
Y630000D02*
D03*
X1045250Y630000D02*
D03*
X1075250Y630000D02*
D03*
X1115250D02*
D03*
X1085250Y630000D02*
D03*
X1245250D02*
D03*
X1255250Y630000D02*
D03*
X1215250D02*
D03*
X1225250D02*
D03*
X1235250D02*
D03*
X1045250Y620000D02*
D03*
X1055250Y620000D02*
D03*
X1065250D02*
D03*
X1075250D02*
D03*
X1115250D02*
D03*
X1105250D02*
D03*
X1125250Y620000D02*
D03*
X1225250Y620000D02*
D03*
X1165250Y670000D02*
D03*
X1175250Y670000D02*
D03*
X1145250D02*
D03*
X1155250D02*
D03*
X1095250D02*
D03*
X1105250D02*
D03*
X1115250D02*
D03*
X1075250D02*
D03*
X1065250D02*
D03*
X1055250D02*
D03*
X1045250Y670000D02*
D03*
X1025250Y660000D02*
D03*
X1045250D02*
D03*
X1055250Y660000D02*
D03*
X1105250D02*
D03*
X1085250Y660000D02*
D03*
X1205250D02*
D03*
X1225250Y660000D02*
D03*
X1235250D02*
D03*
X1035250Y650000D02*
D03*
X1025250Y650000D02*
D03*
X1055250Y650000D02*
D03*
X1065250D02*
D03*
X1075250D02*
D03*
X1115250D02*
D03*
X1105250D02*
D03*
X1085250Y650000D02*
D03*
X1255250Y650000D02*
D03*
X1205250Y650000D02*
D03*
X1215250Y650000D02*
D03*
X1225250D02*
D03*
X1235250D02*
D03*
X1175250Y700000D02*
D03*
X1235250D02*
D03*
X1255250D02*
D03*
X1085250Y700000D02*
D03*
X1115250Y700000D02*
D03*
X1065250D02*
D03*
X1055250D02*
D03*
X1025250Y700000D02*
D03*
X1035250Y700000D02*
D03*
Y690000D02*
D03*
X1045250Y690000D02*
D03*
X1055250Y690000D02*
D03*
X1065250D02*
D03*
X1155250D02*
D03*
X1245250Y690000D02*
D03*
X1205250D02*
D03*
X1235250Y690000D02*
D03*
X1195250D02*
D03*
X1045250Y680000D02*
D03*
X1065250Y680000D02*
D03*
X1075250D02*
D03*
X1095250D02*
D03*
X1085250Y680000D02*
D03*
X1165250D02*
D03*
X1125250Y730000D02*
D03*
X1135250Y730000D02*
D03*
X1145250D02*
D03*
X1085250Y730000D02*
D03*
X1115250Y730000D02*
D03*
X1075250D02*
D03*
X1065250D02*
D03*
X1045250Y730000D02*
D03*
X1025250D02*
D03*
X1035250Y730000D02*
D03*
X1025250Y720000D02*
D03*
X1045250D02*
D03*
X1055250Y720000D02*
D03*
X1065250D02*
D03*
X1075250D02*
D03*
X1105250D02*
D03*
X1095250D02*
D03*
X1145250D02*
D03*
X1125250Y720000D02*
D03*
X1035250Y710000D02*
D03*
X1025250Y710000D02*
D03*
X1045250D02*
D03*
X1055250Y710000D02*
D03*
X1075250D02*
D03*
X1095250D02*
D03*
X1085250Y710000D02*
D03*
X1145250Y710000D02*
D03*
X1135250D02*
D03*
X1125250Y710000D02*
D03*
X1135250Y740000D02*
D03*
X1145250D02*
D03*
X1085250Y740000D02*
D03*
X1095250Y740000D02*
D03*
X1105250D02*
D03*
X1115250D02*
D03*
X1055250D02*
D03*
X1045250Y740000D02*
D03*
X1035250Y740000D02*
D03*
X1085250Y750000D02*
D03*
X1105250Y750000D02*
D03*
X1115250D02*
D03*
X1065250D02*
D03*
X1055250D02*
D03*
X1025250Y750000D02*
D03*
X1035250Y750000D02*
D03*
Y760000D02*
D03*
X1025250Y760000D02*
D03*
X1045250D02*
D03*
X1095250Y760000D02*
D03*
X1145250D02*
D03*
X1125250Y760000D02*
D03*
X1115250Y770000D02*
D03*
X1145250Y770000D02*
D03*
X1075250Y770000D02*
D03*
X1095250Y770000D02*
D03*
X1105250D02*
D03*
X1065250D02*
D03*
X1733750Y574000D02*
D03*
X1725750Y582000D02*
D03*
X1741750Y654000D02*
D03*
X1733750Y630000D02*
D03*
X1733750Y638000D02*
D03*
Y646000D02*
D03*
X1733750Y654000D02*
D03*
X1725750Y662000D02*
D03*
Y654000D02*
D03*
X1709750Y662000D02*
D03*
X1717750D02*
D03*
Y654000D02*
D03*
X1693750Y654000D02*
D03*
X1701750D02*
D03*
X1709750Y638000D02*
D03*
X1717750Y646000D02*
D03*
Y638000D02*
D03*
X1693750Y638000D02*
D03*
Y646000D02*
D03*
X1701750D02*
D03*
Y638000D02*
D03*
X1685750Y638000D02*
D03*
X1661750D02*
D03*
X1709750Y622000D02*
D03*
Y630000D02*
D03*
X1693750Y622000D02*
D03*
Y630000D02*
D03*
X1701750D02*
D03*
Y622000D02*
D03*
X1677750Y622000D02*
D03*
Y630000D02*
D03*
X1685750D02*
D03*
Y622000D02*
D03*
X1669750Y630000D02*
D03*
Y622000D02*
D03*
X1717750Y598000D02*
D03*
Y590000D02*
D03*
X1693750Y590000D02*
D03*
Y598000D02*
D03*
X1677750Y590000D02*
D03*
Y598000D02*
D03*
X1685750D02*
D03*
Y590000D02*
D03*
X1669750Y598000D02*
D03*
Y606000D02*
D03*
Y614000D02*
D03*
X1685750Y606000D02*
D03*
Y614000D02*
D03*
X1677750D02*
D03*
Y606000D02*
D03*
X1693750Y614000D02*
D03*
Y606000D02*
D03*
X1709750Y614000D02*
D03*
Y606000D02*
D03*
X1725750D02*
D03*
X1743407Y610000D02*
D03*
X1155250Y500000D02*
D03*
X1265250Y560000D02*
D03*
X1255250Y570000D02*
D03*
Y770000D02*
D03*
X1235250Y770000D02*
D03*
X1225250D02*
D03*
X1285250D02*
D03*
X1265250D02*
D03*
X1305250D02*
D03*
X1215250Y770000D02*
D03*
X1195250Y760000D02*
D03*
X1185250D02*
D03*
X1325250Y760000D02*
D03*
X1315250Y760000D02*
D03*
X1305250D02*
D03*
X1295250D02*
D03*
X1255250D02*
D03*
X1265250D02*
D03*
X1215250D02*
D03*
X1235250D02*
D03*
X1245250Y750000D02*
D03*
X1235250Y750000D02*
D03*
X1225250D02*
D03*
X1215250D02*
D03*
X1285250Y750000D02*
D03*
X1275250Y750000D02*
D03*
X1265250D02*
D03*
X1295250D02*
D03*
X1185250D02*
D03*
X1195250D02*
D03*
X1245250Y740000D02*
D03*
X1225250Y740000D02*
D03*
X1215250D02*
D03*
X1285250Y740000D02*
D03*
X1275250Y740000D02*
D03*
X1265250D02*
D03*
X1175250D02*
D03*
X1195250D02*
D03*
X1205250Y740000D02*
D03*
X1205250Y710000D02*
D03*
X1215250Y710000D02*
D03*
X1245250Y710000D02*
D03*
X1205250Y720000D02*
D03*
X1185250Y720000D02*
D03*
X1175250D02*
D03*
X1285250Y720000D02*
D03*
X1215250Y720000D02*
D03*
X1235250D02*
D03*
X1245250Y730000D02*
D03*
X1235250Y730000D02*
D03*
X1225250D02*
D03*
X1275250D02*
D03*
X1265250D02*
D03*
X1255250D02*
D03*
X1195250D02*
D03*
X1205250Y730000D02*
D03*
X1175250Y770000D02*
D03*
X1160250Y772071D02*
D03*
X1165250Y710000D02*
D03*
X1175250Y730000D02*
D03*
X1155250Y740000D02*
D03*
X1155250Y710000D02*
D03*
X1165250Y720000D02*
D03*
X1135250Y760000D02*
D03*
X1145250Y750000D02*
D03*
X1135250Y750000D02*
D03*
X1215250Y670000D02*
D03*
X1225250D02*
D03*
X1235250D02*
D03*
X1235250Y680000D02*
D03*
X1225250Y680000D02*
D03*
X1245250D02*
D03*
X1255250D02*
D03*
X1265250D02*
D03*
X1165250Y510000D02*
D03*
X1175250Y520000D02*
D03*
X1185250Y510000D02*
D03*
X1105250Y480000D02*
D03*
X1095250Y500000D02*
D03*
X1085250Y500000D02*
D03*
X1145250Y550000D02*
D03*
X1135250Y560000D02*
D03*
X1215250Y600000D02*
D03*
X1205250Y600000D02*
D03*
X1185250Y580000D02*
D03*
X1195250D02*
D03*
X1215250Y570000D02*
D03*
X1225250Y570000D02*
D03*
X1205250Y560000D02*
D03*
X1215250Y560000D02*
D03*
Y590000D02*
D03*
X1205250Y590000D02*
D03*
X1235250Y600000D02*
D03*
X1225250Y600000D02*
D03*
X1045250Y480000D02*
D03*
X1669750Y590000D02*
D03*
X1717750Y622000D02*
D03*
X1717750Y630000D02*
D03*
X1265250Y530000D02*
D03*
X1165250Y570000D02*
D03*
Y580000D02*
D03*
X1255250Y710000D02*
D03*
X1025250Y630000D02*
D03*
X1035250Y660000D02*
D03*
X1255250Y590000D02*
D03*
X1265250Y540000D02*
D03*
X1145250Y690000D02*
D03*
X1175250D02*
D03*
X1075250Y520000D02*
D03*
X1075250Y510000D02*
D03*
X1205250Y520000D02*
D03*
X1195250Y520000D02*
D03*
X1105250Y570000D02*
D03*
X1095250Y540000D02*
D03*
X1025250Y620000D02*
D03*
X1095250Y620000D02*
D03*
Y630000D02*
D03*
X1255250Y740000D02*
D03*
X1235250Y510000D02*
D03*
X1225250Y520000D02*
D03*
X1115250Y510000D02*
D03*
X1115250Y520000D02*
D03*
X1175250Y570000D02*
D03*
X1155250Y540000D02*
D03*
X1255250Y600000D02*
D03*
X1245250Y610000D02*
D03*
X1295250Y610000D02*
D03*
X1285250Y610000D02*
D03*
X1175250Y550000D02*
D03*
X1065250Y490000D02*
D03*
X1235250Y540000D02*
D03*
X1295250Y720000D02*
D03*
X1295250Y730000D02*
D03*
D185*
X760750Y610750D02*
D03*
Y615750D02*
D03*
Y620750D02*
D03*
Y625750D02*
D03*
Y630750D02*
D03*
Y635750D02*
D03*
X720750D02*
D03*
Y630750D02*
D03*
Y625750D02*
D03*
Y620750D02*
D03*
Y615750D02*
D03*
Y610750D02*
D03*
D197*
X1070000Y1068250D02*
D03*
Y1063250D02*
D03*
Y1058250D02*
D03*
Y1053250D02*
D03*
X1070000Y1048250D02*
D03*
X1108500D02*
D03*
X1108500Y1053250D02*
D03*
Y1058250D02*
D03*
Y1063250D02*
D03*
X1108500Y1068250D02*
D03*
X728250Y998000D02*
D03*
Y993000D02*
D03*
Y988000D02*
D03*
Y983000D02*
D03*
Y978000D02*
D03*
Y973000D02*
D03*
Y968000D02*
D03*
Y963000D02*
D03*
X680250D02*
D03*
Y968000D02*
D03*
Y972750D02*
D03*
Y977750D02*
D03*
Y982750D02*
D03*
Y987750D02*
D03*
Y992750D02*
D03*
Y997750D02*
D03*
X722500Y391000D02*
D03*
Y396000D02*
D03*
Y401000D02*
D03*
X722500Y406000D02*
D03*
Y411000D02*
D03*
X722500Y416000D02*
D03*
Y421000D02*
D03*
Y426000D02*
D03*
X770500D02*
D03*
Y421000D02*
D03*
X770500Y416250D02*
D03*
X770500Y411250D02*
D03*
Y406250D02*
D03*
Y401250D02*
D03*
Y396250D02*
D03*
Y391250D02*
D03*
D198*
X1099250Y1077500D02*
D03*
X1094250D02*
D03*
X1089250D02*
D03*
X1084250D02*
D03*
X1079250D02*
D03*
Y1039000D02*
D03*
X1084250Y1039000D02*
D03*
X1089250D02*
D03*
X1094250D02*
D03*
X1099250D02*
D03*
X721750Y956500D02*
D03*
X716750D02*
D03*
X711750D02*
D03*
X706750D02*
D03*
X701750D02*
D03*
X696750D02*
D03*
X691750D02*
D03*
X686750D02*
D03*
X721750Y1004500D02*
D03*
X716750D02*
D03*
X711750D02*
D03*
X706750D02*
D03*
X701750D02*
D03*
X696750D02*
D03*
X692000D02*
D03*
X687000D02*
D03*
X729000Y432500D02*
D03*
X734000D02*
D03*
X739000D02*
D03*
X744000D02*
D03*
X749000D02*
D03*
X754000D02*
D03*
X759000D02*
D03*
X764000D02*
D03*
X729000Y384500D02*
D03*
X734000D02*
D03*
X739000D02*
D03*
X744000Y384500D02*
D03*
X749000D02*
D03*
X754000Y384500D02*
D03*
X758750D02*
D03*
X763750D02*
D03*
D207*
X875500Y980250D02*
D03*
X880500D02*
D03*
X885500D02*
D03*
X890500D02*
D03*
X895500D02*
D03*
X895500Y1018250D02*
D03*
X890500D02*
D03*
X885500Y1018250D02*
D03*
X880500Y1018250D02*
D03*
X875500D02*
D03*
X605500Y266750D02*
D03*
X610500D02*
D03*
X615500D02*
D03*
X620500Y266750D02*
D03*
X625500D02*
D03*
X630500Y266750D02*
D03*
X635500D02*
D03*
X640500D02*
D03*
Y218750D02*
D03*
X635500D02*
D03*
X630500D02*
D03*
X625500D02*
D03*
X620500D02*
D03*
X615500D02*
D03*
X610500D02*
D03*
X605500Y218750D02*
D03*
X279500Y642500D02*
D03*
X284500D02*
D03*
X289500D02*
D03*
X294500Y642500D02*
D03*
X299500D02*
D03*
X304500Y642500D02*
D03*
X309500D02*
D03*
X314500D02*
D03*
Y594500D02*
D03*
X309500D02*
D03*
X304500D02*
D03*
X299500D02*
D03*
X294500D02*
D03*
X289500D02*
D03*
X284500D02*
D03*
X279500Y594500D02*
D03*
X461500Y642500D02*
D03*
X466500D02*
D03*
X471500D02*
D03*
X476500Y642500D02*
D03*
X481500D02*
D03*
X486500Y642500D02*
D03*
X491500D02*
D03*
X496500D02*
D03*
Y594500D02*
D03*
X491500D02*
D03*
X486500D02*
D03*
X481500D02*
D03*
X476500D02*
D03*
X471500D02*
D03*
X466500D02*
D03*
X461500Y594500D02*
D03*
D208*
X906000Y989250D02*
D03*
Y994250D02*
D03*
Y999250D02*
D03*
Y1004250D02*
D03*
Y1009250D02*
D03*
X865000D02*
D03*
Y1004250D02*
D03*
Y999250D02*
D03*
Y994250D02*
D03*
Y989250D02*
D03*
X647000Y260250D02*
D03*
Y255250D02*
D03*
Y250250D02*
D03*
Y245250D02*
D03*
Y240250D02*
D03*
Y235250D02*
D03*
Y230250D02*
D03*
Y225250D02*
D03*
X599000Y260250D02*
D03*
Y255250D02*
D03*
Y250250D02*
D03*
X599000Y245250D02*
D03*
Y240250D02*
D03*
X599000Y235250D02*
D03*
Y230250D02*
D03*
Y225250D02*
D03*
X321000Y636000D02*
D03*
Y631000D02*
D03*
Y626000D02*
D03*
Y621000D02*
D03*
Y616000D02*
D03*
Y611000D02*
D03*
Y606000D02*
D03*
Y601000D02*
D03*
X273000Y636000D02*
D03*
Y631000D02*
D03*
Y626000D02*
D03*
X273000Y621000D02*
D03*
Y616000D02*
D03*
X273000Y611000D02*
D03*
Y606000D02*
D03*
Y601000D02*
D03*
X503000Y636000D02*
D03*
Y631000D02*
D03*
Y626000D02*
D03*
Y621000D02*
D03*
Y616000D02*
D03*
Y611000D02*
D03*
Y606000D02*
D03*
Y601000D02*
D03*
X455000Y636000D02*
D03*
Y631000D02*
D03*
Y626000D02*
D03*
X455000Y621000D02*
D03*
Y616000D02*
D03*
X455000Y611000D02*
D03*
Y606000D02*
D03*
Y601000D02*
D03*
D210*
X957750Y391000D02*
D03*
D226*
X95250Y619500D02*
D03*
D248*
X621500Y27375D02*
D03*
D255*
X1070500Y945250D02*
D03*
D256*
X1080000Y931250D02*
D03*
X1070500D02*
D03*
X1061000D02*
D03*
Y959250D02*
D03*
X1070500D02*
D03*
X1080000D02*
D03*
D257*
X145538Y661475D02*
D03*
X156462Y661500D02*
D03*
X366750Y269250D02*
D03*
Y259250D02*
D03*
X378750Y269250D02*
D03*
Y259250D02*
D03*
X565750Y321250D02*
D03*
Y311250D02*
D03*
X554750Y321250D02*
D03*
Y311250D02*
D03*
X587750Y321250D02*
D03*
X156462Y671500D02*
D03*
X221500Y756500D02*
D03*
Y746500D02*
D03*
X145538Y671475D02*
D03*
X210500Y756500D02*
D03*
Y746500D02*
D03*
X1627750Y956750D02*
D03*
Y966750D02*
D03*
X1578000Y392750D02*
D03*
Y402750D02*
D03*
X1578000Y207000D02*
D03*
Y217000D02*
D03*
X974800Y282700D02*
D03*
Y272700D02*
D03*
X1000200Y282700D02*
D03*
Y272700D02*
D03*
X838750Y919000D02*
D03*
Y909000D02*
D03*
X660000Y1027250D02*
D03*
Y1017250D02*
D03*
X989750Y1007750D02*
D03*
Y997750D02*
D03*
X1512000Y1067500D02*
D03*
Y1057500D02*
D03*
X1539750Y1067250D02*
D03*
Y1057250D02*
D03*
X1568750Y1067250D02*
D03*
Y1057250D02*
D03*
X1583500Y1067250D02*
D03*
Y1057250D02*
D03*
X1512650Y947500D02*
D03*
X1512650Y937500D02*
D03*
X1499950Y947500D02*
D03*
X1499950Y937500D02*
D03*
X1487250Y947500D02*
D03*
Y937500D02*
D03*
X1474600Y947500D02*
D03*
Y937500D02*
D03*
X435500Y472250D02*
D03*
Y482250D02*
D03*
X618750Y572000D02*
D03*
Y582000D02*
D03*
X346500Y493500D02*
D03*
Y503500D02*
D03*
X295867Y471160D02*
D03*
Y461160D02*
D03*
X285366Y440910D02*
D03*
Y430910D02*
D03*
X307367Y448910D02*
D03*
Y438910D02*
D03*
X296367Y440910D02*
D03*
Y430910D02*
D03*
X576750Y321250D02*
D03*
X635000Y1013750D02*
D03*
Y1023750D02*
D03*
X360750Y1056500D02*
D03*
Y1046500D02*
D03*
X1050250Y685000D02*
D03*
Y695000D02*
D03*
X1060250Y685000D02*
D03*
Y695000D02*
D03*
X296133Y1029531D02*
D03*
Y1019531D02*
D03*
X285633Y999281D02*
D03*
Y989281D02*
D03*
X307633Y1007281D02*
D03*
Y997281D02*
D03*
X296633Y999281D02*
D03*
Y989281D02*
D03*
X335616Y485410D02*
D03*
Y475410D02*
D03*
X354054Y454400D02*
D03*
Y464400D02*
D03*
X409117Y479660D02*
D03*
Y469660D02*
D03*
X343383Y1022781D02*
D03*
Y1012781D02*
D03*
X353883Y1012771D02*
D03*
Y1022771D02*
D03*
X409383Y1038031D02*
D03*
Y1028031D02*
D03*
X401320Y1007021D02*
D03*
Y1017021D02*
D03*
X1283500Y442250D02*
D03*
Y432250D02*
D03*
X1146500Y460500D02*
D03*
Y470500D02*
D03*
X1102750Y433250D02*
D03*
Y423250D02*
D03*
X1086000Y409000D02*
D03*
Y419000D02*
D03*
X1283500Y886250D02*
D03*
Y876250D02*
D03*
X1085750Y863000D02*
D03*
Y853000D02*
D03*
X1102750Y857250D02*
D03*
Y867250D02*
D03*
X873500Y652500D02*
D03*
Y642500D02*
D03*
X872000Y597500D02*
D03*
Y607500D02*
D03*
X1794250Y651750D02*
D03*
Y641750D02*
D03*
X1656250Y679750D02*
D03*
Y669750D02*
D03*
X1685750Y655500D02*
D03*
Y645500D02*
D03*
X1789500Y528000D02*
D03*
Y538000D02*
D03*
X1721500Y702500D02*
D03*
Y692500D02*
D03*
X693000Y1029250D02*
D03*
Y1039250D02*
D03*
D03*
Y1049250D02*
D03*
X936250Y1046500D02*
D03*
Y1056500D02*
D03*
X947250Y1046500D02*
D03*
Y1056500D02*
D03*
X1714750Y569500D02*
D03*
Y559500D02*
D03*
X1715500Y671500D02*
D03*
Y681500D02*
D03*
X1649500Y748422D02*
D03*
Y738422D02*
D03*
X702500Y608250D02*
D03*
Y618250D02*
D03*
X691500Y592500D02*
D03*
Y602500D02*
D03*
X702500Y638250D02*
D03*
Y628250D02*
D03*
X691500Y654000D02*
D03*
Y644000D02*
D03*
X975750Y421500D02*
D03*
Y431500D02*
D03*
X833051Y758800D02*
D03*
Y768800D02*
D03*
X822051Y768800D02*
D03*
Y778800D02*
D03*
X833051Y788800D02*
D03*
Y778800D02*
D03*
X833801Y507800D02*
D03*
Y517800D02*
D03*
X822801Y517800D02*
D03*
Y527800D02*
D03*
X833801Y537800D02*
D03*
Y527800D02*
D03*
X833051Y738700D02*
D03*
Y728700D02*
D03*
X822051Y728700D02*
D03*
Y718700D02*
D03*
X833051Y708700D02*
D03*
Y718700D02*
D03*
X833801Y477700D02*
D03*
Y487700D02*
D03*
X822801Y477700D02*
D03*
Y467700D02*
D03*
X833801Y467700D02*
D03*
X833801Y457700D02*
D03*
X925250Y1053000D02*
D03*
Y1063000D02*
D03*
X958250Y1053000D02*
D03*
Y1063000D02*
D03*
X1475750Y1057500D02*
D03*
Y1067500D02*
D03*
X1486750Y1057500D02*
D03*
Y1067500D02*
D03*
X940000Y967000D02*
D03*
X940000Y977000D02*
D03*
X887750Y933750D02*
D03*
Y923750D02*
D03*
X884750Y958500D02*
D03*
Y968500D02*
D03*
X916750Y954750D02*
D03*
Y944750D02*
D03*
X670947Y1017053D02*
D03*
Y1027053D02*
D03*
X812750Y828000D02*
D03*
Y818000D02*
D03*
X843546Y845546D02*
D03*
Y835546D02*
D03*
X741275Y790582D02*
D03*
Y800582D02*
D03*
X1047000Y988000D02*
D03*
Y998000D02*
D03*
X1036000Y988000D02*
D03*
Y998000D02*
D03*
X169757Y634500D02*
D03*
Y644500D02*
D03*
X180758Y651500D02*
D03*
Y661500D02*
D03*
X191758Y651500D02*
D03*
Y661500D02*
D03*
X598750Y301250D02*
D03*
Y311250D02*
D03*
X734821Y319571D02*
D03*
Y309571D02*
D03*
X723571Y309571D02*
D03*
Y319571D02*
D03*
X304500Y686500D02*
D03*
Y676500D02*
D03*
X345750Y732250D02*
D03*
Y722250D02*
D03*
X394401Y544099D02*
D03*
Y534099D02*
D03*
X576401Y549849D02*
D03*
Y539849D02*
D03*
X587750Y311250D02*
D03*
X576750D02*
D03*
X734000Y371000D02*
D03*
Y361000D02*
D03*
X595500Y881000D02*
D03*
Y871000D02*
D03*
X584500Y871000D02*
D03*
Y881000D02*
D03*
X850000Y813750D02*
D03*
Y823750D02*
D03*
D258*
X1827250Y707750D02*
D03*
Y687750D02*
D03*
X1811550Y707610D02*
D03*
X1811550Y687610D02*
D03*
X1816750Y556000D02*
D03*
Y576000D02*
D03*
X1774000Y702000D02*
D03*
Y682000D02*
D03*
X1796000Y707500D02*
D03*
Y687500D02*
D03*
X1740500Y727250D02*
D03*
Y747250D02*
D03*
X1696150Y507110D02*
D03*
Y487110D02*
D03*
X881000Y714000D02*
D03*
Y694000D02*
D03*
X985250Y765000D02*
D03*
Y785000D02*
D03*
X879000Y455750D02*
D03*
Y435750D02*
D03*
X926000Y359500D02*
D03*
Y339500D02*
D03*
X952750Y360500D02*
D03*
Y340500D02*
D03*
X878000Y1072000D02*
D03*
Y1052000D02*
D03*
X844500Y1050250D02*
D03*
Y1030250D02*
D03*
X215750Y684250D02*
D03*
Y664250D02*
D03*
X560000Y185500D02*
D03*
Y205500D02*
D03*
D259*
X1067500Y969750D02*
D03*
X1077500D02*
D03*
X1088500Y969750D02*
D03*
X1098500D02*
D03*
X1685000Y987500D02*
D03*
X1695000D02*
D03*
X617500Y811000D02*
D03*
X627500D02*
D03*
X623750Y800000D02*
D03*
X633750D02*
D03*
X617800Y460640D02*
D03*
X627800D02*
D03*
X624050Y449640D02*
D03*
X634050D02*
D03*
X401250Y598152D02*
D03*
X401275Y608848D02*
D03*
X391275D02*
D03*
X391250Y623750D02*
D03*
X401250D02*
D03*
X391250Y598152D02*
D03*
X391250Y635000D02*
D03*
X401250D02*
D03*
X1310000Y469500D02*
D03*
X1320000D02*
D03*
X1299000Y469500D02*
D03*
X1289000D02*
D03*
X1267250Y283250D02*
D03*
X1257250D02*
D03*
X1436000Y848250D02*
D03*
X1446000D02*
D03*
X1857000Y611750D02*
D03*
X1847000D02*
D03*
X1129750Y1032250D02*
D03*
X1119750D02*
D03*
X1123250Y1091750D02*
D03*
X1133250D02*
D03*
X947000Y182000D02*
D03*
X957000D02*
D03*
X807000Y947500D02*
D03*
X797000D02*
D03*
X767750Y858000D02*
D03*
X757750D02*
D03*
X737500D02*
D03*
X747500D02*
D03*
X1773625Y371250D02*
D03*
X1763625D02*
D03*
X720000Y935750D02*
D03*
X710000D02*
D03*
X1441750Y1008500D02*
D03*
X1451750D02*
D03*
X1217750Y1010000D02*
D03*
X1227750Y1010000D02*
D03*
X693000Y1039250D02*
D03*
X683000D02*
D03*
X703750Y1028250D02*
D03*
X713750D02*
D03*
X1885250Y615250D02*
D03*
X1875250D02*
D03*
X567000Y579500D02*
D03*
X557000D02*
D03*
X608750Y548000D02*
D03*
X618750D02*
D03*
X624000Y537250D02*
D03*
X614000D02*
D03*
X1017750Y680000D02*
D03*
X1007750D02*
D03*
X358750Y1069250D02*
D03*
X348750D02*
D03*
X401054Y448650D02*
D03*
X391054D02*
D03*
X1357025Y483765D02*
D03*
X1367025D02*
D03*
X1357025Y471295D02*
D03*
X1367025D02*
D03*
X1357025Y458825D02*
D03*
X1367025D02*
D03*
X1605500Y1020250D02*
D03*
X1615500D02*
D03*
X1275250Y405500D02*
D03*
X1265250D02*
D03*
X1275250Y849500D02*
D03*
X1265250D02*
D03*
X928000Y576250D02*
D03*
X918000D02*
D03*
X936000Y662500D02*
D03*
X946000D02*
D03*
X923000D02*
D03*
X913000D02*
D03*
X1760750Y648250D02*
D03*
X1750750D02*
D03*
X1736000Y615000D02*
D03*
X1726000D02*
D03*
X1641500Y648250D02*
D03*
X1651500D02*
D03*
X1631750Y602000D02*
D03*
X1641750D02*
D03*
X1739750Y601750D02*
D03*
X1749750D02*
D03*
X1750750Y637750D02*
D03*
X1760750D02*
D03*
X955250Y442500D02*
D03*
X945250D02*
D03*
X1715000Y1015000D02*
D03*
X1705000D02*
D03*
X1684500Y767250D02*
D03*
X1674500D02*
D03*
X1075250Y265750D02*
D03*
X1085250D02*
D03*
X506500Y95750D02*
D03*
X516500D02*
D03*
X998186Y596000D02*
D03*
X988186Y596000D02*
D03*
X1753250Y584500D02*
D03*
X1763250D02*
D03*
X1698250Y693250D02*
D03*
X1708250D02*
D03*
X725750Y585000D02*
D03*
X735750D02*
D03*
X710000Y574000D02*
D03*
X720000D02*
D03*
X725750Y661500D02*
D03*
X735750D02*
D03*
X710000Y672500D02*
D03*
X720000D02*
D03*
X780051Y768800D02*
D03*
X770051D02*
D03*
X780051Y778800D02*
D03*
X770051D02*
D03*
X780051Y728700D02*
D03*
X770051D02*
D03*
X780051Y718700D02*
D03*
X770051D02*
D03*
X780801Y517800D02*
D03*
X770801D02*
D03*
X780801Y527800D02*
D03*
X770801D02*
D03*
X780801Y477700D02*
D03*
X770801D02*
D03*
X791051Y768800D02*
D03*
X801051D02*
D03*
X791051Y778800D02*
D03*
X801051D02*
D03*
X791801Y517800D02*
D03*
X801801D02*
D03*
X791801Y527800D02*
D03*
X801801D02*
D03*
X791051Y728700D02*
D03*
X801051D02*
D03*
X791051Y718700D02*
D03*
X801051D02*
D03*
X791801Y477700D02*
D03*
X801801D02*
D03*
X791801Y467700D02*
D03*
X801801D02*
D03*
X780801D02*
D03*
X770801D02*
D03*
X1546000Y934250D02*
D03*
X1556000D02*
D03*
X1535000Y945250D02*
D03*
X1545000D02*
D03*
X1539000Y967250D02*
D03*
X1549000D02*
D03*
X744250Y999250D02*
D03*
X754250D02*
D03*
X744250Y988250D02*
D03*
X754250D02*
D03*
X744250Y977500D02*
D03*
X754250D02*
D03*
X744250Y966500D02*
D03*
X754250D02*
D03*
X1688000Y947750D02*
D03*
X1678000D02*
D03*
X1629250Y922000D02*
D03*
X1639250D02*
D03*
X919000Y986750D02*
D03*
X929000D02*
D03*
X903250Y1061750D02*
D03*
X913250D02*
D03*
X919000Y975750D02*
D03*
X929000D02*
D03*
X844250Y944750D02*
D03*
X854250D02*
D03*
X927750Y1010250D02*
D03*
X937750D02*
D03*
X919000Y997750D02*
D03*
X929000Y997750D02*
D03*
X960500Y993500D02*
D03*
X950500D02*
D03*
X864500Y929250D02*
D03*
X874500D02*
D03*
X916750Y1029750D02*
D03*
X906750D02*
D03*
X713750Y1049750D02*
D03*
X703750D02*
D03*
X752025Y820081D02*
D03*
X762025Y820081D02*
D03*
X752025Y809081D02*
D03*
X762025D02*
D03*
X752025Y798082D02*
D03*
X762025D02*
D03*
X824000Y802750D02*
D03*
X834000D02*
D03*
X823750Y845250D02*
D03*
X833750D02*
D03*
X930500Y1090750D02*
D03*
X940500D02*
D03*
X930500Y1078280D02*
D03*
X940500D02*
D03*
X659750Y255250D02*
D03*
X669750D02*
D03*
X556250Y242500D02*
D03*
X566250D02*
D03*
X640500Y301250D02*
D03*
X630500D02*
D03*
X627000Y184500D02*
D03*
X617000D02*
D03*
X595750D02*
D03*
X605750D02*
D03*
X577250Y233000D02*
D03*
X587250D02*
D03*
X577250Y222500D02*
D03*
X587250D02*
D03*
X659750Y230250D02*
D03*
X669750D02*
D03*
X619750Y301250D02*
D03*
X609750D02*
D03*
X577250Y252250D02*
D03*
X587250D02*
D03*
X577250Y263250D02*
D03*
X587250D02*
D03*
X708651Y235707D02*
D03*
X698651D02*
D03*
Y224707D02*
D03*
X708651D02*
D03*
X272750Y677000D02*
D03*
X262750D02*
D03*
X333750Y631000D02*
D03*
X343750D02*
D03*
X230250Y618250D02*
D03*
X240250D02*
D03*
X301000Y560250D02*
D03*
X291000D02*
D03*
X269750D02*
D03*
X279750D02*
D03*
X251250Y608750D02*
D03*
X261250D02*
D03*
X251250Y598250D02*
D03*
X261250D02*
D03*
X333750Y606000D02*
D03*
X343750D02*
D03*
X293750Y677000D02*
D03*
X283750D02*
D03*
X251250Y628000D02*
D03*
X261250D02*
D03*
X251250Y639000D02*
D03*
X261250D02*
D03*
X415401Y544099D02*
D03*
X405401D02*
D03*
X345750Y712000D02*
D03*
X335750D02*
D03*
X515750Y631000D02*
D03*
X525750D02*
D03*
X412250Y618250D02*
D03*
X422250D02*
D03*
X451750Y560250D02*
D03*
X461750D02*
D03*
X433250Y598250D02*
D03*
X443250D02*
D03*
X433250Y628000D02*
D03*
X443250D02*
D03*
X496500Y676500D02*
D03*
X486500D02*
D03*
X483000Y560250D02*
D03*
X473000D02*
D03*
X454750Y677000D02*
D03*
X444750D02*
D03*
X433250Y608750D02*
D03*
X443250D02*
D03*
X515750Y606000D02*
D03*
X525750D02*
D03*
X475750Y677000D02*
D03*
X465750D02*
D03*
X433250Y639000D02*
D03*
X443250D02*
D03*
X527750Y712000D02*
D03*
X517750D02*
D03*
X517750Y723000D02*
D03*
X527750D02*
D03*
X597401Y549849D02*
D03*
X587401D02*
D03*
X727500Y448000D02*
D03*
X717500D02*
D03*
X617500Y848000D02*
D03*
X607500D02*
D03*
D260*
X275750Y828250D02*
D03*
Y818250D02*
D03*
X275500Y269750D02*
D03*
Y259750D02*
D03*
X670800Y454890D02*
D03*
Y464890D02*
D03*
X1566500Y935250D02*
D03*
Y945250D02*
D03*
X1566000Y360000D02*
D03*
Y350000D02*
D03*
X1565750Y174500D02*
D03*
Y164500D02*
D03*
X632500Y347250D02*
D03*
Y357250D02*
D03*
X642250Y357250D02*
D03*
Y347250D02*
D03*
X719250Y898000D02*
D03*
Y888000D02*
D03*
X727250Y858000D02*
D03*
Y848000D02*
D03*
X717250Y862750D02*
D03*
Y852750D02*
D03*
X1003250Y1003750D02*
D03*
Y1013750D02*
D03*
X1190250Y725250D02*
D03*
Y735250D02*
D03*
X1120000Y745000D02*
D03*
Y755000D02*
D03*
X1110500Y705000D02*
D03*
Y695000D02*
D03*
X1200250Y574750D02*
D03*
Y564750D02*
D03*
X1250000Y495250D02*
D03*
Y505250D02*
D03*
X1180250Y484750D02*
D03*
Y474750D02*
D03*
X1260500Y485250D02*
D03*
Y495250D02*
D03*
X1120500Y505250D02*
D03*
Y495250D02*
D03*
X1140250Y695000D02*
D03*
Y685000D02*
D03*
X1090000Y744750D02*
D03*
Y754750D02*
D03*
X1130000Y744750D02*
D03*
Y754750D02*
D03*
X1130500Y766000D02*
D03*
Y776000D02*
D03*
X1100000Y744750D02*
D03*
Y754750D02*
D03*
X1090250Y545500D02*
D03*
Y535500D02*
D03*
X1220250Y535250D02*
D03*
Y545250D02*
D03*
X1190500Y515000D02*
D03*
Y505000D02*
D03*
X1220250Y505500D02*
D03*
Y495500D02*
D03*
X1120250Y635250D02*
D03*
Y625250D02*
D03*
X1130750Y625250D02*
D03*
Y615250D02*
D03*
X1139750Y654750D02*
D03*
Y664750D02*
D03*
X1180250Y655250D02*
D03*
Y665250D02*
D03*
X1159750Y654750D02*
D03*
Y664750D02*
D03*
X1149750Y655000D02*
D03*
Y665000D02*
D03*
X1140250Y605000D02*
D03*
Y595000D02*
D03*
X1170500Y585250D02*
D03*
Y575250D02*
D03*
X1150250Y585250D02*
D03*
Y575250D02*
D03*
X1130500Y585000D02*
D03*
Y575000D02*
D03*
X1190500Y585250D02*
D03*
Y575250D02*
D03*
X1170250Y665250D02*
D03*
Y675250D02*
D03*
X1210500Y645250D02*
D03*
Y655250D02*
D03*
X1150250Y634750D02*
D03*
Y644750D02*
D03*
X1139750Y634500D02*
D03*
Y644500D02*
D03*
X1210250Y605000D02*
D03*
Y595000D02*
D03*
X1200000Y645500D02*
D03*
Y655500D02*
D03*
X1190000Y655250D02*
D03*
Y665250D02*
D03*
X1210250Y625000D02*
D03*
Y615000D02*
D03*
X1120500Y585000D02*
D03*
Y575000D02*
D03*
X1109750Y675000D02*
D03*
Y665000D02*
D03*
X1090250Y655500D02*
D03*
Y645500D02*
D03*
X1060250Y725500D02*
D03*
Y735500D02*
D03*
X1050000Y725250D02*
D03*
Y735250D02*
D03*
X1060250Y624750D02*
D03*
Y614750D02*
D03*
X1040500Y664750D02*
D03*
Y654750D02*
D03*
X1080250Y655250D02*
D03*
Y645250D02*
D03*
X1070250Y655250D02*
D03*
Y645250D02*
D03*
X1060500Y555000D02*
D03*
Y565000D02*
D03*
X1110500Y604750D02*
D03*
Y594750D02*
D03*
X1070500Y584750D02*
D03*
Y574750D02*
D03*
X1100000Y565250D02*
D03*
Y555250D02*
D03*
X1050250Y535500D02*
D03*
Y545500D02*
D03*
X1049750Y495500D02*
D03*
Y485500D02*
D03*
X1110500Y715250D02*
D03*
Y725250D02*
D03*
X1160250Y695250D02*
D03*
Y705250D02*
D03*
X1169750Y545000D02*
D03*
Y535000D02*
D03*
X1110000Y545250D02*
D03*
Y555250D02*
D03*
X1260000Y565000D02*
D03*
Y575000D02*
D03*
X1230250Y545000D02*
D03*
Y535000D02*
D03*
X1320000Y685000D02*
D03*
Y675000D02*
D03*
X1120250Y695000D02*
D03*
Y705000D02*
D03*
Y715250D02*
D03*
Y725250D02*
D03*
X1100500Y535000D02*
D03*
Y545000D02*
D03*
X1089750Y505000D02*
D03*
Y495000D02*
D03*
X1130500Y535000D02*
D03*
Y545000D02*
D03*
X1160250Y535000D02*
D03*
Y545000D02*
D03*
X1300500Y575250D02*
D03*
Y585250D02*
D03*
X1290000Y715000D02*
D03*
Y725000D02*
D03*
X1240250Y674750D02*
D03*
Y664750D02*
D03*
X1300250Y615000D02*
D03*
Y605000D02*
D03*
X1090000Y685000D02*
D03*
Y675000D02*
D03*
X1229750Y645000D02*
D03*
Y655000D02*
D03*
X1310250Y575250D02*
D03*
Y585250D02*
D03*
X1320500Y575250D02*
D03*
Y585250D02*
D03*
X1170250Y485000D02*
D03*
Y475000D02*
D03*
X1270000Y585250D02*
D03*
Y575250D02*
D03*
X1320750Y615000D02*
D03*
Y605000D02*
D03*
X1090250Y715250D02*
D03*
Y705250D02*
D03*
X1070250Y725250D02*
D03*
Y735250D02*
D03*
X1140000D02*
D03*
Y725250D02*
D03*
X1310000Y605000D02*
D03*
Y615000D02*
D03*
X1100500Y685000D02*
D03*
Y695000D02*
D03*
X1070750Y705000D02*
D03*
Y695000D02*
D03*
X1250250Y695500D02*
D03*
Y705500D02*
D03*
X1150000Y745250D02*
D03*
Y735250D02*
D03*
X1240000Y655000D02*
D03*
Y645000D02*
D03*
X1180000Y614500D02*
D03*
Y604500D02*
D03*
X1442250Y1022250D02*
D03*
Y1032250D02*
D03*
X864741Y822350D02*
D03*
Y812350D02*
D03*
X908759Y882100D02*
D03*
Y872100D02*
D03*
X670250Y1002250D02*
D03*
Y992250D02*
D03*
X908759Y812350D02*
D03*
Y822350D02*
D03*
X864742Y872100D02*
D03*
Y882100D02*
D03*
X274874Y439908D02*
D03*
Y429908D02*
D03*
X275140Y998279D02*
D03*
Y988279D02*
D03*
X626500Y119500D02*
D03*
Y129500D02*
D03*
X636500Y119500D02*
D03*
Y129500D02*
D03*
X676500Y119500D02*
D03*
X676500Y129500D02*
D03*
X686500Y119500D02*
D03*
Y129500D02*
D03*
X716500Y119500D02*
D03*
X716500Y129500D02*
D03*
X726500Y119500D02*
D03*
Y129500D02*
D03*
X756500Y119500D02*
D03*
Y129500D02*
D03*
X766500Y119500D02*
D03*
Y129500D02*
D03*
X1258250Y451750D02*
D03*
Y441750D02*
D03*
X1236250Y452250D02*
D03*
Y442250D02*
D03*
X1322250Y450250D02*
D03*
Y440250D02*
D03*
X1298250Y450250D02*
D03*
Y440250D02*
D03*
X1196250Y436250D02*
D03*
Y426250D02*
D03*
X1289000Y408500D02*
D03*
Y418500D02*
D03*
X1226250Y452250D02*
D03*
Y442250D02*
D03*
X1216250Y452250D02*
D03*
Y442250D02*
D03*
X1230250Y394250D02*
D03*
Y384250D02*
D03*
X1246250Y342250D02*
D03*
Y352250D02*
D03*
X1222250Y342250D02*
D03*
Y352250D02*
D03*
X1214500Y394250D02*
D03*
Y384250D02*
D03*
X1306250Y344750D02*
D03*
Y354750D02*
D03*
X1322250Y344750D02*
D03*
Y354750D02*
D03*
X1254000Y394250D02*
D03*
Y384250D02*
D03*
X1272250Y352000D02*
D03*
Y362000D02*
D03*
X1332500Y344750D02*
D03*
Y354750D02*
D03*
X1312000Y450250D02*
D03*
Y440250D02*
D03*
X1262250Y344750D02*
D03*
Y354750D02*
D03*
X1244000Y401000D02*
D03*
Y411000D02*
D03*
X1196250Y363750D02*
D03*
Y373750D02*
D03*
X1061250Y344250D02*
D03*
Y354250D02*
D03*
X1083750Y351750D02*
D03*
Y361750D02*
D03*
X1049250Y346000D02*
D03*
Y356000D02*
D03*
X1117000Y452500D02*
D03*
Y442500D02*
D03*
X1035250Y395500D02*
D03*
Y385500D02*
D03*
X1099250Y351750D02*
D03*
Y361750D02*
D03*
X1069250Y399000D02*
D03*
Y409000D02*
D03*
X1057250Y452750D02*
D03*
Y442750D02*
D03*
X1137250Y452500D02*
D03*
Y442500D02*
D03*
X1121250Y344500D02*
D03*
Y354500D02*
D03*
X1137250Y344750D02*
D03*
Y354750D02*
D03*
X1077000Y452750D02*
D03*
Y442750D02*
D03*
X1033500Y452750D02*
D03*
Y442750D02*
D03*
X1087000Y452750D02*
D03*
Y442750D02*
D03*
X1116250Y409500D02*
D03*
Y419500D02*
D03*
X1011500Y436000D02*
D03*
Y426000D02*
D03*
X1037250Y353750D02*
D03*
Y343750D02*
D03*
X1196250Y817750D02*
D03*
Y807750D02*
D03*
X1214250Y838250D02*
D03*
Y828250D02*
D03*
X1222250Y786250D02*
D03*
Y796250D02*
D03*
X1011500Y880000D02*
D03*
Y870000D02*
D03*
X1061250Y788250D02*
D03*
Y798250D02*
D03*
X1072750Y840750D02*
D03*
Y830750D02*
D03*
X1048500Y790000D02*
D03*
Y800000D02*
D03*
X1033500Y896750D02*
D03*
Y886750D02*
D03*
X1086500Y840250D02*
D03*
Y830250D02*
D03*
X1107000Y896500D02*
D03*
Y886500D02*
D03*
X1042750Y836750D02*
D03*
Y846750D02*
D03*
X1097250Y840500D02*
D03*
Y830500D02*
D03*
X1121250Y788500D02*
D03*
Y798500D02*
D03*
X1137250Y788750D02*
D03*
Y798750D02*
D03*
X1057250Y896750D02*
D03*
Y886750D02*
D03*
X1246250Y786250D02*
D03*
Y796250D02*
D03*
X1196250Y880250D02*
D03*
Y870250D02*
D03*
X1230250Y838250D02*
D03*
Y828250D02*
D03*
X1097011Y896745D02*
D03*
Y886745D02*
D03*
X1087000Y896750D02*
D03*
Y886750D02*
D03*
X1077000D02*
D03*
Y896750D02*
D03*
X1117000Y896500D02*
D03*
Y886500D02*
D03*
X1137250Y896500D02*
D03*
Y886500D02*
D03*
X1215750Y896250D02*
D03*
Y886250D02*
D03*
X1236750Y895750D02*
D03*
Y885750D02*
D03*
X1254000Y838250D02*
D03*
Y828250D02*
D03*
X1306250Y788750D02*
D03*
Y798750D02*
D03*
X1272250Y796000D02*
D03*
Y806000D02*
D03*
X1258250Y895750D02*
D03*
Y885750D02*
D03*
X1312000Y894250D02*
D03*
Y884250D02*
D03*
X1322000Y894250D02*
D03*
Y884250D02*
D03*
X1109750Y344500D02*
D03*
Y354500D02*
D03*
X1289000Y852500D02*
D03*
Y862500D02*
D03*
X1298250Y894250D02*
D03*
Y884250D02*
D03*
X1322250Y788750D02*
D03*
Y798750D02*
D03*
X1033250Y839500D02*
D03*
Y829500D02*
D03*
X1052000Y836750D02*
D03*
Y846750D02*
D03*
X1011500Y849000D02*
D03*
Y859000D02*
D03*
X1299000Y852500D02*
D03*
Y862500D02*
D03*
X1244000Y845000D02*
D03*
Y855000D02*
D03*
X1332500Y798750D02*
D03*
Y788750D02*
D03*
X869750Y563750D02*
D03*
Y573750D02*
D03*
X970500Y602500D02*
D03*
Y592500D02*
D03*
X960500Y602500D02*
D03*
Y592500D02*
D03*
X956750Y675000D02*
D03*
Y685000D02*
D03*
X1775750Y515328D02*
D03*
Y525328D02*
D03*
X1701000Y539328D02*
D03*
Y529328D02*
D03*
X1789500Y506000D02*
D03*
Y516000D02*
D03*
X1772750Y609000D02*
D03*
Y619000D02*
D03*
X1782750Y619000D02*
D03*
Y609000D02*
D03*
X1805250Y602000D02*
D03*
Y592000D02*
D03*
X1770750Y665000D02*
D03*
Y655000D02*
D03*
X1804750Y651750D02*
D03*
Y641750D02*
D03*
X1704750Y681500D02*
D03*
Y671500D02*
D03*
X1684250Y559750D02*
D03*
Y569750D02*
D03*
X1674500Y569750D02*
D03*
Y559750D02*
D03*
X1695250Y671500D02*
D03*
Y681500D02*
D03*
X1737500Y557750D02*
D03*
Y567750D02*
D03*
X1727500Y567750D02*
D03*
Y557750D02*
D03*
X1750500Y665250D02*
D03*
X1750500Y675250D02*
D03*
X1685750Y671500D02*
D03*
Y681500D02*
D03*
X1676500D02*
D03*
Y671500D02*
D03*
X1760500Y675250D02*
D03*
Y665250D02*
D03*
X1666500Y681500D02*
D03*
Y671500D02*
D03*
X1676000Y645500D02*
D03*
Y655500D02*
D03*
X1704500Y559500D02*
D03*
Y569500D02*
D03*
X1694250D02*
D03*
Y559500D02*
D03*
X1664500Y568000D02*
D03*
Y558000D02*
D03*
X1654500Y568000D02*
D03*
Y558000D02*
D03*
X660250Y992250D02*
D03*
Y1002250D02*
D03*
X1166750Y1076750D02*
D03*
Y1086750D02*
D03*
X1122750Y1054750D02*
D03*
Y1044750D02*
D03*
X549940Y101500D02*
D03*
Y91500D02*
D03*
X538470Y101500D02*
D03*
Y91500D02*
D03*
X527000Y101500D02*
D03*
Y91500D02*
D03*
X936250Y1026750D02*
D03*
X936250Y1036750D02*
D03*
X947250Y1026750D02*
D03*
Y1036750D02*
D03*
X849000Y752250D02*
D03*
Y742250D02*
D03*
X943500Y503000D02*
D03*
Y513000D02*
D03*
X955250Y485250D02*
D03*
Y495250D02*
D03*
X988186Y607000D02*
D03*
Y617000D02*
D03*
X998186Y607000D02*
D03*
Y617000D02*
D03*
X746250Y682500D02*
D03*
Y672500D02*
D03*
X955250Y431500D02*
D03*
Y421500D02*
D03*
X925250Y383500D02*
D03*
Y393500D02*
D03*
X965250Y421500D02*
D03*
Y431500D02*
D03*
X965250Y360500D02*
D03*
Y350500D02*
D03*
X975500Y360500D02*
D03*
Y350500D02*
D03*
X811750Y768800D02*
D03*
Y778800D02*
D03*
X812250Y517750D02*
D03*
Y527750D02*
D03*
X811500Y728700D02*
D03*
Y718700D02*
D03*
X812301Y477700D02*
D03*
Y467700D02*
D03*
X1352813Y912013D02*
D03*
Y902013D02*
D03*
X1342813Y912013D02*
D03*
Y902013D02*
D03*
X1300113Y949263D02*
D03*
Y939263D02*
D03*
X1310113D02*
D03*
X1310113Y949263D02*
D03*
X1020057Y1059525D02*
D03*
Y1069525D02*
D03*
X1010000Y1069500D02*
D03*
Y1059500D02*
D03*
X186627Y497336D02*
D03*
Y507336D02*
D03*
X170371Y1038121D02*
D03*
Y1048121D02*
D03*
X156129Y1038154D02*
D03*
Y1048154D02*
D03*
X179121Y771121D02*
D03*
Y781121D02*
D03*
X164879Y771154D02*
D03*
Y781154D02*
D03*
X532379Y797379D02*
D03*
Y787379D02*
D03*
X546621Y797379D02*
D03*
Y787379D02*
D03*
X1639250Y944500D02*
D03*
Y934500D02*
D03*
X891500Y1050000D02*
D03*
Y1040000D02*
D03*
X903250Y1040750D02*
D03*
Y1050750D02*
D03*
X917250Y1008750D02*
D03*
X917250Y1018750D02*
D03*
X874500Y950250D02*
D03*
Y940250D02*
D03*
X864750Y944750D02*
D03*
Y954750D02*
D03*
X903250Y1072750D02*
D03*
Y1082750D02*
D03*
X789250Y848750D02*
D03*
X789250Y838750D02*
D03*
X779250D02*
D03*
Y848750D02*
D03*
X833000Y818000D02*
D03*
Y828000D02*
D03*
X823250Y828000D02*
D03*
Y818000D02*
D03*
X844500Y802750D02*
D03*
Y792750D02*
D03*
X813500D02*
D03*
Y802750D02*
D03*
X201500Y651500D02*
D03*
Y661500D02*
D03*
X207250Y640750D02*
D03*
Y630750D02*
D03*
X597250Y280250D02*
D03*
Y290250D02*
D03*
X635500Y290250D02*
D03*
Y280250D02*
D03*
X607250D02*
D03*
Y290250D02*
D03*
X625500Y205500D02*
D03*
Y195500D02*
D03*
X601000Y205500D02*
D03*
Y195500D02*
D03*
X625500Y290250D02*
D03*
Y280250D02*
D03*
X611000Y205500D02*
D03*
Y195500D02*
D03*
X637500Y188500D02*
D03*
Y178500D02*
D03*
X698821Y319571D02*
D03*
Y309571D02*
D03*
X715892Y287000D02*
D03*
Y297000D02*
D03*
X716750Y178556D02*
D03*
Y188556D02*
D03*
X271250Y656000D02*
D03*
Y666000D02*
D03*
X309500Y666000D02*
D03*
Y656000D02*
D03*
X299500Y581500D02*
D03*
Y571500D02*
D03*
X311500Y564250D02*
D03*
Y554250D02*
D03*
X285000Y581250D02*
D03*
Y571250D02*
D03*
X299500Y666000D02*
D03*
Y656000D02*
D03*
X281250Y656000D02*
D03*
Y666000D02*
D03*
X275000Y581250D02*
D03*
Y571250D02*
D03*
X387679Y697179D02*
D03*
Y687179D02*
D03*
X331250Y536250D02*
D03*
Y546250D02*
D03*
X369651Y538099D02*
D03*
Y548099D02*
D03*
X491500Y666000D02*
D03*
Y656000D02*
D03*
X481500Y581500D02*
D03*
Y571500D02*
D03*
X453250Y656000D02*
D03*
Y666000D02*
D03*
X463250Y656000D02*
D03*
Y666000D02*
D03*
X420500Y584000D02*
D03*
Y594000D02*
D03*
X481500Y666000D02*
D03*
Y656000D02*
D03*
X569679Y697179D02*
D03*
Y687179D02*
D03*
X513250Y536250D02*
D03*
Y546250D02*
D03*
X551651Y539849D02*
D03*
Y549849D02*
D03*
X71500Y541250D02*
D03*
Y531250D02*
D03*
X686250Y204250D02*
D03*
Y214250D02*
D03*
X359750Y575000D02*
D03*
Y585000D02*
D03*
X542250Y572000D02*
D03*
Y582000D02*
D03*
X542000Y658750D02*
D03*
Y648750D02*
D03*
X727750Y469000D02*
D03*
Y459000D02*
D03*
X706500Y416000D02*
D03*
Y406000D02*
D03*
X706000Y454750D02*
D03*
Y464750D02*
D03*
D261*
X327750Y829000D02*
D03*
X337750D02*
D03*
X237250Y891250D02*
D03*
X227250D02*
D03*
X245250Y946250D02*
D03*
X255250D02*
D03*
X237000Y332750D02*
D03*
X227000D02*
D03*
X237250Y387000D02*
D03*
X247250D02*
D03*
X329000Y270000D02*
D03*
X339000D02*
D03*
X1491250Y807810D02*
D03*
X1501250Y807810D02*
D03*
X1250000Y525250D02*
D03*
X1260000D02*
D03*
X672500Y805250D02*
D03*
X662500D02*
D03*
X638500Y811500D02*
D03*
X648500D02*
D03*
X640050Y461140D02*
D03*
X650050D02*
D03*
X1309750Y271000D02*
D03*
X1299750D02*
D03*
X1470750Y841500D02*
D03*
X1480750Y841500D02*
D03*
X631750Y713500D02*
D03*
X641750D02*
D03*
X934500Y241750D02*
D03*
X944500D02*
D03*
X817500Y946500D02*
D03*
X827500D02*
D03*
X817500Y936500D02*
D03*
X827500D02*
D03*
X1130000Y674750D02*
D03*
X1120000D02*
D03*
X1070750Y485000D02*
D03*
X1060750D02*
D03*
X1210250Y675250D02*
D03*
X1200250D02*
D03*
X1180000Y695250D02*
D03*
X1190000D02*
D03*
X1292250Y490250D02*
D03*
X1302250D02*
D03*
X1107000Y469750D02*
D03*
X1097000D02*
D03*
X1140750Y485000D02*
D03*
X1130750D02*
D03*
X1170750Y755250D02*
D03*
X1160750D02*
D03*
X1280750Y485000D02*
D03*
X1270750D02*
D03*
X1100500Y505250D02*
D03*
X1110500D02*
D03*
X1130000Y565250D02*
D03*
X1120000D02*
D03*
X1190000Y545000D02*
D03*
X1180000D02*
D03*
X1120250Y535000D02*
D03*
X1110250D02*
D03*
X1250250Y534750D02*
D03*
X1240250D02*
D03*
X1130000Y664500D02*
D03*
X1120000D02*
D03*
X1150250Y595250D02*
D03*
X1160250D02*
D03*
X1169750Y595500D02*
D03*
X1179750D02*
D03*
X1190000D02*
D03*
X1200000D02*
D03*
X1130250Y645250D02*
D03*
X1120250D02*
D03*
X1130750Y605000D02*
D03*
X1120750D02*
D03*
X1200250Y585250D02*
D03*
X1210250D02*
D03*
X1200500Y635000D02*
D03*
X1210500D02*
D03*
X1200250Y605500D02*
D03*
X1190250D02*
D03*
X1200500Y615250D02*
D03*
X1190500D02*
D03*
X1080000Y684750D02*
D03*
X1070000D02*
D03*
X1080000Y725000D02*
D03*
X1090000D02*
D03*
X1039750Y695000D02*
D03*
X1029750D02*
D03*
X1050000Y625250D02*
D03*
X1040000D02*
D03*
X1018000Y640000D02*
D03*
X1008000D02*
D03*
X1080750Y635250D02*
D03*
X1070750D02*
D03*
X1080000Y605000D02*
D03*
X1070000D02*
D03*
X1080000Y614750D02*
D03*
X1070000D02*
D03*
X1080000Y595250D02*
D03*
X1070000D02*
D03*
X1090250Y575000D02*
D03*
X1080250D02*
D03*
X1030750Y565000D02*
D03*
X1020750D02*
D03*
X1030250Y535250D02*
D03*
X1040250D02*
D03*
X1060000Y495250D02*
D03*
X1070000D02*
D03*
X1260250Y694750D02*
D03*
X1270250D02*
D03*
X1260250Y674500D02*
D03*
X1270250D02*
D03*
X1270000Y654750D02*
D03*
X1260000D02*
D03*
X1230500Y695000D02*
D03*
X1240500D02*
D03*
X1090000Y695250D02*
D03*
X1080000D02*
D03*
X1080250Y554750D02*
D03*
X1070250D02*
D03*
X1210500Y535000D02*
D03*
X1200500D02*
D03*
X1240500Y565000D02*
D03*
X1230500D02*
D03*
X1230000Y705250D02*
D03*
X1220000D02*
D03*
X1180250Y705000D02*
D03*
X1170250D02*
D03*
X1210000Y695000D02*
D03*
X1200000D02*
D03*
X1230250Y725000D02*
D03*
X1240250D02*
D03*
X1250000Y685000D02*
D03*
X1260000D02*
D03*
X1110500Y525500D02*
D03*
X1120500D02*
D03*
X1210250Y524750D02*
D03*
X1200250D02*
D03*
X1190250Y535000D02*
D03*
X1180250D02*
D03*
X1222750Y922000D02*
D03*
X1212750D02*
D03*
X1239000Y927750D02*
D03*
X1249000D02*
D03*
X1280000Y605000D02*
D03*
X1290000D02*
D03*
X1240000Y495250D02*
D03*
X1230000D02*
D03*
X1170250Y745000D02*
D03*
X1180250D02*
D03*
X1220500Y525000D02*
D03*
X1230500D02*
D03*
X1260250Y735000D02*
D03*
X1270250D02*
D03*
X1310250Y555500D02*
D03*
X1320250D02*
D03*
X1200250Y764750D02*
D03*
X1190250D02*
D03*
X1210250Y705000D02*
D03*
X1200250D02*
D03*
X1220500Y714750D02*
D03*
X1210500D02*
D03*
X1290250Y565000D02*
D03*
X1300250D02*
D03*
X1280500Y635250D02*
D03*
X1290500D02*
D03*
X1280000Y595250D02*
D03*
X1290000D02*
D03*
X1270000Y594750D02*
D03*
X1260000D02*
D03*
X1030250Y544500D02*
D03*
X1040250D02*
D03*
X1230250Y734500D02*
D03*
X1240250D02*
D03*
X1230250Y635000D02*
D03*
X1220250D02*
D03*
X1310000Y715000D02*
D03*
X1300000D02*
D03*
X1060000Y505000D02*
D03*
X1050000D02*
D03*
X1220500Y605000D02*
D03*
X1230500D02*
D03*
X1645250Y1064500D02*
D03*
X1635250D02*
D03*
X1683750Y832550D02*
D03*
X1693750D02*
D03*
X1683750Y867020D02*
D03*
X1693750D02*
D03*
X1683750Y855550D02*
D03*
X1693750Y855550D02*
D03*
X1683750Y844080D02*
D03*
X1693750Y844080D02*
D03*
X1645250Y1054500D02*
D03*
X1635250D02*
D03*
X956750Y453000D02*
D03*
X966750D02*
D03*
X1327250Y1029000D02*
D03*
X1317250D02*
D03*
X1347750D02*
D03*
X1357750D02*
D03*
X1227750Y1029000D02*
D03*
X1217750D02*
D03*
X1248250D02*
D03*
X1258250D02*
D03*
X1217750Y999500D02*
D03*
X1227750D02*
D03*
X1193250Y1031500D02*
D03*
X1183250D02*
D03*
X1441750Y998000D02*
D03*
X1451750D02*
D03*
X943235Y847505D02*
D03*
X933235D02*
D03*
X954500Y913500D02*
D03*
X964500D02*
D03*
X1056750Y1063250D02*
D03*
X1046750D02*
D03*
X683000Y1017750D02*
D03*
X693000D02*
D03*
X703750D02*
D03*
X713750D02*
D03*
Y1039250D02*
D03*
X703750D02*
D03*
X933500Y913500D02*
D03*
X943500D02*
D03*
X964235Y847505D02*
D03*
X954235D02*
D03*
X1180250Y564750D02*
D03*
X1170250D02*
D03*
X1250250Y745000D02*
D03*
X1240250D02*
D03*
X1220500Y755250D02*
D03*
X1210500D02*
D03*
X1100250Y524500D02*
D03*
X1090250D02*
D03*
X1027250Y797750D02*
D03*
X1037250D02*
D03*
X880000Y575750D02*
D03*
X890000D02*
D03*
X883000Y662000D02*
D03*
X893000D02*
D03*
X948000Y576000D02*
D03*
X938000D02*
D03*
X958000Y576000D02*
D03*
X968000D02*
D03*
X956000Y661500D02*
D03*
X966000D02*
D03*
X1875250Y625750D02*
D03*
X1885250D02*
D03*
X1730000Y717750D02*
D03*
X1740000D02*
D03*
X1750000Y694500D02*
D03*
X1740000D02*
D03*
X1640500Y628000D02*
D03*
X1650500D02*
D03*
X1646000Y618000D02*
D03*
X1656000D02*
D03*
X1640500Y638000D02*
D03*
X1650500D02*
D03*
X1748000Y563750D02*
D03*
X1758000D02*
D03*
X1748000Y573750D02*
D03*
X1758000D02*
D03*
X1740000Y685000D02*
D03*
X1750000D02*
D03*
X1732500Y591250D02*
D03*
X1742500D02*
D03*
X1662750Y608000D02*
D03*
X1652750D02*
D03*
X720000Y925250D02*
D03*
X710000D02*
D03*
X715000Y946250D02*
D03*
X705000D02*
D03*
X693750D02*
D03*
X683750D02*
D03*
X765250Y999250D02*
D03*
X775250D02*
D03*
X765250Y988250D02*
D03*
X775250D02*
D03*
X765250Y977500D02*
D03*
X775250D02*
D03*
X765250Y966500D02*
D03*
X775250D02*
D03*
X667250Y967250D02*
D03*
X657250D02*
D03*
X726500Y946000D02*
D03*
X736500D02*
D03*
X1079000Y1094500D02*
D03*
X1089000D02*
D03*
X1109250Y1094500D02*
D03*
X1099250D02*
D03*
X1046750Y1048250D02*
D03*
X1056750D02*
D03*
X1046750Y1038250D02*
D03*
X1056750D02*
D03*
X1806125Y359000D02*
D03*
X1816125D02*
D03*
X1650250Y914500D02*
D03*
X1660250D02*
D03*
X1491250Y842220D02*
D03*
X1501250D02*
D03*
X1491250Y853690D02*
D03*
X1501250Y853690D02*
D03*
X1491250Y830750D02*
D03*
X1501250D02*
D03*
X1491250Y819280D02*
D03*
X1501250D02*
D03*
X879000Y724000D02*
D03*
X869000D02*
D03*
X971750Y749250D02*
D03*
X961750D02*
D03*
X910250Y479750D02*
D03*
X920250D02*
D03*
X990686Y542500D02*
D03*
X980686D02*
D03*
Y532500D02*
D03*
X990686D02*
D03*
X792000Y620250D02*
D03*
X782000D02*
D03*
X944750Y421000D02*
D03*
X934750D02*
D03*
X992250Y398750D02*
D03*
X1002250Y398750D02*
D03*
X928250Y371000D02*
D03*
X918250D02*
D03*
X992250Y388750D02*
D03*
X1002250D02*
D03*
X925250Y403250D02*
D03*
X915250D02*
D03*
X975750Y441750D02*
D03*
X965750D02*
D03*
X992250Y378500D02*
D03*
X1002250Y378500D02*
D03*
X159534Y220741D02*
D03*
X169534D02*
D03*
X159467Y206509D02*
D03*
X169467D02*
D03*
X542458Y256267D02*
D03*
X532458D02*
D03*
X170464Y496956D02*
D03*
X160464D02*
D03*
X550371Y1015879D02*
D03*
X560371D02*
D03*
X550404Y1030121D02*
D03*
X560404D02*
D03*
X873750Y967750D02*
D03*
X863750D02*
D03*
X868000Y1030000D02*
D03*
X878000D02*
D03*
X887750Y947750D02*
D03*
X897750D02*
D03*
X905750Y959500D02*
D03*
X895750D02*
D03*
X878000Y1040000D02*
D03*
X868000D02*
D03*
X916750Y965250D02*
D03*
X926750D02*
D03*
X810000Y845250D02*
D03*
X800000D02*
D03*
X1057000Y970750D02*
D03*
X1047000D02*
D03*
X1036000Y978000D02*
D03*
X1026000D02*
D03*
X1005000D02*
D03*
X1015000D02*
D03*
X892250Y1093750D02*
D03*
X902250D02*
D03*
X874250Y1096500D02*
D03*
X864250D02*
D03*
X196750Y635250D02*
D03*
X186750D02*
D03*
X708750Y267642D02*
D03*
X698750D02*
D03*
X712250Y161556D02*
D03*
X702250Y161556D02*
D03*
X708651Y199957D02*
D03*
X698651D02*
D03*
X335750Y687250D02*
D03*
X345750D02*
D03*
X368321Y704321D02*
D03*
X358321D02*
D03*
X348222Y532707D02*
D03*
X358222D02*
D03*
X440000Y586250D02*
D03*
X450000D02*
D03*
X517750Y687250D02*
D03*
X527750D02*
D03*
X550321Y704321D02*
D03*
X540321D02*
D03*
X530222Y532707D02*
D03*
X540222D02*
D03*
X104750Y586500D02*
D03*
X94750D02*
D03*
X107500Y630500D02*
D03*
X117500D02*
D03*
X82000Y636500D02*
D03*
X92000D02*
D03*
X1260500Y635250D02*
D03*
X1270500D02*
D03*
X1260250Y615250D02*
D03*
X1270250D02*
D03*
X346000Y674500D02*
D03*
X336000D02*
D03*
X1065500Y919250D02*
D03*
X1075500D02*
D03*
X738500Y445500D02*
D03*
X748500D02*
D03*
X759750Y445250D02*
D03*
X769750D02*
D03*
X713500Y380000D02*
D03*
X703500D02*
D03*
X783750Y375750D02*
D03*
X793750D02*
D03*
X783750Y396250D02*
D03*
X793750D02*
D03*
X783750Y386000D02*
D03*
X793750D02*
D03*
X706000Y444250D02*
D03*
X696000D02*
D03*
X706000Y434250D02*
D03*
X696000D02*
D03*
X783750Y416250D02*
D03*
X793750D02*
D03*
X595000Y860000D02*
D03*
X605000D02*
D03*
X593000Y903000D02*
D03*
X603000D02*
D03*
X655750Y906000D02*
D03*
X645750D02*
D03*
X656750Y863750D02*
D03*
X646750D02*
D03*
D262*
X267215Y449964D02*
D03*
X274286Y457035D02*
D03*
X216215Y861215D02*
D03*
X223286Y868286D02*
D03*
X268228Y1008462D02*
D03*
X275299Y1015533D02*
D03*
X212536Y303286D02*
D03*
X205464Y296215D02*
D03*
X252036Y263785D02*
D03*
X244965Y256714D02*
D03*
X537715Y479464D02*
D03*
X544785Y486535D02*
D03*
X547965Y469215D02*
D03*
X555036Y476286D02*
D03*
X814688Y556133D02*
D03*
X807617Y549062D02*
D03*
X796200Y678450D02*
D03*
X789129Y671379D02*
D03*
X755895Y659358D02*
D03*
X762966Y666429D02*
D03*
X776931Y638321D02*
D03*
X784002Y645393D02*
D03*
D263*
X226786Y407965D02*
D03*
X219715Y415036D02*
D03*
X252465Y823536D02*
D03*
X259536Y816464D02*
D03*
X226286Y966964D02*
D03*
X219214Y974035D02*
D03*
X795950Y567800D02*
D03*
X788879Y574871D02*
D03*
X776858Y608105D02*
D03*
X783929Y601034D02*
D03*
X755822Y587069D02*
D03*
X762893Y579998D02*
D03*
X807867Y697188D02*
D03*
X814938Y690117D02*
D03*
X651361Y192469D02*
D03*
X644290Y199540D02*
D03*
X325361Y568219D02*
D03*
X318290Y575290D02*
D03*
X507361Y568219D02*
D03*
X500290Y575290D02*
D03*
X494500Y564750D02*
D03*
X501571Y557679D02*
D03*
X676285Y298715D02*
D03*
X669214Y305786D02*
D03*
D264*
X1445000Y592250D02*
D03*
X1428000D02*
D03*
X1303750Y673000D02*
D03*
X1286750D02*
D03*
X996000Y714250D02*
D03*
X1013000D02*
D03*
X1001250Y543250D02*
D03*
X1018250D02*
D03*
X1283000Y779000D02*
D03*
X1266000D02*
D03*
X1273750Y720000D02*
D03*
X1256750D02*
D03*
X1323500Y696500D02*
D03*
X1306500D02*
D03*
X1323750Y730000D02*
D03*
X1306750D02*
D03*
X1263750Y550000D02*
D03*
X1246750D02*
D03*
X997250Y748250D02*
D03*
X1014250D02*
D03*
X1010750Y588000D02*
D03*
X1027750D02*
D03*
X1351500Y722500D02*
D03*
X1334500D02*
D03*
X1165250Y780250D02*
D03*
X1148250D02*
D03*
X1377250Y649750D02*
D03*
X1360250D02*
D03*
X1629250Y1029500D02*
D03*
X1646250D02*
D03*
X1633750Y1075500D02*
D03*
X1650750D02*
D03*
X1637750Y1015250D02*
D03*
X1654750D02*
D03*
X1740250Y706750D02*
D03*
X1757250D02*
D03*
X1816250Y591250D02*
D03*
X1833250D02*
D03*
X1631750Y588750D02*
D03*
X1614750Y588750D02*
D03*
X1694500Y519000D02*
D03*
X1677500D02*
D03*
X895750Y746000D02*
D03*
X912750D02*
D03*
X972750Y760500D02*
D03*
X955750D02*
D03*
X929000Y726250D02*
D03*
X946000D02*
D03*
X877500Y466750D02*
D03*
X860500D02*
D03*
X934750Y491500D02*
D03*
X917750D02*
D03*
X928000Y507500D02*
D03*
X911000D02*
D03*
X895750Y733250D02*
D03*
X912750D02*
D03*
X929250Y739250D02*
D03*
X946250D02*
D03*
X894000Y515750D02*
D03*
X877000D02*
D03*
X1053500Y916000D02*
D03*
X1036500D02*
D03*
X698750Y255535D02*
D03*
X715750D02*
D03*
X700500Y149806D02*
D03*
X717500D02*
D03*
X697901Y212457D02*
D03*
X714901D02*
D03*
X358321Y716464D02*
D03*
X375321D02*
D03*
X345750Y699500D02*
D03*
X328750D02*
D03*
X358222Y520565D02*
D03*
X341222D02*
D03*
X540321Y716463D02*
D03*
X557321D02*
D03*
X544750Y521500D02*
D03*
X561750D02*
D03*
X527750Y699500D02*
D03*
X510750D02*
D03*
D265*
X1794500Y619000D02*
D03*
Y602000D02*
D03*
X1325250Y481500D02*
D03*
Y498500D02*
D03*
X1676000Y910750D02*
D03*
Y927750D02*
D03*
X1690500Y910750D02*
D03*
Y927750D02*
D03*
X1012250Y805500D02*
D03*
Y822500D02*
D03*
X1247250Y441750D02*
D03*
Y458750D02*
D03*
X1203500Y351000D02*
D03*
Y334000D02*
D03*
X1012250Y361500D02*
D03*
Y344500D02*
D03*
X1045250Y441500D02*
D03*
Y458500D02*
D03*
X1203500Y795000D02*
D03*
Y778000D02*
D03*
X1226250Y886250D02*
D03*
Y903250D02*
D03*
X1045250Y885500D02*
D03*
Y902500D02*
D03*
X1781750Y659500D02*
D03*
Y642500D02*
D03*
X1816500Y648250D02*
D03*
Y631250D02*
D03*
X882750Y746500D02*
D03*
Y763500D02*
D03*
X880500Y487250D02*
D03*
Y504250D02*
D03*
X898000Y488000D02*
D03*
Y505000D02*
D03*
X1020000Y917750D02*
D03*
Y900750D02*
D03*
X915750Y1093250D02*
D03*
Y1076250D02*
D03*
X218500Y652250D02*
D03*
Y635250D02*
D03*
X576500Y205500D02*
D03*
Y188500D02*
D03*
X727500Y287000D02*
D03*
Y270000D02*
D03*
X711071Y309571D02*
D03*
Y326571D02*
D03*
X729000Y188556D02*
D03*
Y171556D02*
D03*
X248000Y581250D02*
D03*
Y564250D02*
D03*
X399787Y687179D02*
D03*
Y704179D02*
D03*
X318250Y537750D02*
D03*
Y520750D02*
D03*
X381849Y544099D02*
D03*
X381849Y527099D02*
D03*
X482250Y547500D02*
D03*
Y530500D02*
D03*
X581787Y687179D02*
D03*
Y704179D02*
D03*
X500250Y537750D02*
D03*
Y520750D02*
D03*
X564151Y549849D02*
D03*
Y532849D02*
D03*
D266*
X672000Y362000D02*
D03*
X652000D02*
D03*
X1395000Y592250D02*
D03*
X1415000D02*
D03*
X1395500Y610250D02*
D03*
X1415500D02*
D03*
X1356000Y498500D02*
D03*
X1336000D02*
D03*
X1548250Y810800D02*
D03*
X1528250D02*
D03*
X1623500Y892150D02*
D03*
X1643500D02*
D03*
X1631750Y573250D02*
D03*
X1611750D02*
D03*
X655250Y979750D02*
D03*
X635250D02*
D03*
X1121250Y919250D02*
D03*
X1101250D02*
D03*
X214750Y581140D02*
D03*
X234750D02*
D03*
X446500Y542750D02*
D03*
X466500D02*
D03*
X803750Y362000D02*
D03*
X783750D02*
D03*
X614500Y913750D02*
D03*
X634500D02*
D03*
D267*
X607390Y889900D02*
D03*
Y880400D02*
D03*
Y870900D02*
D03*
X635390D02*
D03*
Y880400D02*
D03*
Y889900D02*
D03*
D268*
X621390Y880400D02*
D03*
D273*
X1708950Y455000D02*
D03*
X1708000Y933550D02*
D03*
X1658500Y933550D02*
D03*
D281*
X1962251Y-57000D02*
D03*
X-61501Y1173751D02*
D03*
X1962251D02*
D03*
X-61501Y-57000D02*
D03*
D289*
X993250Y1050750D02*
D03*
X974250Y1024750D02*
D03*
X983750D02*
D03*
X993250D02*
D03*
X974250Y1050750D02*
D03*
X1017000Y966000D02*
D03*
X1036000Y940000D02*
D03*
X1026500D02*
D03*
X1017000D02*
D03*
X1036000Y966000D02*
D03*
D295*
X1191750Y1071250D02*
D03*
X1191750Y1086250D02*
D03*
X1203750Y1071250D02*
D03*
X1203750Y1086250D02*
D03*
X1291250Y1071250D02*
D03*
Y1086250D02*
D03*
X1303250Y1071250D02*
D03*
Y1086250D02*
D03*
X1191750Y1043250D02*
D03*
X1191750Y1058250D02*
D03*
X1203750Y1043250D02*
D03*
Y1058250D02*
D03*
X1291250Y1043250D02*
D03*
X1291250Y1058250D02*
D03*
X1303250Y1043250D02*
D03*
X1303250Y1058250D02*
D03*
D296*
X1191750Y1076250D02*
D03*
Y1081250D02*
D03*
X1203750Y1076250D02*
D03*
X1203750Y1081250D02*
D03*
X1291250Y1076250D02*
D03*
Y1081250D02*
D03*
X1303250Y1076250D02*
D03*
X1303250Y1081250D02*
D03*
X1191750Y1048250D02*
D03*
Y1053250D02*
D03*
X1203750Y1048250D02*
D03*
X1203750Y1053250D02*
D03*
X1291250Y1048250D02*
D03*
X1291250Y1053250D02*
D03*
X1303250Y1048250D02*
D03*
Y1053250D02*
D03*
D297*
X646500Y35000D02*
D03*
X606500D02*
D03*
X496500D02*
D03*
X476500D02*
D03*
X546500D02*
D03*
X516500D02*
D03*
X506500D02*
D03*
X616500D02*
D03*
X586500D02*
D03*
X526500D02*
D03*
X556500D02*
D03*
X486500D02*
D03*
X466500Y35000D02*
D03*
X596500Y35000D02*
D03*
X626500D02*
D03*
X536500D02*
D03*
X636500D02*
D03*
X716500D02*
D03*
X666500D02*
D03*
X766500D02*
D03*
X696500D02*
D03*
X676500D02*
D03*
X746500Y35000D02*
D03*
X776500Y35000D02*
D03*
X736500D02*
D03*
X726500D02*
D03*
X756500D02*
D03*
X786500D02*
D03*
X656500D02*
D03*
X686500D02*
D03*
X706500D02*
D03*
D298*
X456500Y40000D02*
D03*
D301*
X725179Y911179D02*
D03*
X732250Y918250D02*
D03*
X351589Y383186D02*
D03*
X344518Y376114D02*
D03*
X351856Y941556D02*
D03*
X344785Y934485D02*
D03*
X807263Y563558D02*
D03*
X814335Y570629D02*
D03*
X800369Y556663D02*
D03*
X793298Y549592D02*
D03*
X784636Y586185D02*
D03*
X791707Y593256D02*
D03*
X770671Y572220D02*
D03*
X777742Y579291D02*
D03*
X799558Y660949D02*
D03*
X806629Y668020D02*
D03*
X778522Y681985D02*
D03*
X785593Y689056D02*
D03*
X739268Y925375D02*
D03*
X732196Y918304D02*
D03*
X651714Y206965D02*
D03*
X658786Y214036D02*
D03*
X666564Y279243D02*
D03*
X673635Y286314D02*
D03*
X325714Y582715D02*
D03*
X332786Y589786D02*
D03*
X340564Y654993D02*
D03*
X347635Y662064D02*
D03*
X507715Y582715D02*
D03*
X514786Y589786D02*
D03*
X522564Y654993D02*
D03*
X529635Y662064D02*
D03*
D305*
X732250Y918250D02*
D03*
X739321Y911179D02*
D03*
X778449Y564441D02*
D03*
X785520Y557370D02*
D03*
X806556Y578407D02*
D03*
X799485Y585478D02*
D03*
X800442Y689763D02*
D03*
X793371Y696835D02*
D03*
X807337Y682869D02*
D03*
X814408Y675798D02*
D03*
X777815Y667136D02*
D03*
X770744Y674207D02*
D03*
X791780Y653171D02*
D03*
X784709Y660242D02*
D03*
X651714Y278536D02*
D03*
X658786Y271465D02*
D03*
X666564Y206258D02*
D03*
X673635Y199186D02*
D03*
X325714Y654286D02*
D03*
X332786Y647215D02*
D03*
X340564Y582007D02*
D03*
X347635Y574936D02*
D03*
X507715Y654286D02*
D03*
X514786Y647215D02*
D03*
X522564Y582007D02*
D03*
X529635Y574936D02*
D03*
D306*
X1015179Y1029571D02*
D03*
X1029321Y1015429D02*
D03*
D307*
X956250Y470000D02*
D03*
X942108Y455858D02*
D03*
X794179Y259179D02*
D03*
X808321Y273321D02*
D03*
D316*
X365460Y328530D02*
D03*
X358800Y341850D02*
D03*
X362130Y331860D02*
D03*
Y325200D02*
D03*
X355470Y338520D02*
D03*
X358800Y335190D02*
D03*
X352140Y328530D02*
D03*
X355470Y331860D02*
D03*
X369141Y896891D02*
D03*
X365727Y893561D02*
D03*
X372387Y900221D02*
D03*
X379047Y886901D02*
D03*
X355736Y896891D02*
D03*
X359066Y893561D02*
D03*
X355736Y890231D02*
D03*
X352406Y886901D02*
D03*
X372387Y893561D02*
D03*
X375717Y890231D02*
D03*
X382377Y896891D02*
D03*
X379047Y900221D02*
D03*
X365727Y886901D02*
D03*
X359066Y900221D02*
D03*
X362397Y883571D02*
D03*
Y890231D02*
D03*
X378780Y341850D02*
D03*
X382110Y338520D02*
D03*
X375450Y331860D02*
D03*
X372120Y335190D02*
D03*
X365460Y341850D02*
D03*
X348810Y331860D02*
D03*
X349076Y890231D02*
D03*
X398760Y421771D02*
D03*
X352406Y893561D02*
D03*
X349076Y883571D02*
D03*
X382377Y983471D02*
D03*
X319133Y933531D02*
D03*
X322436Y936851D02*
D03*
X339086Y900221D02*
D03*
X322436Y896891D02*
D03*
X406007Y920521D02*
D03*
X345746Y893561D02*
D03*
X329096Y896891D02*
D03*
X335756D02*
D03*
X339086Y886901D02*
D03*
X335756Y890231D02*
D03*
X329096Y890231D02*
D03*
X342416Y896891D02*
D03*
X332426Y900221D02*
D03*
X325766Y906881D02*
D03*
X395697Y896891D02*
D03*
X392367Y900221D02*
D03*
X385707D02*
D03*
X339086Y986801D02*
D03*
X332426Y986801D02*
D03*
X362396Y976811D02*
D03*
X362396Y983471D02*
D03*
X325766Y973481D02*
D03*
X319106Y973481D02*
D03*
X325766Y980141D02*
D03*
X345746Y980141D02*
D03*
X342416Y983471D02*
D03*
X315776Y970151D02*
D03*
X315776Y963491D02*
D03*
X315776Y976811D02*
D03*
X385706Y980141D02*
D03*
X335756Y983471D02*
D03*
X352406Y986801D02*
D03*
X349076Y983471D02*
D03*
X392367Y980141D02*
D03*
X389036Y983471D02*
D03*
X382377Y976811D02*
D03*
X415677Y956831D02*
D03*
X409017Y950171D02*
D03*
X319106Y900221D02*
D03*
X322436Y950171D02*
D03*
X325766Y940181D02*
D03*
X322436Y970151D02*
D03*
Y963491D02*
D03*
X319106Y966821D02*
D03*
X352406Y980141D02*
D03*
X355736Y976811D02*
D03*
X365726Y980141D02*
D03*
X365726Y986801D02*
D03*
X325766Y960161D02*
D03*
X402357Y963491D02*
D03*
X419007Y966821D02*
D03*
X385707Y893561D02*
D03*
X409017Y943511D02*
D03*
X315776Y950171D02*
D03*
X325766Y946841D02*
D03*
X322436Y943511D02*
D03*
X332426Y980141D02*
D03*
X394570Y883771D02*
D03*
X389037Y890231D02*
D03*
X412347Y946841D02*
D03*
X412347Y940181D02*
D03*
X415677Y936851D02*
D03*
X409017Y956831D02*
D03*
X392366Y986801D02*
D03*
X339086Y980141D02*
D03*
X319106Y960161D02*
D03*
X395696Y983471D02*
D03*
X405687Y953501D02*
D03*
X412347Y966821D02*
D03*
Y960161D02*
D03*
X369056Y990131D02*
D03*
X309116Y936851D02*
D03*
X312446Y933521D02*
D03*
X312179Y375150D02*
D03*
X308849Y378480D02*
D03*
X368790Y431761D02*
D03*
X412080Y401790D02*
D03*
Y408450D02*
D03*
X405420Y395130D02*
D03*
X395430Y425101D02*
D03*
X318839Y401790D02*
D03*
X338819Y421771D02*
D03*
X392100Y428430D02*
D03*
X408750Y398460D02*
D03*
X415410Y378480D02*
D03*
X412080Y381810D02*
D03*
X412080Y388470D02*
D03*
X388770Y331860D02*
D03*
X394304Y325400D02*
D03*
X332159Y421771D02*
D03*
X322169Y385140D02*
D03*
X325499Y388470D02*
D03*
X315509Y391800D02*
D03*
X408750Y385140D02*
D03*
X385440Y335190D02*
D03*
X418740Y408450D02*
D03*
X402090Y405120D02*
D03*
X325499Y401790D02*
D03*
X365460Y428430D02*
D03*
X365460Y421771D02*
D03*
X355470Y418441D02*
D03*
X352140Y421771D02*
D03*
X318839Y408450D02*
D03*
X322169Y405120D02*
D03*
Y411781D02*
D03*
X325499Y381810D02*
D03*
X322169Y391800D02*
D03*
X318839Y341850D02*
D03*
X408750Y391800D02*
D03*
X415410Y398460D02*
D03*
X382110Y418441D02*
D03*
X388770Y425101D02*
D03*
X388770Y418441D02*
D03*
X392100Y421771D02*
D03*
X348810Y425101D02*
D03*
X352140Y428430D02*
D03*
X335489Y425101D02*
D03*
X385440Y421771D02*
D03*
X315509Y418441D02*
D03*
X315509Y405120D02*
D03*
X315509Y411781D02*
D03*
X342149Y425101D02*
D03*
X345480Y421771D02*
D03*
X325499Y421771D02*
D03*
X318839Y415111D02*
D03*
X325499Y415110D02*
D03*
X355470Y425101D02*
D03*
X362130D02*
D03*
X362130Y418441D02*
D03*
X332159Y428430D02*
D03*
X338819Y428430D02*
D03*
X385440Y341850D02*
D03*
X392100D02*
D03*
X395430Y338520D02*
D03*
X325499Y348510D02*
D03*
X332160Y341850D02*
D03*
X342150Y338520D02*
D03*
X328830Y331860D02*
D03*
X348750Y338500D02*
D03*
X338820Y328530D02*
D03*
X335490Y338520D02*
D03*
X328830D02*
D03*
X345480Y335190D02*
D03*
X405740Y362150D02*
D03*
X322170Y338520D02*
D03*
X338820Y341850D02*
D03*
X322169Y378480D02*
D03*
X318867Y375160D02*
D03*
X382110Y425101D02*
D03*
X399027Y980141D02*
D03*
X348810Y325200D02*
D03*
X335490Y331860D02*
D03*
X419750Y402750D02*
D03*
X349250Y417500D02*
D03*
X418750Y953500D02*
D03*
X389036Y976811D02*
D03*
X355736Y983471D02*
D03*
X365727Y900221D02*
D03*
X365460Y335190D02*
D03*
X362130Y338520D02*
D03*
X378780Y335190D02*
D03*
X375450Y338520D02*
D03*
X372120Y341850D02*
D03*
X375717Y896891D02*
D03*
X379047Y893561D02*
D03*
D327*
X80250Y619500D02*
D03*
Y615500D02*
D03*
Y611500D02*
D03*
Y607500D02*
D03*
X95750D02*
D03*
Y611500D02*
D03*
Y615500D02*
D03*
D328*
X82000Y601750D02*
D03*
X86000D02*
D03*
X90000D02*
D03*
X94000Y601750D02*
D03*
Y625250D02*
D03*
X90000D02*
D03*
X86000D02*
D03*
X82000D02*
D03*
D338*
X982500Y699500D02*
D03*
X1012500D02*
D03*
X986000Y517500D02*
D03*
X1016000D02*
D03*
X1364750Y685000D02*
D03*
X1334750D02*
D03*
X1335500Y637750D02*
D03*
X1305500D02*
D03*
X1370500Y557500D02*
D03*
X1340500D02*
D03*
X1103000Y784500D02*
D03*
X1073000D02*
D03*
X1421500Y642750D02*
D03*
X1391500D02*
D03*
X1339250Y537750D02*
D03*
X1309250D02*
D03*
X985250Y496750D02*
D03*
X1015250D02*
D03*
X983000Y732000D02*
D03*
X1013000D02*
D03*
X995750Y472500D02*
D03*
X1025750D02*
D03*
X1365000Y706500D02*
D03*
X1335000D02*
D03*
X1354500Y773250D02*
D03*
X1324500D02*
D03*
X1364250Y665500D02*
D03*
X1334250D02*
D03*
X984500Y658750D02*
D03*
X1014500D02*
D03*
X1366500Y583000D02*
D03*
X1336500D02*
D03*
X1378500Y621500D02*
D03*
X1348500D02*
D03*
D347*
X1008750Y793250D02*
D03*
Y763250D02*
D03*
X1291250Y519500D02*
D03*
Y549500D02*
D03*
D350*
X690000Y500000D02*
D03*
X1500000Y620000D02*
D03*
D360*
X810000Y1030000D02*
D03*
X652250Y623250D02*
D03*
X759500Y258000D02*
D03*
D368*
X728250Y603250D02*
D03*
X733250D02*
D03*
X738250D02*
D03*
X743250D02*
D03*
X748250D02*
D03*
X753250D02*
D03*
Y643250D02*
D03*
X748250D02*
D03*
X743250D02*
D03*
X738250D02*
D03*
X733250D02*
D03*
X728250D02*
D03*
D371*
X45000Y870000D02*
D03*
Y165000D02*
D03*
X1822500Y183500D02*
D03*
Y1055500D02*
D03*
D372*
X1668000Y1050000D02*
D03*
X1715000D02*
D03*
X1762000D02*
D03*
D373*
X1065829Y986786D02*
D03*
Y1012215D02*
D03*
X1091257Y986786D02*
D03*
Y1012215D02*
D03*
X1116686Y986786D02*
D03*
Y1012215D02*
D03*
X1142114Y986786D02*
D03*
Y1012215D02*
D03*
X1167543Y986786D02*
D03*
Y1012215D02*
D03*
X1192971Y986786D02*
D03*
Y1012215D02*
D03*
X1294429Y987536D02*
D03*
Y1012964D02*
D03*
X1319857Y987536D02*
D03*
Y1012964D02*
D03*
X1345286Y987536D02*
D03*
Y1012964D02*
D03*
X1370714Y987536D02*
D03*
Y1012964D02*
D03*
X1396143Y987536D02*
D03*
Y1012964D02*
D03*
X1421571Y987536D02*
D03*
Y1012964D02*
D03*
D374*
X1718000Y794500D02*
D03*
X1760000D02*
D03*
Y836500D02*
D03*
X1718000Y836500D02*
D03*
X1718000Y878500D02*
D03*
D375*
X1760000D02*
D03*
D376*
X1683550Y455000D02*
D03*
D377*
X1852250Y960750D02*
D03*
D378*
X1789250D02*
D03*
D379*
X1822250Y1008750D02*
D03*
D380*
X1708000Y958950D02*
D03*
X1658500Y958950D02*
D03*
D381*
X1213754Y1111750D02*
D03*
X1237754D02*
D03*
X1225754D02*
D03*
X933504Y128000D02*
D03*
X945504D02*
D03*
X957504D02*
D03*
X1900250Y608254D02*
D03*
Y632253D02*
D03*
Y620253D02*
D03*
X439754Y1112000D02*
D03*
X463754D02*
D03*
X451754D02*
D03*
X500Y631746D02*
D03*
Y607746D02*
D03*
Y619746D02*
D03*
D382*
X75000Y947500D02*
D03*
X72500Y93500D02*
D03*
D383*
X1849790Y629750D02*
D03*
X1879290Y685250D02*
D03*
X1845790Y552250D02*
D03*
Y685250D02*
D03*
X1879290Y552250D02*
D03*
D384*
X1870790Y667750D02*
D03*
X1870790Y569750D02*
D03*
X943500Y211000D02*
D03*
D385*
X868500D02*
D03*
D387*
X1385000Y870000D02*
D03*
X885000Y370000D02*
D03*
X1385000D02*
D03*
D388*
X799890Y805046D02*
D03*
X774890D02*
D03*
Y824546D02*
D03*
Y818046D02*
D03*
Y811546D02*
D03*
X799890D02*
D03*
Y818046D02*
D03*
Y824546D02*
D03*
D389*
X974800Y251500D02*
D03*
X987500D02*
D03*
X1000200D02*
D03*
X1012900D02*
D03*
X1025600D02*
D03*
X1038300D02*
D03*
X1051000D02*
D03*
X1063700D02*
D03*
X974800Y159500D02*
D03*
X987500D02*
D03*
X1000200D02*
D03*
X1012900D02*
D03*
X1025600D02*
D03*
X1038300D02*
D03*
X1051000D02*
D03*
X1063700D02*
D03*
D390*
X1013100Y230250D02*
D03*
Y180950D02*
D03*
X987700Y230250D02*
D03*
Y180950D02*
D03*
X975000Y230250D02*
D03*
Y180950D02*
D03*
X1000400Y230250D02*
D03*
Y180950D02*
D03*
D391*
X813750Y875000D02*
D03*
X761750D02*
D03*
Y919000D02*
D03*
X813750D02*
D03*
Y875000D02*
D03*
X761750D02*
D03*
Y919000D02*
D03*
X813750D02*
D03*
D392*
X757250Y897000D02*
D03*
X821250D02*
D03*
D393*
X1166510Y732760D02*
D03*
X1154490Y720740D02*
D03*
D394*
X1154490Y620760D02*
D03*
X1166510Y608740D02*
D03*
X1173240Y641011D02*
D03*
X1185260Y628990D02*
D03*
D395*
X1519800Y832500D02*
D03*
X1519800Y845200D02*
D03*
X1519800Y857900D02*
D03*
Y870600D02*
D03*
X1577200Y832500D02*
D03*
X1577200Y845200D02*
D03*
X1577200Y857900D02*
D03*
Y870600D02*
D03*
X1651950D02*
D03*
Y857900D02*
D03*
Y845200D02*
D03*
Y832500D02*
D03*
X1594550Y870600D02*
D03*
X1594550Y857900D02*
D03*
Y845200D02*
D03*
Y832500D02*
D03*
D396*
X1558500Y851550D02*
D03*
X1613250D02*
D03*
D397*
X1676500Y809300D02*
D03*
Y790300D02*
D03*
X1653500Y799800D02*
D03*
X1596250Y1063000D02*
D03*
X1619250Y1053500D02*
D03*
Y1072500D02*
D03*
X1660750Y987750D02*
D03*
X1637750Y997250D02*
D03*
Y978250D02*
D03*
X980186Y577500D02*
D03*
X1006186D02*
D03*
X980186Y558500D02*
D03*
Y568000D02*
D03*
X1006186Y558500D02*
D03*
D398*
X1634000Y799800D02*
D03*
X1538000Y903300D02*
D03*
D399*
X1639000Y785450D02*
D03*
X1634000D02*
D03*
X1629000D02*
D03*
X1639000Y814150D02*
D03*
X1634000D02*
D03*
X1629000D02*
D03*
X1543000Y888950D02*
D03*
X1538000D02*
D03*
X1533000D02*
D03*
X1543000Y917650D02*
D03*
X1538000D02*
D03*
X1533000D02*
D03*
D400*
X1326750Y1047250D02*
D03*
Y1052250D02*
D03*
Y1057250D02*
D03*
Y1062250D02*
D03*
Y1067250D02*
D03*
Y1072250D02*
D03*
Y1077250D02*
D03*
Y1082250D02*
D03*
X1353750Y1082000D02*
D03*
Y1077000D02*
D03*
Y1072000D02*
D03*
Y1067000D02*
D03*
Y1062000D02*
D03*
Y1057000D02*
D03*
Y1052000D02*
D03*
Y1047000D02*
D03*
X1254250Y1047000D02*
D03*
Y1052000D02*
D03*
Y1057000D02*
D03*
Y1062000D02*
D03*
Y1067000D02*
D03*
Y1072000D02*
D03*
Y1077000D02*
D03*
Y1082000D02*
D03*
X1227250Y1082250D02*
D03*
Y1077250D02*
D03*
Y1072250D02*
D03*
Y1067250D02*
D03*
Y1062250D02*
D03*
Y1057250D02*
D03*
Y1052250D02*
D03*
Y1047250D02*
D03*
D401*
X1337750Y1087000D02*
D03*
X1342750D02*
D03*
Y1042500D02*
D03*
X1337750D02*
D03*
X1238250Y1042500D02*
D03*
X1243250D02*
D03*
Y1087000D02*
D03*
X1238250D02*
D03*
D402*
X1340250Y1064750D02*
D03*
X1240750Y1064750D02*
D03*
D403*
X977000Y403500D02*
D03*
Y398500D02*
D03*
Y393500D02*
D03*
Y388500D02*
D03*
Y383500D02*
D03*
Y378500D02*
D03*
X938500D02*
D03*
Y383500D02*
D03*
Y388500D02*
D03*
Y393500D02*
D03*
Y398500D02*
D03*
Y403500D02*
D03*
D404*
X970250Y371750D02*
D03*
X965250D02*
D03*
X960250D02*
D03*
X955250D02*
D03*
X950250D02*
D03*
X945250D02*
D03*
Y410250D02*
D03*
X950250Y410250D02*
D03*
X955250Y410250D02*
D03*
X960250Y410250D02*
D03*
X965250D02*
D03*
X970250Y410250D02*
D03*
D405*
X886750Y803700D02*
D03*
Y809300D02*
D03*
X948485Y833705D02*
D03*
Y839305D02*
D03*
X948750Y899700D02*
D03*
Y905300D02*
D03*
X886750Y863450D02*
D03*
Y869050D02*
D03*
X354554Y446200D02*
D03*
Y440600D02*
D03*
X362354Y459500D02*
D03*
Y453900D02*
D03*
X363304Y399850D02*
D03*
Y405450D02*
D03*
X331754Y438510D02*
D03*
Y432910D02*
D03*
X298804Y411700D02*
D03*
Y406100D02*
D03*
X330054Y413450D02*
D03*
Y407850D02*
D03*
X260250Y402150D02*
D03*
Y407750D02*
D03*
X360554Y304350D02*
D03*
Y309950D02*
D03*
X333804Y293850D02*
D03*
Y299450D02*
D03*
X330500Y396450D02*
D03*
Y390850D02*
D03*
X341304Y353700D02*
D03*
Y348100D02*
D03*
X343054Y319100D02*
D03*
Y324700D02*
D03*
X446554Y388700D02*
D03*
Y383100D02*
D03*
X416500Y394200D02*
D03*
Y388600D02*
D03*
X411054Y316850D02*
D03*
Y322450D02*
D03*
X454250Y384500D02*
D03*
Y378900D02*
D03*
X399804Y394484D02*
D03*
Y400084D02*
D03*
X355750Y315200D02*
D03*
Y320800D02*
D03*
X438750Y427050D02*
D03*
Y421450D02*
D03*
X415754Y427000D02*
D03*
Y421400D02*
D03*
X387804Y352200D02*
D03*
Y346600D02*
D03*
X399554Y312600D02*
D03*
Y318200D02*
D03*
X354820Y1004571D02*
D03*
Y998971D02*
D03*
X362570Y1017821D02*
D03*
Y1012221D02*
D03*
X363070Y965171D02*
D03*
Y970771D02*
D03*
X332020Y996881D02*
D03*
Y991281D02*
D03*
X299070Y970071D02*
D03*
Y964471D02*
D03*
X330320Y971821D02*
D03*
Y966221D02*
D03*
X260392Y960521D02*
D03*
Y966121D02*
D03*
X360920Y862621D02*
D03*
Y868221D02*
D03*
X334070Y852221D02*
D03*
Y857821D02*
D03*
X330570Y954821D02*
D03*
Y949221D02*
D03*
X341570Y912071D02*
D03*
Y906471D02*
D03*
X343320Y877471D02*
D03*
Y883071D02*
D03*
X446820Y947071D02*
D03*
Y941471D02*
D03*
X416000Y952321D02*
D03*
Y946721D02*
D03*
X411320Y875221D02*
D03*
Y880821D02*
D03*
X454701Y942951D02*
D03*
Y937351D02*
D03*
X400070Y952855D02*
D03*
Y958455D02*
D03*
X355750Y873700D02*
D03*
Y879300D02*
D03*
X439070Y985371D02*
D03*
Y979771D02*
D03*
X416020Y985371D02*
D03*
Y979771D02*
D03*
X388070Y910571D02*
D03*
Y904971D02*
D03*
X399820Y870971D02*
D03*
Y876571D02*
D03*
X337804Y407850D02*
D03*
Y413450D02*
D03*
X489617Y400410D02*
D03*
Y406010D02*
D03*
X273212Y368296D02*
D03*
Y362696D02*
D03*
X312304Y364350D02*
D03*
Y369950D02*
D03*
X326617Y299410D02*
D03*
Y293810D02*
D03*
X320854Y308300D02*
D03*
Y313900D02*
D03*
X350429Y320970D02*
D03*
Y315370D02*
D03*
X462184Y384580D02*
D03*
Y378980D02*
D03*
X478367Y407710D02*
D03*
Y402110D02*
D03*
X385354Y312050D02*
D03*
Y317650D02*
D03*
X393054Y312600D02*
D03*
Y318200D02*
D03*
X338070Y966221D02*
D03*
Y971821D02*
D03*
X489883Y958531D02*
D03*
Y964131D02*
D03*
X273519Y926376D02*
D03*
Y920777D02*
D03*
X312570Y922721D02*
D03*
Y928321D02*
D03*
X326923Y857821D02*
D03*
Y852221D02*
D03*
X321120Y866671D02*
D03*
Y872271D02*
D03*
X350696Y879341D02*
D03*
Y873741D02*
D03*
X462451Y942951D02*
D03*
Y937351D02*
D03*
X478633Y966081D02*
D03*
Y960481D02*
D03*
X385620Y870421D02*
D03*
Y876021D02*
D03*
X393320Y870971D02*
D03*
Y876571D02*
D03*
X332554Y353950D02*
D03*
Y348350D02*
D03*
X334304Y319400D02*
D03*
Y325000D02*
D03*
X438500Y383100D02*
D03*
Y388700D02*
D03*
X308656Y318563D02*
D03*
Y324162D02*
D03*
X332820Y912321D02*
D03*
Y906721D02*
D03*
X334570Y877471D02*
D03*
Y883071D02*
D03*
X439070Y941921D02*
D03*
Y947521D02*
D03*
X308896Y876960D02*
D03*
Y882560D02*
D03*
D406*
X896000Y848150D02*
D03*
X896000Y835250D02*
D03*
X896000Y822350D02*
D03*
X877500Y848150D02*
D03*
Y835250D02*
D03*
Y822350D02*
D03*
X896000Y907900D02*
D03*
X896000Y895000D02*
D03*
X896000Y882100D02*
D03*
X877500Y907900D02*
D03*
Y895000D02*
D03*
Y882100D02*
D03*
D407*
X395454Y439750D02*
D03*
X401054D02*
D03*
X395504Y431834D02*
D03*
X401104D02*
D03*
X380754Y413000D02*
D03*
X386354D02*
D03*
X380754Y405650D02*
D03*
X386354D02*
D03*
X342679Y433900D02*
D03*
X348279D02*
D03*
X342650Y441000D02*
D03*
X348250D02*
D03*
X325750Y435950D02*
D03*
X320150D02*
D03*
X381154Y440950D02*
D03*
X375554D02*
D03*
X378354Y433150D02*
D03*
X372754D02*
D03*
X369754Y413400D02*
D03*
X375354D02*
D03*
X369850Y405746D02*
D03*
X375450D02*
D03*
X328254Y443150D02*
D03*
X333854D02*
D03*
X328254Y450900D02*
D03*
X333854D02*
D03*
X305254Y409900D02*
D03*
X310854D02*
D03*
X303004Y350650D02*
D03*
X308604D02*
D03*
X261806Y360257D02*
D03*
X267406D02*
D03*
X274317Y381410D02*
D03*
X279916D02*
D03*
X393454Y381500D02*
D03*
X399054D02*
D03*
X315254Y320250D02*
D03*
X320854Y320250D02*
D03*
X331157Y373473D02*
D03*
X325556D02*
D03*
X319556Y280973D02*
D03*
X325156D02*
D03*
X298504Y378400D02*
D03*
X304104D02*
D03*
X335904Y385140D02*
D03*
X330304D02*
D03*
X338616Y311910D02*
D03*
X344216D02*
D03*
X287327Y396597D02*
D03*
X292927D02*
D03*
X327254Y367400D02*
D03*
X332854D02*
D03*
X430354Y400650D02*
D03*
X424754D02*
D03*
X405454Y378250D02*
D03*
X411054D02*
D03*
X295454Y324200D02*
D03*
X301054D02*
D03*
X412854Y310150D02*
D03*
X407254D02*
D03*
X419504Y337050D02*
D03*
X413904D02*
D03*
X432354Y419150D02*
D03*
X426754D02*
D03*
X427854Y426650D02*
D03*
X422254D02*
D03*
X379700Y323500D02*
D03*
X385300D02*
D03*
X395429Y989759D02*
D03*
X401029D02*
D03*
X395429Y997275D02*
D03*
X401029D02*
D03*
X342946Y999845D02*
D03*
X348546D02*
D03*
X342696Y992271D02*
D03*
X348296D02*
D03*
X381020Y964021D02*
D03*
X386620D02*
D03*
X381021Y971750D02*
D03*
X386620D02*
D03*
X325570Y994321D02*
D03*
X319970D02*
D03*
X378620Y991521D02*
D03*
X373020D02*
D03*
X381420Y999321D02*
D03*
X375820D02*
D03*
X328650Y1013250D02*
D03*
X334250D02*
D03*
X328650Y1005500D02*
D03*
X334250D02*
D03*
X370104Y971487D02*
D03*
X375704D02*
D03*
X370117Y964117D02*
D03*
X375716D02*
D03*
X305520Y968771D02*
D03*
X311120D02*
D03*
X303020Y909021D02*
D03*
X308620D02*
D03*
X262287Y918664D02*
D03*
X267887D02*
D03*
X274583Y939781D02*
D03*
X280183D02*
D03*
X393900Y939500D02*
D03*
X399500D02*
D03*
X315650Y879250D02*
D03*
X321250D02*
D03*
X331423Y932344D02*
D03*
X325823D02*
D03*
X320001Y839415D02*
D03*
X325601D02*
D03*
X298771Y936771D02*
D03*
X304370D02*
D03*
X336100Y943511D02*
D03*
X330500D02*
D03*
X344483Y870781D02*
D03*
X338883D02*
D03*
X287593Y954968D02*
D03*
X293193D02*
D03*
X328270Y926021D02*
D03*
X333871D02*
D03*
X430870Y959271D02*
D03*
X425270D02*
D03*
X405720Y936521D02*
D03*
X411320D02*
D03*
X295681Y882531D02*
D03*
X301281D02*
D03*
X413120Y868521D02*
D03*
X407520D02*
D03*
X420120Y895771D02*
D03*
X414520D02*
D03*
X432620Y977521D02*
D03*
X427020D02*
D03*
X428120Y985021D02*
D03*
X422520D02*
D03*
X380107Y881750D02*
D03*
X385707D02*
D03*
X303004Y342900D02*
D03*
X308604D02*
D03*
X310854Y417900D02*
D03*
X305254D02*
D03*
X278766Y374910D02*
D03*
X284366D02*
D03*
X237150Y406000D02*
D03*
X242750D02*
D03*
X366054Y310350D02*
D03*
X371654D02*
D03*
X298504Y370650D02*
D03*
X304104D02*
D03*
X282004Y387650D02*
D03*
X287604D02*
D03*
X325782Y360650D02*
D03*
X320182D02*
D03*
X444154Y405900D02*
D03*
X438554D02*
D03*
X379754Y296750D02*
D03*
X385354D02*
D03*
X295504Y391900D02*
D03*
X301104D02*
D03*
X378850Y303750D02*
D03*
X373250D02*
D03*
X433104Y374150D02*
D03*
X427504D02*
D03*
X314229Y333420D02*
D03*
X308629D02*
D03*
X428154Y388600D02*
D03*
X422554D02*
D03*
X407104Y302650D02*
D03*
X401504D02*
D03*
X417867Y322450D02*
D03*
X423466D02*
D03*
X413904Y330000D02*
D03*
X419504D02*
D03*
X432354Y411250D02*
D03*
X426754D02*
D03*
X364200Y317500D02*
D03*
X369800D02*
D03*
X421300Y414000D02*
D03*
X415700D02*
D03*
X433962Y444029D02*
D03*
X428362D02*
D03*
X408904Y341900D02*
D03*
X403304D02*
D03*
X303020Y901271D02*
D03*
X308620D02*
D03*
X311120Y976271D02*
D03*
X305520D02*
D03*
X279033Y933281D02*
D03*
X284633D02*
D03*
X237542Y964371D02*
D03*
X243142D02*
D03*
X366320Y868721D02*
D03*
X371920D02*
D03*
X298771Y929021D02*
D03*
X304370D02*
D03*
X282020Y946021D02*
D03*
X287621D02*
D03*
X326049Y919021D02*
D03*
X320449D02*
D03*
X444170Y964271D02*
D03*
X438570D02*
D03*
X378650Y853056D02*
D03*
X384250D02*
D03*
X295770Y950271D02*
D03*
X301370D02*
D03*
X379770Y863000D02*
D03*
X374170D02*
D03*
X433370Y932521D02*
D03*
X427770D02*
D03*
X314496Y891791D02*
D03*
X308896D02*
D03*
X428420Y946971D02*
D03*
X422820D02*
D03*
X407370Y860771D02*
D03*
X401770D02*
D03*
X418133Y880821D02*
D03*
X423733D02*
D03*
X414170Y888371D02*
D03*
X419770D02*
D03*
X432620Y969771D02*
D03*
X427020D02*
D03*
X364717Y875671D02*
D03*
X370317D02*
D03*
X421620Y972021D02*
D03*
X416020D02*
D03*
X434983Y1002531D02*
D03*
X429383D02*
D03*
X409570Y900271D02*
D03*
X403970D02*
D03*
X288254Y406400D02*
D03*
X293854D02*
D03*
X315004Y346650D02*
D03*
X320604D02*
D03*
X319485Y289124D02*
D03*
X325085D02*
D03*
X336554Y395150D02*
D03*
X342154D02*
D03*
X439817Y415913D02*
D03*
X445416D02*
D03*
X429504Y434400D02*
D03*
X435104D02*
D03*
X288270Y964771D02*
D03*
X293870D02*
D03*
X315270Y905021D02*
D03*
X320870D02*
D03*
X319751Y847495D02*
D03*
X325351D02*
D03*
X336820Y953521D02*
D03*
X342420D02*
D03*
X440070Y974771D02*
D03*
X445671D02*
D03*
X429270Y992771D02*
D03*
X434870D02*
D03*
X1291713Y933263D02*
D03*
X1286113D02*
D03*
X765200Y838500D02*
D03*
X770800Y838500D02*
D03*
D408*
X375784Y425380D02*
D03*
X371824Y421420D02*
D03*
X320730Y330420D02*
D03*
X324689Y334380D02*
D03*
X419074Y438420D02*
D03*
X423034Y442380D02*
D03*
X376050Y983751D02*
D03*
X372090Y979791D02*
D03*
X320996Y888791D02*
D03*
X324956Y892751D02*
D03*
X419790Y997290D02*
D03*
X423750Y1001250D02*
D03*
X408784Y411880D02*
D03*
X404824Y407920D02*
D03*
X409050Y970251D02*
D03*
X405090Y966291D02*
D03*
D409*
X1162500Y301750D02*
D03*
X1170500D02*
D03*
X1178500D02*
D03*
X1186500Y301750D02*
D03*
X1162500Y285750D02*
D03*
X1170500D02*
D03*
X1178500D02*
D03*
X1186500Y285750D02*
D03*
X1188000Y934750D02*
D03*
X1180000D02*
D03*
X1172000D02*
D03*
X1164000Y934750D02*
D03*
X1188000Y950750D02*
D03*
X1180000D02*
D03*
X1172000D02*
D03*
X1164000Y950750D02*
D03*
D410*
X1144000Y426000D02*
D03*
Y418000D02*
D03*
Y410000D02*
D03*
X1144000Y402000D02*
D03*
X1128000Y426000D02*
D03*
Y418000D02*
D03*
Y410000D02*
D03*
X1128000Y402000D02*
D03*
X1143000Y390000D02*
D03*
Y382000D02*
D03*
Y374000D02*
D03*
X1143000Y366000D02*
D03*
X1127000Y390000D02*
D03*
Y382000D02*
D03*
Y374000D02*
D03*
X1127000Y366000D02*
D03*
X1143000Y871500D02*
D03*
Y863500D02*
D03*
Y855500D02*
D03*
X1143000Y847500D02*
D03*
X1127000Y871500D02*
D03*
Y863500D02*
D03*
Y855500D02*
D03*
X1127000Y847500D02*
D03*
X1143000Y835500D02*
D03*
Y827500D02*
D03*
Y819500D02*
D03*
X1143000Y811500D02*
D03*
X1127000Y835500D02*
D03*
Y827500D02*
D03*
Y819500D02*
D03*
X1127000Y811500D02*
D03*
D411*
X655200Y436500D02*
D03*
X661700D02*
D03*
X668200D02*
D03*
X674700D02*
D03*
X655200Y377500D02*
D03*
X661700D02*
D03*
X668200D02*
D03*
X674700D02*
D03*
X654900Y786860D02*
D03*
X661400D02*
D03*
X667900D02*
D03*
X674400D02*
D03*
X654900Y727860D02*
D03*
X661400D02*
D03*
X667900D02*
D03*
X674400D02*
D03*
X617450Y786860D02*
D03*
X623950D02*
D03*
X630450D02*
D03*
X636950D02*
D03*
X617450Y727860D02*
D03*
X623950D02*
D03*
X630450D02*
D03*
X636950D02*
D03*
X617750Y436500D02*
D03*
X624250D02*
D03*
X630750D02*
D03*
X637250D02*
D03*
X617750Y377500D02*
D03*
X624250D02*
D03*
X630750D02*
D03*
X637250D02*
D03*
D412*
X1089250Y1058250D02*
D03*
X740750Y623250D02*
D03*
D413*
X338574Y335170D02*
D03*
X342534Y331210D02*
D03*
X339090Y893791D02*
D03*
X343050Y889831D02*
D03*
D414*
X1165000Y354750D02*
D03*
Y359750D02*
D03*
Y364750D02*
D03*
Y369750D02*
D03*
Y374750D02*
D03*
Y379750D02*
D03*
Y384750D02*
D03*
Y389750D02*
D03*
X1182000Y354750D02*
D03*
Y359750D02*
D03*
Y364750D02*
D03*
Y369750D02*
D03*
X1182000Y374750D02*
D03*
X1182000Y379750D02*
D03*
Y384750D02*
D03*
Y389750D02*
D03*
X1165000Y398750D02*
D03*
Y403750D02*
D03*
Y408750D02*
D03*
Y413750D02*
D03*
Y418750D02*
D03*
Y423750D02*
D03*
Y428750D02*
D03*
Y433750D02*
D03*
X1182000Y398750D02*
D03*
Y403750D02*
D03*
Y408750D02*
D03*
Y413750D02*
D03*
X1182000Y418750D02*
D03*
X1182000Y423750D02*
D03*
Y428750D02*
D03*
Y433750D02*
D03*
X1165000Y798750D02*
D03*
Y803750D02*
D03*
Y808750D02*
D03*
Y813750D02*
D03*
Y818750D02*
D03*
Y823750D02*
D03*
Y828750D02*
D03*
Y833750D02*
D03*
X1182000Y798750D02*
D03*
Y803750D02*
D03*
Y808750D02*
D03*
Y813750D02*
D03*
Y818750D02*
D03*
Y823750D02*
D03*
Y828750D02*
D03*
Y833750D02*
D03*
X1165000Y842750D02*
D03*
Y847750D02*
D03*
Y852750D02*
D03*
Y857750D02*
D03*
Y862750D02*
D03*
Y867750D02*
D03*
Y872750D02*
D03*
Y877750D02*
D03*
X1182000Y842750D02*
D03*
Y847750D02*
D03*
Y852750D02*
D03*
Y857750D02*
D03*
Y862750D02*
D03*
Y867750D02*
D03*
Y872750D02*
D03*
Y877750D02*
D03*
D415*
X1192000Y320000D02*
D03*
X1187000D02*
D03*
X1182000D02*
D03*
X1177000D02*
D03*
X1172000D02*
D03*
X1167000D02*
D03*
X1162000D02*
D03*
X1157000D02*
D03*
X1192000Y337000D02*
D03*
X1187000D02*
D03*
X1182000D02*
D03*
X1177000D02*
D03*
X1172000Y337000D02*
D03*
X1167000Y337000D02*
D03*
X1162000D02*
D03*
X1157000D02*
D03*
X1158500Y916500D02*
D03*
X1163500D02*
D03*
X1168500D02*
D03*
X1173500D02*
D03*
X1178500D02*
D03*
X1183500D02*
D03*
X1188500D02*
D03*
X1193500D02*
D03*
X1158500Y899500D02*
D03*
X1163500D02*
D03*
X1168500D02*
D03*
X1173500D02*
D03*
X1178500Y899500D02*
D03*
X1183500Y899500D02*
D03*
X1188500D02*
D03*
X1193500D02*
D03*
D416*
X1758250Y515328D02*
D03*
X1718250D02*
D03*
Y539328D02*
D03*
X1758250D02*
D03*
D417*
X680250Y872750D02*
D03*
Y911250D02*
D03*
X703250Y911250D02*
D03*
Y872750D02*
D03*
D418*
X682000Y886000D02*
D03*
X682000Y898000D02*
D03*
X701500Y898000D02*
D03*
Y886000D02*
D03*
D419*
X691750Y911250D02*
D03*
X691750Y872750D02*
D03*
D420*
X949000Y951500D02*
D03*
X985000D02*
D03*
Y927500D02*
D03*
X949000D02*
D03*
X948750Y885500D02*
D03*
X984750D02*
D03*
Y861500D02*
D03*
X948750D02*
D03*
D421*
X1136250Y1076750D02*
D03*
Y1054750D02*
D03*
X1153250D02*
D03*
Y1076750D02*
D03*
D422*
X1341363Y930763D02*
D03*
X1354263D02*
D03*
X1328463Y949263D02*
D03*
X1341363D02*
D03*
X1354263D02*
D03*
X1328463Y930763D02*
D03*
D423*
X704250Y980500D02*
D03*
X746500Y408500D02*
D03*
D424*
X885500Y999250D02*
D03*
D425*
X623000Y242750D02*
D03*
X297000Y618500D02*
D03*
X479000Y618500D02*
D03*
D426*
X688750Y297000D02*
D03*
X693750D02*
D03*
X698750Y297000D02*
D03*
X703750D02*
D03*
Y281500D02*
D03*
X698750D02*
D03*
X693750Y281500D02*
D03*
X688750D02*
D03*
X688651Y188528D02*
D03*
X693651D02*
D03*
X698651Y188528D02*
D03*
X703651D02*
D03*
Y173028D02*
D03*
X698651D02*
D03*
X693651D02*
D03*
X688651D02*
D03*
X365821Y694929D02*
D03*
Y674429D02*
D03*
X350722Y542099D02*
D03*
Y562599D02*
D03*
X547821Y694929D02*
D03*
Y674429D02*
D03*
X532722Y542099D02*
D03*
Y562599D02*
D03*
D427*
X706500Y289500D02*
D03*
X686000D02*
D03*
X706401Y181028D02*
D03*
X685901D02*
D03*
X358321Y677179D02*
D03*
Y682179D02*
D03*
Y687179D02*
D03*
Y692179D02*
D03*
X373821D02*
D03*
Y687179D02*
D03*
Y682179D02*
D03*
Y677179D02*
D03*
X358222Y559849D02*
D03*
Y554849D02*
D03*
Y549849D02*
D03*
Y544849D02*
D03*
X342722D02*
D03*
Y549849D02*
D03*
Y554849D02*
D03*
Y559849D02*
D03*
X540321Y677179D02*
D03*
Y682179D02*
D03*
Y687179D02*
D03*
Y692179D02*
D03*
X555821D02*
D03*
Y687179D02*
D03*
Y682179D02*
D03*
Y677179D02*
D03*
X540222Y559849D02*
D03*
Y554849D02*
D03*
Y549849D02*
D03*
Y544849D02*
D03*
X524722Y544849D02*
D03*
Y549849D02*
D03*
X524722Y554849D02*
D03*
Y559849D02*
D03*
D428*
X110758Y576250D02*
D03*
Y540251D02*
D03*
X105758D02*
D03*
Y576250D02*
D03*
X110758Y685750D02*
D03*
Y649750D02*
D03*
X105758D02*
D03*
Y685750D02*
D03*
D429*
X121258Y571250D02*
D03*
Y566250D02*
D03*
Y561250D02*
D03*
Y556250D02*
D03*
Y551250D02*
D03*
Y546250D02*
D03*
X95258D02*
D03*
Y551250D02*
D03*
Y556250D02*
D03*
Y561250D02*
D03*
Y566250D02*
D03*
Y571250D02*
D03*
X121258Y680750D02*
D03*
Y675750D02*
D03*
Y670750D02*
D03*
Y665750D02*
D03*
Y660750D02*
D03*
Y655750D02*
D03*
X95258D02*
D03*
Y660750D02*
D03*
Y665750D02*
D03*
Y670750D02*
D03*
Y675750D02*
D03*
Y680750D02*
D03*
D430*
X108258Y558250D02*
D03*
Y667750D02*
D03*
D431*
X379046Y986801D02*
D03*
X379047Y980141D02*
D03*
X369056Y983471D02*
D03*
X372386Y986801D02*
D03*
X372120Y428430D02*
D03*
X375450Y418441D02*
D03*
X368790Y425101D02*
D03*
X378780Y421771D02*
D03*
X378780Y428430D02*
D03*
X375716Y976811D02*
D03*
M02*
