G04 Layer_Color=255*
%FSLAX44Y44*%
%MOMM*%
G71*
G01*
G75*
%ADD20R,0.3000X0.3100*%
%ADD21R,0.3100X0.3000*%
G04:AMPARAMS|DCode=22|XSize=0.31mm|YSize=0.3mm|CornerRadius=0mm|HoleSize=0mm|Usage=FLASHONLY|Rotation=135.000|XOffset=0mm|YOffset=0mm|HoleType=Round|Shape=Rectangle|*
%AMROTATEDRECTD22*
4,1,4,0.2157,-0.0035,0.0035,-0.2157,-0.2157,0.0035,-0.0035,0.2157,0.2157,-0.0035,0.0*
%
%ADD22ROTATEDRECTD22*%

G04:AMPARAMS|DCode=23|XSize=0.31mm|YSize=0.3mm|CornerRadius=0mm|HoleSize=0mm|Usage=FLASHONLY|Rotation=45.000|XOffset=0mm|YOffset=0mm|HoleType=Round|Shape=Rectangle|*
%AMROTATEDRECTD23*
4,1,4,-0.0035,-0.2157,-0.2157,-0.0035,0.0035,0.2157,0.2157,0.0035,-0.0035,-0.2157,0.0*
%
%ADD23ROTATEDRECTD23*%

%ADD24R,2.5000X1.7000*%
%ADD25R,0.5000X0.7000*%
G04:AMPARAMS|DCode=26|XSize=0.6mm|YSize=0.6mm|CornerRadius=0.06mm|HoleSize=0mm|Usage=FLASHONLY|Rotation=180.000|XOffset=0mm|YOffset=0mm|HoleType=Round|Shape=RoundedRectangle|*
%AMROUNDEDRECTD26*
21,1,0.6000,0.4800,0,0,180.0*
21,1,0.4800,0.6000,0,0,180.0*
1,1,0.1200,-0.2400,0.2400*
1,1,0.1200,0.2400,0.2400*
1,1,0.1200,0.2400,-0.2400*
1,1,0.1200,-0.2400,-0.2400*
%
%ADD26ROUNDEDRECTD26*%
G04:AMPARAMS|DCode=27|XSize=1.3mm|YSize=0.8mm|CornerRadius=0.1mm|HoleSize=0mm|Usage=FLASHONLY|Rotation=0.000|XOffset=0mm|YOffset=0mm|HoleType=Round|Shape=RoundedRectangle|*
%AMROUNDEDRECTD27*
21,1,1.3000,0.6000,0,0,0.0*
21,1,1.1000,0.8000,0,0,0.0*
1,1,0.2000,0.5500,-0.3000*
1,1,0.2000,-0.5500,-0.3000*
1,1,0.2000,-0.5500,0.3000*
1,1,0.2000,0.5500,0.3000*
%
%ADD27ROUNDEDRECTD27*%
G04:AMPARAMS|DCode=28|XSize=0.6mm|YSize=0.6mm|CornerRadius=0.06mm|HoleSize=0mm|Usage=FLASHONLY|Rotation=270.000|XOffset=0mm|YOffset=0mm|HoleType=Round|Shape=RoundedRectangle|*
%AMROUNDEDRECTD28*
21,1,0.6000,0.4800,0,0,270.0*
21,1,0.4800,0.6000,0,0,270.0*
1,1,0.1200,-0.2400,-0.2400*
1,1,0.1200,-0.2400,0.2400*
1,1,0.1200,0.2400,0.2400*
1,1,0.1200,0.2400,-0.2400*
%
%ADD28ROUNDEDRECTD28*%
G04:AMPARAMS|DCode=29|XSize=0.5mm|YSize=0.6mm|CornerRadius=0.05mm|HoleSize=0mm|Usage=FLASHONLY|Rotation=0.000|XOffset=0mm|YOffset=0mm|HoleType=Round|Shape=RoundedRectangle|*
%AMROUNDEDRECTD29*
21,1,0.5000,0.5000,0,0,0.0*
21,1,0.4000,0.6000,0,0,0.0*
1,1,0.1000,0.2000,-0.2500*
1,1,0.1000,-0.2000,-0.2500*
1,1,0.1000,-0.2000,0.2500*
1,1,0.1000,0.2000,0.2500*
%
%ADD29ROUNDEDRECTD29*%
G04:AMPARAMS|DCode=30|XSize=0.5mm|YSize=0.6mm|CornerRadius=0.05mm|HoleSize=0mm|Usage=FLASHONLY|Rotation=270.000|XOffset=0mm|YOffset=0mm|HoleType=Round|Shape=RoundedRectangle|*
%AMROUNDEDRECTD30*
21,1,0.5000,0.5000,0,0,270.0*
21,1,0.4000,0.6000,0,0,270.0*
1,1,0.1000,-0.2500,-0.2000*
1,1,0.1000,-0.2500,0.2000*
1,1,0.1000,0.2500,0.2000*
1,1,0.1000,0.2500,-0.2000*
%
%ADD30ROUNDEDRECTD30*%
G04:AMPARAMS|DCode=31|XSize=0.5mm|YSize=0.6mm|CornerRadius=0.05mm|HoleSize=0mm|Usage=FLASHONLY|Rotation=315.000|XOffset=0mm|YOffset=0mm|HoleType=Round|Shape=RoundedRectangle|*
%AMROUNDEDRECTD31*
21,1,0.5000,0.5000,0,0,315.0*
21,1,0.4000,0.6000,0,0,315.0*
1,1,0.1000,-0.0354,-0.3182*
1,1,0.1000,-0.3182,-0.0354*
1,1,0.1000,0.0354,0.3182*
1,1,0.1000,0.3182,0.0354*
%
%ADD31ROUNDEDRECTD31*%
G04:AMPARAMS|DCode=32|XSize=0.5mm|YSize=0.6mm|CornerRadius=0.05mm|HoleSize=0mm|Usage=FLASHONLY|Rotation=225.000|XOffset=0mm|YOffset=0mm|HoleType=Round|Shape=RoundedRectangle|*
%AMROUNDEDRECTD32*
21,1,0.5000,0.5000,0,0,225.0*
21,1,0.4000,0.6000,0,0,225.0*
1,1,0.1000,-0.3182,0.0354*
1,1,0.1000,-0.0354,0.3182*
1,1,0.1000,0.3182,-0.0354*
1,1,0.1000,0.0354,-0.3182*
%
%ADD32ROUNDEDRECTD32*%
G04:AMPARAMS|DCode=33|XSize=1mm|YSize=0.9mm|CornerRadius=0.1125mm|HoleSize=0mm|Usage=FLASHONLY|Rotation=90.000|XOffset=0mm|YOffset=0mm|HoleType=Round|Shape=RoundedRectangle|*
%AMROUNDEDRECTD33*
21,1,1.0000,0.6750,0,0,90.0*
21,1,0.7750,0.9000,0,0,90.0*
1,1,0.2250,0.3375,0.3875*
1,1,0.2250,0.3375,-0.3875*
1,1,0.2250,-0.3375,-0.3875*
1,1,0.2250,-0.3375,0.3875*
%
%ADD33ROUNDEDRECTD33*%
G04:AMPARAMS|DCode=34|XSize=1mm|YSize=0.9mm|CornerRadius=0.1125mm|HoleSize=0mm|Usage=FLASHONLY|Rotation=0.000|XOffset=0mm|YOffset=0mm|HoleType=Round|Shape=RoundedRectangle|*
%AMROUNDEDRECTD34*
21,1,1.0000,0.6750,0,0,0.0*
21,1,0.7750,0.9000,0,0,0.0*
1,1,0.2250,0.3875,-0.3375*
1,1,0.2250,-0.3875,-0.3375*
1,1,0.2250,-0.3875,0.3375*
1,1,0.2250,0.3875,0.3375*
%
%ADD34ROUNDEDRECTD34*%
G04:AMPARAMS|DCode=35|XSize=1.3mm|YSize=0.8mm|CornerRadius=0.1mm|HoleSize=0mm|Usage=FLASHONLY|Rotation=270.000|XOffset=0mm|YOffset=0mm|HoleType=Round|Shape=RoundedRectangle|*
%AMROUNDEDRECTD35*
21,1,1.3000,0.6000,0,0,270.0*
21,1,1.1000,0.8000,0,0,270.0*
1,1,0.2000,-0.3000,-0.5500*
1,1,0.2000,-0.3000,0.5500*
1,1,0.2000,0.3000,0.5500*
1,1,0.2000,0.3000,-0.5500*
%
%ADD35ROUNDEDRECTD35*%
%ADD36R,0.7000X0.5000*%
%ADD37R,1.7000X2.5000*%
%ADD38R,1.2000X0.7600*%
G04:AMPARAMS|DCode=39|XSize=0.76mm|YSize=1.2mm|CornerRadius=0mm|HoleSize=0mm|Usage=FLASHONLY|Rotation=45.000|XOffset=0mm|YOffset=0mm|HoleType=Round|Shape=Rectangle|*
%AMROTATEDRECTD39*
4,1,4,0.1556,-0.6930,-0.6930,0.1556,-0.1556,0.6930,0.6930,-0.1556,0.1556,-0.6930,0.0*
%
%ADD39ROTATEDRECTD39*%

G04:AMPARAMS|DCode=40|XSize=0.76mm|YSize=1.2mm|CornerRadius=0mm|HoleSize=0mm|Usage=FLASHONLY|Rotation=115.000|XOffset=0mm|YOffset=0mm|HoleType=Round|Shape=Rectangle|*
%AMROTATEDRECTD40*
4,1,4,0.7044,-0.0908,-0.3832,-0.5980,-0.7044,0.0908,0.3832,0.5980,0.7044,-0.0908,0.0*
%
%ADD40ROTATEDRECTD40*%

%ADD41R,0.7600X1.2000*%
%ADD42C,1.6000*%
%ADD43R,0.7500X2.4000*%
%ADD44R,1.3000X2.0000*%
%ADD45R,1.3000X1.4000*%
%ADD46R,2.0000X1.3000*%
%ADD47R,1.4000X1.3000*%
G04:AMPARAMS|DCode=48|XSize=0.76mm|YSize=1.65mm|CornerRadius=0mm|HoleSize=0mm|Usage=FLASHONLY|Rotation=135.000|XOffset=0mm|YOffset=0mm|HoleType=Round|Shape=Rectangle|*
%AMROTATEDRECTD48*
4,1,4,0.8521,0.3147,-0.3147,-0.8521,-0.8521,-0.3147,0.3147,0.8521,0.8521,0.3147,0.0*
%
%ADD48ROTATEDRECTD48*%

%ADD49R,0.5500X2.2000*%
%ADD50C,1.0000*%
%ADD51R,1.5500X1.0000*%
%ADD52R,1.2000X1.6000*%
%ADD53R,1.2000X1.2000*%
%ADD54R,1.2000X2.1500*%
G04:AMPARAMS|DCode=55|XSize=1mm|YSize=1mm|CornerRadius=0.25mm|HoleSize=0mm|Usage=FLASHONLY|Rotation=270.000|XOffset=0mm|YOffset=0mm|HoleType=Round|Shape=RoundedRectangle|*
%AMROUNDEDRECTD55*
21,1,1.0000,0.5000,0,0,270.0*
21,1,0.5000,1.0000,0,0,270.0*
1,1,0.5000,-0.2500,-0.2500*
1,1,0.5000,-0.2500,0.2500*
1,1,0.5000,0.2500,0.2500*
1,1,0.5000,0.2500,-0.2500*
%
%ADD55ROUNDEDRECTD55*%
%ADD56R,1.0000X1.0000*%
%ADD57R,1.0000X1.0000*%
G04:AMPARAMS|DCode=58|XSize=0.6mm|YSize=1mm|CornerRadius=0.075mm|HoleSize=0mm|Usage=FLASHONLY|Rotation=0.000|XOffset=0mm|YOffset=0mm|HoleType=Round|Shape=RoundedRectangle|*
%AMROUNDEDRECTD58*
21,1,0.6000,0.8500,0,0,0.0*
21,1,0.4500,1.0000,0,0,0.0*
1,1,0.1500,0.2250,-0.4250*
1,1,0.1500,-0.2250,-0.4250*
1,1,0.1500,-0.2250,0.4250*
1,1,0.1500,0.2250,0.4250*
%
%ADD58ROUNDEDRECTD58*%
%ADD59O,2.2000X0.6000*%
G04:AMPARAMS|DCode=60|XSize=0.76mm|YSize=1.65mm|CornerRadius=0mm|HoleSize=0mm|Usage=FLASHONLY|Rotation=67.500|XOffset=0mm|YOffset=0mm|HoleType=Round|Shape=Rectangle|*
%AMROTATEDRECTD60*
4,1,4,0.6168,-0.6668,-0.9076,-0.0354,-0.6168,0.6668,0.9076,0.0354,0.6168,-0.6668,0.0*
%
%ADD60ROTATEDRECTD60*%

G04:AMPARAMS|DCode=61|XSize=0.76mm|YSize=1.65mm|CornerRadius=0mm|HoleSize=0mm|Usage=FLASHONLY|Rotation=225.000|XOffset=0mm|YOffset=0mm|HoleType=Round|Shape=Rectangle|*
%AMROTATEDRECTD61*
4,1,4,-0.3147,0.8521,0.8521,-0.3147,0.3147,-0.8521,-0.8521,0.3147,-0.3147,0.8521,0.0*
%
%ADD61ROTATEDRECTD61*%

%ADD62R,0.8000X1.4000*%
%ADD63R,0.8000X1.7000*%
%ADD64R,0.6000X0.4500*%
%ADD65R,0.6000X0.3000*%
%ADD66R,0.7000X4.2000*%
%ADD67R,0.7000X3.2000*%
G04:AMPARAMS|DCode=68|XSize=0.5mm|YSize=0.6mm|CornerRadius=0.05mm|HoleSize=0mm|Usage=FLASHONLY|Rotation=247.500|XOffset=0mm|YOffset=0mm|HoleType=Round|Shape=RoundedRectangle|*
%AMROUNDEDRECTD68*
21,1,0.5000,0.5000,0,0,247.5*
21,1,0.4000,0.6000,0,0,247.5*
1,1,0.1000,-0.3075,-0.0891*
1,1,0.1000,-0.1544,0.2804*
1,1,0.1000,0.3075,0.0891*
1,1,0.1000,0.1544,-0.2804*
%
%ADD68ROUNDEDRECTD68*%
G04:AMPARAMS|DCode=69|XSize=0.5mm|YSize=0.6mm|CornerRadius=0.05mm|HoleSize=0mm|Usage=FLASHONLY|Rotation=337.500|XOffset=0mm|YOffset=0mm|HoleType=Round|Shape=RoundedRectangle|*
%AMROUNDEDRECTD69*
21,1,0.5000,0.5000,0,0,337.5*
21,1,0.4000,0.6000,0,0,337.5*
1,1,0.1000,0.0891,-0.3075*
1,1,0.1000,-0.2804,-0.1544*
1,1,0.1000,-0.0891,0.3075*
1,1,0.1000,0.2804,0.1544*
%
%ADD69ROUNDEDRECTD69*%
G04:AMPARAMS|DCode=70|XSize=0.6mm|YSize=0.6mm|CornerRadius=0.06mm|HoleSize=0mm|Usage=FLASHONLY|Rotation=315.000|XOffset=0mm|YOffset=0mm|HoleType=Round|Shape=RoundedRectangle|*
%AMROUNDEDRECTD70*
21,1,0.6000,0.4800,0,0,315.0*
21,1,0.4800,0.6000,0,0,315.0*
1,1,0.1200,0.0000,-0.3394*
1,1,0.1200,-0.3394,0.0000*
1,1,0.1200,0.0000,0.3394*
1,1,0.1200,0.3394,0.0000*
%
%ADD70ROUNDEDRECTD70*%
G04:AMPARAMS|DCode=71|XSize=0.5mm|YSize=0.6mm|CornerRadius=0.05mm|HoleSize=0mm|Usage=FLASHONLY|Rotation=295.000|XOffset=0mm|YOffset=0mm|HoleType=Round|Shape=RoundedRectangle|*
%AMROUNDEDRECTD71*
21,1,0.5000,0.5000,0,0,295.0*
21,1,0.4000,0.6000,0,0,295.0*
1,1,0.1000,-0.1421,-0.2869*
1,1,0.1000,-0.3111,0.0756*
1,1,0.1000,0.1421,0.2869*
1,1,0.1000,0.3111,-0.0756*
%
%ADD71ROUNDEDRECTD71*%
G04:AMPARAMS|DCode=72|XSize=0.5mm|YSize=0.6mm|CornerRadius=0.05mm|HoleSize=0mm|Usage=FLASHONLY|Rotation=25.000|XOffset=0mm|YOffset=0mm|HoleType=Round|Shape=RoundedRectangle|*
%AMROUNDEDRECTD72*
21,1,0.5000,0.5000,0,0,25.0*
21,1,0.4000,0.6000,0,0,25.0*
1,1,0.1000,0.2869,-0.1421*
1,1,0.1000,-0.0756,-0.3111*
1,1,0.1000,-0.2869,0.1421*
1,1,0.1000,0.0756,0.3111*
%
%ADD72ROUNDEDRECTD72*%
G04:AMPARAMS|DCode=73|XSize=0.6mm|YSize=0.6mm|CornerRadius=0.06mm|HoleSize=0mm|Usage=FLASHONLY|Rotation=25.000|XOffset=0mm|YOffset=0mm|HoleType=Round|Shape=RoundedRectangle|*
%AMROUNDEDRECTD73*
21,1,0.6000,0.4800,0,0,25.0*
21,1,0.4800,0.6000,0,0,25.0*
1,1,0.1200,0.3189,-0.1161*
1,1,0.1200,-0.1161,-0.3189*
1,1,0.1200,-0.3189,0.1161*
1,1,0.1200,0.1161,0.3189*
%
%ADD73ROUNDEDRECTD73*%
G04:AMPARAMS|DCode=74|XSize=0.6mm|YSize=0.6mm|CornerRadius=0.06mm|HoleSize=0mm|Usage=FLASHONLY|Rotation=45.000|XOffset=0mm|YOffset=0mm|HoleType=Round|Shape=RoundedRectangle|*
%AMROUNDEDRECTD74*
21,1,0.6000,0.4800,0,0,45.0*
21,1,0.4800,0.6000,0,0,45.0*
1,1,0.1200,0.3394,0.0000*
1,1,0.1200,0.0000,-0.3394*
1,1,0.1200,-0.3394,0.0000*
1,1,0.1200,0.0000,0.3394*
%
%ADD74ROUNDEDRECTD74*%
G04:AMPARAMS|DCode=75|XSize=1.3mm|YSize=0.8mm|CornerRadius=0.1mm|HoleSize=0mm|Usage=FLASHONLY|Rotation=225.000|XOffset=0mm|YOffset=0mm|HoleType=Round|Shape=RoundedRectangle|*
%AMROUNDEDRECTD75*
21,1,1.3000,0.6000,0,0,225.0*
21,1,1.1000,0.8000,0,0,225.0*
1,1,0.2000,-0.6010,-0.1768*
1,1,0.2000,0.1768,0.6010*
1,1,0.2000,0.6010,0.1768*
1,1,0.2000,-0.1768,-0.6010*
%
%ADD75ROUNDEDRECTD75*%
G04:AMPARAMS|DCode=76|XSize=1.3mm|YSize=0.8mm|CornerRadius=0.1mm|HoleSize=0mm|Usage=FLASHONLY|Rotation=315.000|XOffset=0mm|YOffset=0mm|HoleType=Round|Shape=RoundedRectangle|*
%AMROUNDEDRECTD76*
21,1,1.3000,0.6000,0,0,315.0*
21,1,1.1000,0.8000,0,0,315.0*
1,1,0.2000,0.1768,-0.6010*
1,1,0.2000,-0.6010,0.1768*
1,1,0.2000,-0.1768,0.6010*
1,1,0.2000,0.6010,-0.1768*
%
%ADD76ROUNDEDRECTD76*%
G04:AMPARAMS|DCode=77|XSize=0.8mm|YSize=0.8mm|CornerRadius=0.1mm|HoleSize=0mm|Usage=FLASHONLY|Rotation=90.000|XOffset=0mm|YOffset=0mm|HoleType=Round|Shape=RoundedRectangle|*
%AMROUNDEDRECTD77*
21,1,0.8000,0.6000,0,0,90.0*
21,1,0.6000,0.8000,0,0,90.0*
1,1,0.2000,0.3000,0.3000*
1,1,0.2000,0.3000,-0.3000*
1,1,0.2000,-0.3000,-0.3000*
1,1,0.2000,-0.3000,0.3000*
%
%ADD77ROUNDEDRECTD77*%
%ADD78R,2.4000X0.7500*%
%ADD79R,3.2004X1.2700*%
%ADD80R,1.2000X1.2000*%
%ADD81R,2.1500X1.2000*%
%ADD82R,1.0000X1.5500*%
%ADD83R,1.6000X1.2000*%
%ADD84R,2.2000X0.5500*%
%ADD85C,0.3500*%
%ADD86R,0.6750X0.2000*%
%ADD87R,0.6750X0.4000*%
%ADD88O,0.2500X1.5500*%
%ADD89O,1.5500X0.2500*%
%ADD90O,0.2400X0.7500*%
%ADD91O,0.7500X0.2400*%
%ADD92R,7.4000X7.4000*%
%ADD93C,0.4100*%
%ADD94R,1.5000X0.3500*%
%ADD95C,0.5000*%
%ADD96R,0.6500X0.2000*%
%ADD97R,0.2000X0.6500*%
%ADD98R,0.7500X0.2000*%
%ADD99R,0.2500X0.6250*%
%ADD100R,1.6000X1.6000*%
G04:AMPARAMS|DCode=101|XSize=2.95mm|YSize=1.1mm|CornerRadius=0.1375mm|HoleSize=0mm|Usage=FLASHONLY|Rotation=270.000|XOffset=0mm|YOffset=0mm|HoleType=Round|Shape=RoundedRectangle|*
%AMROUNDEDRECTD101*
21,1,2.9500,0.8250,0,0,270.0*
21,1,2.6750,1.1000,0,0,270.0*
1,1,0.2750,-0.4125,-1.3375*
1,1,0.2750,-0.4125,1.3375*
1,1,0.2750,0.4125,1.3375*
1,1,0.2750,0.4125,-1.3375*
%
%ADD101ROUNDEDRECTD101*%
G04:AMPARAMS|DCode=102|XSize=10.5mm|YSize=10.5mm|CornerRadius=1.3125mm|HoleSize=0mm|Usage=FLASHONLY|Rotation=270.000|XOffset=0mm|YOffset=0mm|HoleType=Round|Shape=RoundedRectangle|*
%AMROUNDEDRECTD102*
21,1,10.5000,7.8750,0,0,270.0*
21,1,7.8750,10.5000,0,0,270.0*
1,1,2.6250,-3.9375,-3.9375*
1,1,2.6250,-3.9375,3.9375*
1,1,2.6250,3.9375,3.9375*
1,1,2.6250,3.9375,-3.9375*
%
%ADD102ROUNDEDRECTD102*%
%ADD103R,5.0000X4.0000*%
%ADD104R,2.5500X0.9000*%
%ADD105R,2.5500X1.4000*%
%ADD106R,0.2500X1.0000*%
%ADD107R,1.0000X0.2500*%
G04:AMPARAMS|DCode=108|XSize=1.8mm|YSize=1.15mm|CornerRadius=0.1437mm|HoleSize=0mm|Usage=FLASHONLY|Rotation=270.000|XOffset=0mm|YOffset=0mm|HoleType=Round|Shape=RoundedRectangle|*
%AMROUNDEDRECTD108*
21,1,1.8000,0.8625,0,0,270.0*
21,1,1.5125,1.1500,0,0,270.0*
1,1,0.2875,-0.4313,-0.7562*
1,1,0.2875,-0.4313,0.7562*
1,1,0.2875,0.4313,0.7562*
1,1,0.2875,0.4313,-0.7562*
%
%ADD108ROUNDEDRECTD108*%
%ADD109R,4.0000X1.3000*%
%ADD110R,1.3000X4.0000*%
%ADD111R,1.5000X4.0000*%
G04:AMPARAMS|DCode=112|XSize=1.4mm|YSize=1mm|CornerRadius=0.125mm|HoleSize=0mm|Usage=FLASHONLY|Rotation=270.000|XOffset=0mm|YOffset=0mm|HoleType=Round|Shape=RoundedRectangle|*
%AMROUNDEDRECTD112*
21,1,1.4000,0.7500,0,0,270.0*
21,1,1.1500,1.0000,0,0,270.0*
1,1,0.2500,-0.3750,-0.5750*
1,1,0.2500,-0.3750,0.5750*
1,1,0.2500,0.3750,0.5750*
1,1,0.2500,0.3750,-0.5750*
%
%ADD112ROUNDEDRECTD112*%
%ADD113R,0.9000X2.5500*%
%ADD114R,1.4000X2.5500*%
%ADD115R,4.0000X5.0000*%
G04:AMPARAMS|DCode=116|XSize=1.4mm|YSize=1mm|CornerRadius=0.125mm|HoleSize=0mm|Usage=FLASHONLY|Rotation=0.000|XOffset=0mm|YOffset=0mm|HoleType=Round|Shape=RoundedRectangle|*
%AMROUNDEDRECTD116*
21,1,1.4000,0.7500,0,0,0.0*
21,1,1.1500,1.0000,0,0,0.0*
1,1,0.2500,0.5750,-0.3750*
1,1,0.2500,-0.5750,-0.3750*
1,1,0.2500,-0.5750,0.3750*
1,1,0.2500,0.5750,0.3750*
%
%ADD116ROUNDEDRECTD116*%
G04:AMPARAMS|DCode=117|XSize=1.8mm|YSize=1.15mm|CornerRadius=0.1437mm|HoleSize=0mm|Usage=FLASHONLY|Rotation=180.000|XOffset=0mm|YOffset=0mm|HoleType=Round|Shape=RoundedRectangle|*
%AMROUNDEDRECTD117*
21,1,1.8000,0.8625,0,0,180.0*
21,1,1.5125,1.1500,0,0,180.0*
1,1,0.2875,-0.7562,0.4313*
1,1,0.2875,0.7562,0.4313*
1,1,0.2875,0.7562,-0.4313*
1,1,0.2875,-0.7562,-0.4313*
%
%ADD117ROUNDEDRECTD117*%
%ADD118R,0.9800X2.1800*%
%ADD119R,1.3500X0.4000*%
%ADD120R,3.5000X1.9000*%
%ADD121R,1.4000X0.4500*%
%ADD122R,4.0000X2.8000*%
%ADD123R,3.8000X2.8000*%
G04:AMPARAMS|DCode=124|XSize=1.6mm|YSize=1.9mm|CornerRadius=0.2mm|HoleSize=0mm|Usage=FLASHONLY|Rotation=270.000|XOffset=0mm|YOffset=0mm|HoleType=Round|Shape=RoundedRectangle|*
%AMROUNDEDRECTD124*
21,1,1.6000,1.5000,0,0,270.0*
21,1,1.2000,1.9000,0,0,270.0*
1,1,0.4000,-0.7500,-0.6000*
1,1,0.4000,-0.7500,0.6000*
1,1,0.4000,0.7500,0.6000*
1,1,0.4000,0.7500,-0.6000*
%
%ADD124ROUNDEDRECTD124*%
%ADD125O,0.3000X1.6000*%
G04:AMPARAMS|DCode=126|XSize=1.6mm|YSize=0.3mm|CornerRadius=0.0375mm|HoleSize=0mm|Usage=FLASHONLY|Rotation=90.000|XOffset=0mm|YOffset=0mm|HoleType=Round|Shape=RoundedRectangle|*
%AMROUNDEDRECTD126*
21,1,1.6000,0.2250,0,0,90.0*
21,1,1.5250,0.3000,0,0,90.0*
1,1,0.0750,0.1125,0.7625*
1,1,0.0750,0.1125,-0.7625*
1,1,0.0750,-0.1125,-0.7625*
1,1,0.0750,-0.1125,0.7625*
%
%ADD126ROUNDEDRECTD126*%
G04:AMPARAMS|DCode=127|XSize=1.6mm|YSize=0.3mm|CornerRadius=0.0375mm|HoleSize=0mm|Usage=FLASHONLY|Rotation=0.000|XOffset=0mm|YOffset=0mm|HoleType=Round|Shape=RoundedRectangle|*
%AMROUNDEDRECTD127*
21,1,1.6000,0.2250,0,0,0.0*
21,1,1.5250,0.3000,0,0,0.0*
1,1,0.0750,0.7625,-0.1125*
1,1,0.0750,-0.7625,-0.1125*
1,1,0.0750,-0.7625,0.1125*
1,1,0.0750,0.7625,0.1125*
%
%ADD127ROUNDEDRECTD127*%
%ADD128O,1.6000X0.3000*%
G04:AMPARAMS|DCode=129|XSize=1.6mm|YSize=1.9mm|CornerRadius=0.2mm|HoleSize=0mm|Usage=FLASHONLY|Rotation=180.000|XOffset=0mm|YOffset=0mm|HoleType=Round|Shape=RoundedRectangle|*
%AMROUNDEDRECTD129*
21,1,1.6000,1.5000,0,0,180.0*
21,1,1.2000,1.9000,0,0,180.0*
1,1,0.4000,-0.6000,0.7500*
1,1,0.4000,0.6000,0.7500*
1,1,0.4000,0.6000,-0.7500*
1,1,0.4000,-0.6000,-0.7500*
%
%ADD129ROUNDEDRECTD129*%
%ADD130R,1.0000X0.7000*%
%ADD131R,0.7000X0.7000*%
%ADD132R,0.7000X1.0000*%
%ADD133R,0.7000X0.7000*%
%ADD134R,0.1500X0.3500*%
%ADD135R,0.3500X0.1500*%
G04:AMPARAMS|DCode=136|XSize=0.35mm|YSize=0.15mm|CornerRadius=0mm|HoleSize=0mm|Usage=FLASHONLY|Rotation=225.000|XOffset=0mm|YOffset=0mm|HoleType=Round|Shape=Rectangle|*
%AMROTATEDRECTD136*
4,1,4,0.0707,0.1768,0.1768,0.0707,-0.0707,-0.1768,-0.1768,-0.0707,0.0707,0.1768,0.0*
%
%ADD136ROTATEDRECTD136*%

%ADD137R,0.2000X0.2000*%
%ADD138R,0.3000X0.9000*%
%ADD139R,0.9000X0.3000*%
%ADD140R,2.7000X2.7000*%
G04:AMPARAMS|DCode=141|XSize=0.7mm|YSize=0.4mm|CornerRadius=0.05mm|HoleSize=0mm|Usage=FLASHONLY|Rotation=90.000|XOffset=0mm|YOffset=0mm|HoleType=Round|Shape=RoundedRectangle|*
%AMROUNDEDRECTD141*
21,1,0.7000,0.3000,0,0,90.0*
21,1,0.6000,0.4000,0,0,90.0*
1,1,0.1000,0.1500,0.3000*
1,1,0.1000,0.1500,-0.3000*
1,1,0.1000,-0.1500,-0.3000*
1,1,0.1000,-0.1500,0.3000*
%
%ADD141ROUNDEDRECTD141*%
%ADD156C,5.0000*%
%ADD157O,3.6000X5.0000*%
%ADD158C,2.0000*%
%ADD159C,3.0000*%
%ADD160C,3.5000*%
G04:AMPARAMS|DCode=161|XSize=3.5mm|YSize=3.5mm|CornerRadius=0.875mm|HoleSize=0mm|Usage=FLASHONLY|Rotation=90.000|XOffset=0mm|YOffset=0mm|HoleType=Round|Shape=RoundedRectangle|*
%AMROUNDEDRECTD161*
21,1,3.5000,1.7500,0,0,90.0*
21,1,1.7500,3.5000,0,0,90.0*
1,1,1.7500,0.8750,0.8750*
1,1,1.7500,0.8750,-0.8750*
1,1,1.7500,-0.8750,-0.8750*
1,1,1.7500,-0.8750,0.8750*
%
%ADD161ROUNDEDRECTD161*%
G04:AMPARAMS|DCode=162|XSize=1.524mm|YSize=1.524mm|CornerRadius=0.1905mm|HoleSize=0mm|Usage=FLASHONLY|Rotation=90.000|XOffset=0mm|YOffset=0mm|HoleType=Round|Shape=RoundedRectangle|*
%AMROUNDEDRECTD162*
21,1,1.5240,1.1430,0,0,90.0*
21,1,1.1430,1.5240,0,0,90.0*
1,1,0.3810,0.5715,0.5715*
1,1,0.3810,0.5715,-0.5715*
1,1,0.3810,-0.5715,-0.5715*
1,1,0.3810,-0.5715,0.5715*
%
%ADD162ROUNDEDRECTD162*%
%ADD163O,2.0000X5.0000*%
%ADD164O,2.2000X5.0000*%
%ADD165O,5.0000X2.0000*%
G04:AMPARAMS|DCode=166|XSize=1.524mm|YSize=1.524mm|CornerRadius=0.1905mm|HoleSize=0mm|Usage=FLASHONLY|Rotation=0.000|XOffset=0mm|YOffset=0mm|HoleType=Round|Shape=RoundedRectangle|*
%AMROUNDEDRECTD166*
21,1,1.5240,1.1430,0,0,0.0*
21,1,1.1430,1.5240,0,0,0.0*
1,1,0.3810,0.5715,-0.5715*
1,1,0.3810,-0.5715,-0.5715*
1,1,0.3810,-0.5715,0.5715*
1,1,0.3810,0.5715,0.5715*
%
%ADD166ROUNDEDRECTD166*%
%ADD167C,0.8000*%
%ADD168C,2.8800*%
%ADD169C,1.7500*%
%ADD170C,1.3000*%
%ADD171C,0.6604*%
%ADD172C,4.0000*%
D20*
X293000Y684750D02*
D03*
Y689250D02*
D03*
Y548750D02*
D03*
Y544250D02*
D03*
X148750Y614250D02*
D03*
Y618750D02*
D03*
X156000Y735250D02*
D03*
Y730750D02*
D03*
X528750Y501750D02*
D03*
Y506250D02*
D03*
X271750Y744281D02*
D03*
Y748781D02*
D03*
X409219Y743281D02*
D03*
Y738781D02*
D03*
X271737Y183160D02*
D03*
Y187660D02*
D03*
X143595Y348905D02*
D03*
Y344405D02*
D03*
X407500Y183250D02*
D03*
Y178750D02*
D03*
D21*
X251250Y628368D02*
D03*
X255750D02*
D03*
X251250Y604750D02*
D03*
X255750D02*
D03*
X136500Y244500D02*
D03*
X141000D02*
D03*
X582500Y1033000D02*
D03*
X587000D02*
D03*
X559500Y220000D02*
D03*
X564000D02*
D03*
X497250Y766000D02*
D03*
X492750D02*
D03*
X577750Y963000D02*
D03*
X582250D02*
D03*
X578164Y897866D02*
D03*
X582664D02*
D03*
X576000Y421000D02*
D03*
X580500D02*
D03*
X497500Y208250D02*
D03*
X493000D02*
D03*
D22*
X136591Y489159D02*
D03*
X133409Y492341D02*
D03*
X158659Y856091D02*
D03*
X161841Y852909D02*
D03*
X576409Y345591D02*
D03*
X579591Y342409D02*
D03*
D23*
X167659Y1001659D02*
D03*
X170841Y1004841D02*
D03*
X548841Y749341D02*
D03*
X545659Y746159D02*
D03*
D24*
X670650Y217140D02*
D03*
X1428500Y688250D02*
D03*
X773250Y906500D02*
D03*
X779250Y298750D02*
D03*
X817000Y393000D02*
D03*
X778750Y828500D02*
D03*
X682750Y289750D02*
D03*
D25*
X680150Y203140D02*
D03*
X670650Y203140D02*
D03*
X661150Y203140D02*
D03*
Y231140D02*
D03*
X670650D02*
D03*
X680150D02*
D03*
X1419000Y674250D02*
D03*
X1428500Y674250D02*
D03*
X1438000D02*
D03*
Y702250D02*
D03*
X1428500D02*
D03*
X1419000D02*
D03*
X782750Y920500D02*
D03*
X773250Y920500D02*
D03*
X763750D02*
D03*
Y892500D02*
D03*
X773250D02*
D03*
X782750D02*
D03*
X788750Y312750D02*
D03*
X779250D02*
D03*
X769750D02*
D03*
Y284750D02*
D03*
X779250Y284750D02*
D03*
X788750Y284750D02*
D03*
X826500Y407000D02*
D03*
X817000D02*
D03*
X807500D02*
D03*
Y379000D02*
D03*
X817000Y379000D02*
D03*
X826500Y379000D02*
D03*
X788250Y842500D02*
D03*
X778750D02*
D03*
X769250D02*
D03*
Y814500D02*
D03*
X778750Y814500D02*
D03*
X788250Y814500D02*
D03*
X692250Y303750D02*
D03*
X682750D02*
D03*
X673250D02*
D03*
Y275750D02*
D03*
X682750Y275750D02*
D03*
X692250Y275750D02*
D03*
D26*
X642500Y181000D02*
D03*
Y191000D02*
D03*
X674500Y181500D02*
D03*
Y191500D02*
D03*
X377860Y290250D02*
D03*
Y300250D02*
D03*
X1313500Y916750D02*
D03*
Y906750D02*
D03*
X691000Y937750D02*
D03*
Y947750D02*
D03*
X742500Y176000D02*
D03*
Y166000D02*
D03*
X753500Y176000D02*
D03*
Y166000D02*
D03*
X1313500Y938250D02*
D03*
X1313500Y928250D02*
D03*
X388860Y290250D02*
D03*
Y300250D02*
D03*
X1800250Y598000D02*
D03*
Y608000D02*
D03*
X927250Y1073500D02*
D03*
Y1083500D02*
D03*
X795250Y609750D02*
D03*
Y619750D02*
D03*
X784250Y607000D02*
D03*
Y617000D02*
D03*
X1820000Y446250D02*
D03*
Y456250D02*
D03*
X849449Y735550D02*
D03*
Y725550D02*
D03*
X973750Y501750D02*
D03*
Y511750D02*
D03*
X771500Y644000D02*
D03*
Y634000D02*
D03*
X1128250Y906750D02*
D03*
Y916750D02*
D03*
X1068750Y906750D02*
D03*
Y916750D02*
D03*
X556750Y88750D02*
D03*
Y98750D02*
D03*
X546500Y88750D02*
D03*
Y98750D02*
D03*
X1017750Y299750D02*
D03*
Y309750D02*
D03*
X1017500Y244500D02*
D03*
Y234500D02*
D03*
X776500Y118500D02*
D03*
Y128500D02*
D03*
X636500Y118500D02*
D03*
Y128500D02*
D03*
X493500Y132500D02*
D03*
Y122500D02*
D03*
X553000Y132500D02*
D03*
Y122500D02*
D03*
X1757250Y703000D02*
D03*
Y713000D02*
D03*
X1749750Y499350D02*
D03*
Y509350D02*
D03*
X1653100Y486650D02*
D03*
Y496650D02*
D03*
X493558Y906021D02*
D03*
Y916021D02*
D03*
X272472Y933476D02*
D03*
Y923476D02*
D03*
X272472Y903476D02*
D03*
Y913476D02*
D03*
X493791Y347650D02*
D03*
Y357650D02*
D03*
X272206Y375105D02*
D03*
Y365105D02*
D03*
Y345105D02*
D03*
Y355105D02*
D03*
X972500Y734000D02*
D03*
Y744000D02*
D03*
X670450Y879810D02*
D03*
Y889810D02*
D03*
X703140Y362850D02*
D03*
X703140Y352850D02*
D03*
X747625Y808500D02*
D03*
X747625Y818500D02*
D03*
X931500Y363500D02*
D03*
Y353500D02*
D03*
X1283250Y311500D02*
D03*
Y321500D02*
D03*
X1789625Y409500D02*
D03*
Y399500D02*
D03*
X1462250Y886750D02*
D03*
Y876750D02*
D03*
X691000Y960000D02*
D03*
Y970000D02*
D03*
X1291500Y916750D02*
D03*
Y926750D02*
D03*
X1302500Y906750D02*
D03*
Y916750D02*
D03*
X1587500Y421000D02*
D03*
Y411000D02*
D03*
X1598500Y411000D02*
D03*
Y421000D02*
D03*
X1587250Y235500D02*
D03*
Y225500D02*
D03*
X1598250Y225500D02*
D03*
Y235500D02*
D03*
X1436250Y341250D02*
D03*
Y331250D02*
D03*
X1447250D02*
D03*
Y341250D02*
D03*
X931500Y331250D02*
D03*
X931500Y341250D02*
D03*
X920500Y331250D02*
D03*
Y341250D02*
D03*
Y363500D02*
D03*
Y353500D02*
D03*
X1809000Y446250D02*
D03*
Y456250D02*
D03*
X733750Y211500D02*
D03*
Y201500D02*
D03*
X747157Y286500D02*
D03*
Y296500D02*
D03*
X861000Y547000D02*
D03*
Y537000D02*
D03*
X927250Y1042500D02*
D03*
Y1052500D02*
D03*
X1051750Y950000D02*
D03*
Y960000D02*
D03*
X1041000Y950000D02*
D03*
Y960000D02*
D03*
X1030000Y950000D02*
D03*
Y960000D02*
D03*
X1019000Y950000D02*
D03*
Y960000D02*
D03*
X1631000Y206000D02*
D03*
Y196000D02*
D03*
X1627500Y397500D02*
D03*
Y387500D02*
D03*
X724000Y1043250D02*
D03*
Y1033250D02*
D03*
X713250Y1043250D02*
D03*
Y1033250D02*
D03*
X1653000Y475000D02*
D03*
Y465000D02*
D03*
X1398750Y950500D02*
D03*
Y940500D02*
D03*
X642360Y855900D02*
D03*
Y845900D02*
D03*
X720140Y386850D02*
D03*
Y396850D02*
D03*
X653360Y855900D02*
D03*
Y845900D02*
D03*
X461000Y649000D02*
D03*
Y639000D02*
D03*
X374552Y667875D02*
D03*
Y677875D02*
D03*
X430750Y679250D02*
D03*
Y669250D02*
D03*
X363552Y677875D02*
D03*
Y667875D02*
D03*
X512750Y577250D02*
D03*
Y587250D02*
D03*
X568823Y588625D02*
D03*
Y578625D02*
D03*
X501875Y587250D02*
D03*
Y577250D02*
D03*
X419750Y669250D02*
D03*
Y679250D02*
D03*
X557823Y578625D02*
D03*
Y588625D02*
D03*
X472250Y639000D02*
D03*
Y649000D02*
D03*
X512677Y659750D02*
D03*
Y669750D02*
D03*
X568875Y671125D02*
D03*
Y661125D02*
D03*
X501677Y669750D02*
D03*
Y659750D02*
D03*
X554802Y630000D02*
D03*
Y640000D02*
D03*
X557875Y661125D02*
D03*
Y671125D02*
D03*
X419573Y578750D02*
D03*
Y588750D02*
D03*
X430573D02*
D03*
Y578750D02*
D03*
X363375Y587375D02*
D03*
Y577375D02*
D03*
X374500Y577250D02*
D03*
Y587250D02*
D03*
X839500Y1007250D02*
D03*
Y997250D02*
D03*
X760250Y1024500D02*
D03*
X760250Y1014500D02*
D03*
X749500Y1024500D02*
D03*
Y1014500D02*
D03*
D27*
X696250Y203250D02*
D03*
Y223250D02*
D03*
X1380750Y957750D02*
D03*
Y937750D02*
D03*
X632250Y792000D02*
D03*
Y812000D02*
D03*
X795250Y647000D02*
D03*
Y667000D02*
D03*
X848250Y679750D02*
D03*
Y699750D02*
D03*
X283655Y832223D02*
D03*
Y852223D02*
D03*
X322106Y832231D02*
D03*
Y852231D02*
D03*
X283389Y273853D02*
D03*
Y293853D02*
D03*
X321839Y273860D02*
D03*
Y293860D02*
D03*
X634250Y945000D02*
D03*
Y925000D02*
D03*
X716860Y862650D02*
D03*
Y882650D02*
D03*
X656640Y380100D02*
D03*
X656640Y360100D02*
D03*
X1000750Y952500D02*
D03*
Y972500D02*
D03*
X764500Y161000D02*
D03*
Y181000D02*
D03*
D28*
X663500Y191500D02*
D03*
X653500D02*
D03*
X1438250Y712750D02*
D03*
X1428250D02*
D03*
X1406750Y710500D02*
D03*
X1396750D02*
D03*
X769250Y273500D02*
D03*
X779250D02*
D03*
X787750Y882000D02*
D03*
X797750D02*
D03*
X779250Y262500D02*
D03*
X789250D02*
D03*
X807000Y367750D02*
D03*
X817000D02*
D03*
X768625Y803500D02*
D03*
X778625D02*
D03*
X672750Y264500D02*
D03*
X682750D02*
D03*
X817750Y867000D02*
D03*
X807750D02*
D03*
X701750Y1016750D02*
D03*
X711750D02*
D03*
X771500Y998000D02*
D03*
X781500D02*
D03*
X781000Y968500D02*
D03*
X771000D02*
D03*
X932875Y839250D02*
D03*
X922875D02*
D03*
X932875Y826750D02*
D03*
X922875Y826750D02*
D03*
X932875Y814250D02*
D03*
X922875D02*
D03*
X780801Y467700D02*
D03*
X770801D02*
D03*
X780801Y477700D02*
D03*
X770801D02*
D03*
X780801Y527800D02*
D03*
X770801D02*
D03*
X780801Y517800D02*
D03*
X770801D02*
D03*
X780051Y718700D02*
D03*
X770051D02*
D03*
X780051Y728700D02*
D03*
X770051D02*
D03*
X780051Y778800D02*
D03*
X770051D02*
D03*
X780051Y768800D02*
D03*
X770051D02*
D03*
X955125Y814250D02*
D03*
X945125D02*
D03*
X1399149Y535160D02*
D03*
X1389149D02*
D03*
X1377000Y510470D02*
D03*
X1367000D02*
D03*
X1399149Y510380D02*
D03*
X1389149D02*
D03*
X963750Y881650D02*
D03*
X973750D02*
D03*
X949750Y965750D02*
D03*
X959750D02*
D03*
X926250Y890000D02*
D03*
X936250D02*
D03*
X1377000Y497970D02*
D03*
X1367000D02*
D03*
X1399149Y497940D02*
D03*
X1389149D02*
D03*
X1377000Y485500D02*
D03*
X1367000D02*
D03*
X1399149Y485500D02*
D03*
X1389149D02*
D03*
X1126750Y929750D02*
D03*
X1136750D02*
D03*
X1067250D02*
D03*
X1077250D02*
D03*
X955125Y839250D02*
D03*
X945125D02*
D03*
X955125Y826750D02*
D03*
X945125Y826750D02*
D03*
X683750Y600000D02*
D03*
X673750D02*
D03*
X1336000Y454500D02*
D03*
X1326000D02*
D03*
X1090750Y324000D02*
D03*
X1100750D02*
D03*
X1757250Y692000D02*
D03*
X1767250D02*
D03*
X1749400Y483950D02*
D03*
X1739400D02*
D03*
X1653100Y509350D02*
D03*
X1643100D02*
D03*
X1577000Y635000D02*
D03*
X1587000D02*
D03*
X1576000Y685000D02*
D03*
X1586000D02*
D03*
X1083250Y893500D02*
D03*
X1093250D02*
D03*
X1138750Y190000D02*
D03*
X1128750Y190000D02*
D03*
X1143750Y157500D02*
D03*
X1133750D02*
D03*
X1377000Y535220D02*
D03*
X1367000D02*
D03*
X1377000Y522865D02*
D03*
X1367000D02*
D03*
X1399149D02*
D03*
X1389149D02*
D03*
X1202500Y455500D02*
D03*
X1192500D02*
D03*
X1200250Y784250D02*
D03*
X1210250D02*
D03*
X419062Y827737D02*
D03*
X409062D02*
D03*
X287861Y863326D02*
D03*
X297860D02*
D03*
X317860Y863327D02*
D03*
X307860D02*
D03*
X418795Y269366D02*
D03*
X408795D02*
D03*
X287594Y304956D02*
D03*
X297594D02*
D03*
X317594Y304956D02*
D03*
X307594D02*
D03*
X1767750Y579000D02*
D03*
X1777750D02*
D03*
X843750Y498250D02*
D03*
X853750D02*
D03*
X1745125Y391427D02*
D03*
X1755125D02*
D03*
X1755125Y380500D02*
D03*
X1745125D02*
D03*
X658500Y291500D02*
D03*
X648500D02*
D03*
X747750Y901750D02*
D03*
X737750D02*
D03*
X1616500Y376500D02*
D03*
X1606500D02*
D03*
X1616250Y191000D02*
D03*
X1606250D02*
D03*
X817000Y356750D02*
D03*
X827000Y356750D02*
D03*
X1427750Y868750D02*
D03*
X1417750D02*
D03*
X1417750Y857750D02*
D03*
X1427750Y857750D02*
D03*
X1363000Y319750D02*
D03*
X1353000D02*
D03*
X1373000Y330750D02*
D03*
X1363000D02*
D03*
X784000Y381750D02*
D03*
X774000D02*
D03*
X684500Y915000D02*
D03*
X674500D02*
D03*
X1238750Y292500D02*
D03*
X1248750D02*
D03*
X1248750Y303500D02*
D03*
X1238750D02*
D03*
X947500Y403250D02*
D03*
X957500D02*
D03*
X947500Y415750D02*
D03*
X957500D02*
D03*
X947500Y428250D02*
D03*
X957500D02*
D03*
X947500Y440750D02*
D03*
X957500D02*
D03*
X766750Y882000D02*
D03*
X776750D02*
D03*
X777500Y225750D02*
D03*
X787500Y225750D02*
D03*
X696250Y258500D02*
D03*
X706250D02*
D03*
X789500Y798750D02*
D03*
X799500D02*
D03*
X1428000Y898000D02*
D03*
X1438000D02*
D03*
X1268250Y334000D02*
D03*
X1278250D02*
D03*
X1774500Y420500D02*
D03*
X1784500D02*
D03*
X1328750Y955500D02*
D03*
X1338750D02*
D03*
X1462750Y707500D02*
D03*
X1472750D02*
D03*
X742250Y409000D02*
D03*
X732250D02*
D03*
X344052Y635750D02*
D03*
X334052D02*
D03*
X508750Y609625D02*
D03*
X498750D02*
D03*
X568750D02*
D03*
X558750D02*
D03*
X408750Y679250D02*
D03*
X398750D02*
D03*
X546823Y588625D02*
D03*
X536823D02*
D03*
X425927Y648125D02*
D03*
X415927D02*
D03*
X564000Y557500D02*
D03*
X554000D02*
D03*
X597750Y639000D02*
D03*
X587750D02*
D03*
X546875Y671125D02*
D03*
X536875D02*
D03*
X425750Y557500D02*
D03*
X415750D02*
D03*
X431000Y609750D02*
D03*
X421000D02*
D03*
X408573Y588750D02*
D03*
X398573D02*
D03*
X349750Y609750D02*
D03*
X339750D02*
D03*
X717250Y1003500D02*
D03*
X707250D02*
D03*
X722750Y201500D02*
D03*
X712750D02*
D03*
D29*
X647250Y213250D02*
D03*
Y203250D02*
D03*
X685250Y181500D02*
D03*
Y191500D02*
D03*
X270856Y826481D02*
D03*
Y816481D02*
D03*
X334856Y826481D02*
D03*
Y816481D02*
D03*
X270589Y268110D02*
D03*
Y258110D02*
D03*
X334589Y268110D02*
D03*
Y258110D02*
D03*
X1365000Y938250D02*
D03*
Y928250D02*
D03*
X767000Y228250D02*
D03*
Y238250D02*
D03*
X784750Y208750D02*
D03*
Y198750D02*
D03*
X866250Y1038750D02*
D03*
X773750Y612500D02*
D03*
Y602500D02*
D03*
X720250Y603250D02*
D03*
Y613250D02*
D03*
X748750Y640000D02*
D03*
Y650000D02*
D03*
X926900Y958250D02*
D03*
Y948250D02*
D03*
X916750Y958250D02*
D03*
Y948250D02*
D03*
X939150Y958250D02*
D03*
Y948250D02*
D03*
X843750Y746500D02*
D03*
Y756500D02*
D03*
X1017750Y278750D02*
D03*
Y288750D02*
D03*
X409012Y848840D02*
D03*
Y838840D02*
D03*
X419012Y848840D02*
D03*
Y838840D02*
D03*
X462558Y916021D02*
D03*
Y906021D02*
D03*
X230972Y923476D02*
D03*
Y913476D02*
D03*
X261972Y923476D02*
D03*
Y913476D02*
D03*
X307860Y832327D02*
D03*
Y842327D02*
D03*
X297860D02*
D03*
Y832327D02*
D03*
X408745Y290469D02*
D03*
Y280469D02*
D03*
X418745Y290469D02*
D03*
Y280469D02*
D03*
X462291Y357650D02*
D03*
Y347650D02*
D03*
X230706Y365105D02*
D03*
Y355105D02*
D03*
X261705Y365105D02*
D03*
Y355105D02*
D03*
X307594Y273956D02*
D03*
Y283956D02*
D03*
X297594Y283956D02*
D03*
Y273956D02*
D03*
X740750Y972500D02*
D03*
Y962500D02*
D03*
X729750Y972500D02*
D03*
Y962500D02*
D03*
X401750Y760750D02*
D03*
Y750750D02*
D03*
X547374Y827194D02*
D03*
Y817194D02*
D03*
X497250Y785000D02*
D03*
Y775000D02*
D03*
X163500Y883000D02*
D03*
Y873000D02*
D03*
X401500Y204500D02*
D03*
Y194500D02*
D03*
X497500Y226750D02*
D03*
Y216750D02*
D03*
X838949Y725550D02*
D03*
Y735550D02*
D03*
X1779625Y399500D02*
D03*
Y409500D02*
D03*
X1769125Y399500D02*
D03*
Y409500D02*
D03*
X750250Y890750D02*
D03*
Y880750D02*
D03*
X781000Y936000D02*
D03*
Y946000D02*
D03*
X751000Y949750D02*
D03*
Y959750D02*
D03*
X758125Y804250D02*
D03*
Y794250D02*
D03*
X751890Y861954D02*
D03*
Y851954D02*
D03*
X757657Y278500D02*
D03*
Y268500D02*
D03*
X630750Y830250D02*
D03*
Y840250D02*
D03*
X781000Y435000D02*
D03*
Y445000D02*
D03*
X794500Y376000D02*
D03*
Y366000D02*
D03*
X1262750Y311500D02*
D03*
Y321500D02*
D03*
X1273250Y321500D02*
D03*
Y311500D02*
D03*
X1442000Y886750D02*
D03*
Y876750D02*
D03*
X1452250D02*
D03*
Y886750D02*
D03*
X1383250Y329750D02*
D03*
Y319750D02*
D03*
X1346250Y301750D02*
D03*
Y291750D02*
D03*
X1577000Y421000D02*
D03*
Y411000D02*
D03*
X1609000D02*
D03*
Y421000D02*
D03*
X1576750Y235500D02*
D03*
Y225500D02*
D03*
X1608750Y235500D02*
D03*
Y225500D02*
D03*
X1774000Y452750D02*
D03*
Y462750D02*
D03*
X1062250Y960000D02*
D03*
Y950000D02*
D03*
X1326500Y904500D02*
D03*
Y894500D02*
D03*
X1452000Y705000D02*
D03*
Y695000D02*
D03*
X544750Y783250D02*
D03*
Y773250D02*
D03*
X559500Y238750D02*
D03*
Y228750D02*
D03*
X354552Y625750D02*
D03*
Y635750D02*
D03*
X520750Y599500D02*
D03*
Y609500D02*
D03*
X534500Y783250D02*
D03*
Y773250D02*
D03*
X548250Y599625D02*
D03*
Y609625D02*
D03*
X574500Y567500D02*
D03*
Y557500D02*
D03*
X162000Y455750D02*
D03*
Y465750D02*
D03*
X577250Y629000D02*
D03*
Y639000D02*
D03*
X556750Y490250D02*
D03*
Y500250D02*
D03*
X177250Y736750D02*
D03*
Y746750D02*
D03*
X164750Y748250D02*
D03*
Y738250D02*
D03*
X136483Y225629D02*
D03*
Y235629D02*
D03*
X409000Y536500D02*
D03*
Y546500D02*
D03*
X410500Y599750D02*
D03*
Y609750D02*
D03*
X363000Y599750D02*
D03*
Y609750D02*
D03*
X895250Y986500D02*
D03*
Y976500D02*
D03*
X905000Y986500D02*
D03*
Y976500D02*
D03*
X866250Y1028750D02*
D03*
X876250Y1038750D02*
D03*
Y1028750D02*
D03*
X677750Y994750D02*
D03*
Y1004750D02*
D03*
X798000Y1007750D02*
D03*
Y997750D02*
D03*
X808000Y1007750D02*
D03*
Y997750D02*
D03*
D30*
X709750Y233500D02*
D03*
X699750D02*
D03*
X638250Y231250D02*
D03*
X648250D02*
D03*
X235627Y886481D02*
D03*
X225627D02*
D03*
X235627Y950481D02*
D03*
X225627D02*
D03*
X235360Y328110D02*
D03*
X225360D02*
D03*
X235360Y392110D02*
D03*
X225360D02*
D03*
X1450250Y679500D02*
D03*
X1460250D02*
D03*
X750000Y923000D02*
D03*
X740000D02*
D03*
X765500Y322500D02*
D03*
X755500D02*
D03*
X652000Y925750D02*
D03*
X662000D02*
D03*
X794750Y407000D02*
D03*
X784750D02*
D03*
X768000Y852500D02*
D03*
X778000D02*
D03*
X662000Y312000D02*
D03*
X652000D02*
D03*
X826250Y884250D02*
D03*
X816250D02*
D03*
X828750Y874250D02*
D03*
X838750D02*
D03*
X1238750Y314072D02*
D03*
X1248750D02*
D03*
X1248750Y282000D02*
D03*
X1238750D02*
D03*
X853750Y508750D02*
D03*
X843750D02*
D03*
X649750Y589500D02*
D03*
X639750D02*
D03*
X409012Y859340D02*
D03*
X419012D02*
D03*
X473058Y916021D02*
D03*
X483058D02*
D03*
X473058Y906021D02*
D03*
X483058D02*
D03*
X241472Y913476D02*
D03*
X251472D02*
D03*
X251472Y923476D02*
D03*
X241472D02*
D03*
X297860Y821827D02*
D03*
X307860D02*
D03*
X297860Y852827D02*
D03*
X307860D02*
D03*
X408745Y300969D02*
D03*
X418745D02*
D03*
X472791Y357650D02*
D03*
X482791D02*
D03*
X472791Y347650D02*
D03*
X482791D02*
D03*
X241206Y355105D02*
D03*
X251206D02*
D03*
Y365105D02*
D03*
X241206D02*
D03*
X297594Y263456D02*
D03*
X307594D02*
D03*
X297594Y294456D02*
D03*
X307594D02*
D03*
X729250Y993000D02*
D03*
X719250D02*
D03*
X1739400Y473600D02*
D03*
X1749400D02*
D03*
X1756500Y617000D02*
D03*
X1766500D02*
D03*
Y627000D02*
D03*
X1756500D02*
D03*
X1029500Y157500D02*
D03*
X1039500D02*
D03*
X560414Y906616D02*
D03*
X570414D02*
D03*
X563500Y955000D02*
D03*
X573500D02*
D03*
X188500Y1042250D02*
D03*
X178500D02*
D03*
X559000Y338450D02*
D03*
X569000D02*
D03*
X162367Y348905D02*
D03*
X152367D02*
D03*
X719250Y983000D02*
D03*
X729250D02*
D03*
X843750Y488000D02*
D03*
X853750D02*
D03*
X1745125Y402072D02*
D03*
X1755125D02*
D03*
X1745125Y370000D02*
D03*
X1755125D02*
D03*
X691750Y925500D02*
D03*
X701750D02*
D03*
X637000Y956250D02*
D03*
X627000D02*
D03*
X794500Y855250D02*
D03*
X804500D02*
D03*
X652000Y335750D02*
D03*
X642000Y335750D02*
D03*
X702250Y315000D02*
D03*
X712250D02*
D03*
X658530Y277157D02*
D03*
X648530D02*
D03*
X842000Y417000D02*
D03*
X852000D02*
D03*
X664390Y347600D02*
D03*
X674390D02*
D03*
X716500Y893000D02*
D03*
X706500D02*
D03*
X1267775Y934120D02*
D03*
X1257775Y934120D02*
D03*
X734500Y339250D02*
D03*
X724500D02*
D03*
X803750Y299500D02*
D03*
X813750D02*
D03*
X635000Y914500D02*
D03*
X645000D02*
D03*
X1616500Y397000D02*
D03*
X1606500D02*
D03*
X1616500Y386500D02*
D03*
X1606500D02*
D03*
X1616250Y211500D02*
D03*
X1606250D02*
D03*
X1427750Y879322D02*
D03*
X1417750D02*
D03*
X1300250Y896250D02*
D03*
X1290250D02*
D03*
X1417750Y847250D02*
D03*
X1427750D02*
D03*
X917250Y1063000D02*
D03*
X927250D02*
D03*
X1051000Y939500D02*
D03*
X1041000D02*
D03*
X1014250Y939500D02*
D03*
X1024250D02*
D03*
X992500Y985250D02*
D03*
X1002500D02*
D03*
X980750Y974000D02*
D03*
X970750D02*
D03*
X980750Y985250D02*
D03*
X970750D02*
D03*
X1616250Y201000D02*
D03*
X1606250D02*
D03*
X1317750Y948750D02*
D03*
X1307750D02*
D03*
X1400750Y696250D02*
D03*
X1390750D02*
D03*
X451000Y628750D02*
D03*
X461000D02*
D03*
X446427Y648125D02*
D03*
X436427D02*
D03*
X157750Y493250D02*
D03*
X147750D02*
D03*
X564500Y1028000D02*
D03*
X574500D02*
D03*
X493250Y638500D02*
D03*
X483250D02*
D03*
X564500Y1018000D02*
D03*
X574500D02*
D03*
X533802Y629500D02*
D03*
X543802D02*
D03*
X850500Y1007500D02*
D03*
X860500D02*
D03*
X818500Y1007500D02*
D03*
X828500D02*
D03*
X850500Y996750D02*
D03*
X860500D02*
D03*
X241500Y609250D02*
D03*
X231500D02*
D03*
X241500Y624250D02*
D03*
X231500D02*
D03*
X167507Y614250D02*
D03*
X157507D02*
D03*
X571000Y256250D02*
D03*
X581000D02*
D03*
D31*
X209175Y863791D02*
D03*
X202104Y856720D02*
D03*
X254430Y818536D02*
D03*
X247359Y811465D02*
D03*
X254286Y260285D02*
D03*
X247215Y253214D02*
D03*
X209035Y305536D02*
D03*
X201964Y298465D02*
D03*
X1336750Y249250D02*
D03*
X1329679Y242179D02*
D03*
X1329856Y256144D02*
D03*
X1322785Y249073D02*
D03*
X448536Y963251D02*
D03*
X455607Y970322D02*
D03*
X455607Y956180D02*
D03*
X462678Y963251D02*
D03*
X441901Y866925D02*
D03*
X448972Y873996D02*
D03*
X241133Y987773D02*
D03*
X248204Y994844D02*
D03*
X270125Y972923D02*
D03*
X263054Y965852D02*
D03*
X239510Y855936D02*
D03*
X232439Y848865D02*
D03*
X246582D02*
D03*
X239510Y841794D02*
D03*
X448269Y404880D02*
D03*
X455340Y411951D02*
D03*
X455340Y397809D02*
D03*
X462411Y404880D02*
D03*
X441634Y308554D02*
D03*
X448705Y315626D02*
D03*
X240867Y429402D02*
D03*
X247938Y436473D02*
D03*
X269858Y414553D02*
D03*
X262787Y407482D02*
D03*
X239244Y297565D02*
D03*
X232173Y290494D02*
D03*
X246315Y290494D02*
D03*
X239244Y283423D02*
D03*
X526566Y1016250D02*
D03*
X533637Y1023321D02*
D03*
X182036Y783536D02*
D03*
X174965Y776464D02*
D03*
X289071Y751602D02*
D03*
X282000Y744531D02*
D03*
X525651Y457231D02*
D03*
X532722Y464302D02*
D03*
X179785Y223286D02*
D03*
X172715Y216215D02*
D03*
X289785Y193536D02*
D03*
X282715Y186465D02*
D03*
X544000Y232250D02*
D03*
X536929Y225179D02*
D03*
X218978Y662471D02*
D03*
X211907Y655400D02*
D03*
D32*
X270555Y1010683D02*
D03*
X263484Y1017755D02*
D03*
X225300Y965428D02*
D03*
X218229Y972500D02*
D03*
X225034Y407058D02*
D03*
X217963Y414129D02*
D03*
X270289Y452313D02*
D03*
X263217Y459384D02*
D03*
X448182Y948755D02*
D03*
X441111Y955826D02*
D03*
X470102Y970676D02*
D03*
X463031Y977747D02*
D03*
X456397Y866572D02*
D03*
X463468Y859501D02*
D03*
X449326D02*
D03*
X456397Y852430D02*
D03*
X262700Y980348D02*
D03*
X255629Y987419D02*
D03*
X255629Y973277D02*
D03*
X248558Y980348D02*
D03*
X232086Y834369D02*
D03*
X225015Y841440D02*
D03*
X246935Y863361D02*
D03*
X254006Y856290D02*
D03*
X447915Y390385D02*
D03*
X440844Y397456D02*
D03*
X469836Y412305D02*
D03*
X462765Y419376D02*
D03*
X456130Y308201D02*
D03*
X463201Y301130D02*
D03*
X449059D02*
D03*
X456130Y294059D02*
D03*
X262433Y421977D02*
D03*
X255362Y429048D02*
D03*
X255362Y414906D02*
D03*
X248291Y421977D02*
D03*
X231819Y275999D02*
D03*
X224748Y283070D02*
D03*
X246668Y304990D02*
D03*
X253739Y297919D02*
D03*
X547582Y274561D02*
D03*
X554653Y267490D02*
D03*
X194536Y482715D02*
D03*
X187465Y489786D02*
D03*
X190786Y1010214D02*
D03*
X183715Y1017286D02*
D03*
X154465Y1015035D02*
D03*
X161535Y1007964D02*
D03*
X544786Y490714D02*
D03*
X537715Y497785D02*
D03*
X123464Y220285D02*
D03*
X130535Y213214D02*
D03*
X219293Y570715D02*
D03*
X212222Y577786D02*
D03*
D33*
X734750Y189500D02*
D03*
X717750D02*
D03*
X831000Y862250D02*
D03*
X848000D02*
D03*
X735000Y662000D02*
D03*
X718000D02*
D03*
X858750Y559250D02*
D03*
X875750D02*
D03*
X973000Y680250D02*
D03*
X956000D02*
D03*
X670360Y852650D02*
D03*
X687360Y852650D02*
D03*
X670450Y865250D02*
D03*
X687450D02*
D03*
X714860Y852650D02*
D03*
X697860D02*
D03*
X703140Y390100D02*
D03*
X686140D02*
D03*
X658640D02*
D03*
X675640D02*
D03*
X703112Y376112D02*
D03*
X686112D02*
D03*
X1209500Y900750D02*
D03*
X1192500D02*
D03*
X1201500Y912750D02*
D03*
X1184500Y912750D02*
D03*
D34*
X796000Y185500D02*
D03*
Y202500D02*
D03*
X748500Y686000D02*
D03*
Y703000D02*
D03*
X766000Y686000D02*
D03*
Y703000D02*
D03*
X975250Y624250D02*
D03*
Y607250D02*
D03*
X707836Y616750D02*
D03*
Y599750D02*
D03*
X847250Y668750D02*
D03*
X847250Y651750D02*
D03*
X956000Y692750D02*
D03*
Y709750D02*
D03*
X1724500Y558250D02*
D03*
Y541250D02*
D03*
X708000Y647250D02*
D03*
Y630250D02*
D03*
X781500Y703000D02*
D03*
Y686000D02*
D03*
X875500Y699750D02*
D03*
Y682750D02*
D03*
X1211750Y921750D02*
D03*
Y938750D02*
D03*
X1380750Y228750D02*
D03*
X1380750Y211750D02*
D03*
X1368750Y228750D02*
D03*
Y211750D02*
D03*
X1356750Y240250D02*
D03*
Y223250D02*
D03*
X719500Y630250D02*
D03*
Y647250D02*
D03*
D35*
X798500Y167000D02*
D03*
X778500D02*
D03*
X973750Y694500D02*
D03*
X993750D02*
D03*
X241369Y937681D02*
D03*
X261369D02*
D03*
X241376Y899231D02*
D03*
X261376D02*
D03*
X241102Y379310D02*
D03*
X261102D02*
D03*
X241110Y340860D02*
D03*
X261110D02*
D03*
X751000Y982250D02*
D03*
X771000D02*
D03*
X769250Y936250D02*
D03*
X749250Y936250D02*
D03*
X769250Y336750D02*
D03*
X749250D02*
D03*
X814110Y430046D02*
D03*
X794110D02*
D03*
X781750Y865000D02*
D03*
X761750Y865000D02*
D03*
X683750Y330750D02*
D03*
X663750D02*
D03*
D36*
X775000Y189750D02*
D03*
Y199250D02*
D03*
Y208750D02*
D03*
X747000D02*
D03*
Y199250D02*
D03*
Y189750D02*
D03*
X1354500Y919250D02*
D03*
Y928750D02*
D03*
Y938250D02*
D03*
X1326500D02*
D03*
X1326500Y928750D02*
D03*
X1326500Y919250D02*
D03*
X651750Y957500D02*
D03*
X651750Y948000D02*
D03*
Y938500D02*
D03*
X679750D02*
D03*
Y948000D02*
D03*
Y957500D02*
D03*
D37*
X761000Y199250D02*
D03*
X1340500Y928750D02*
D03*
X665750Y948000D02*
D03*
D38*
X516204Y899866D02*
D03*
Y915066D02*
D03*
Y930266D02*
D03*
X546704Y899866D02*
D03*
Y915066D02*
D03*
Y930266D02*
D03*
X208622Y937676D02*
D03*
Y922476D02*
D03*
Y907276D02*
D03*
X178122Y937676D02*
D03*
Y922476D02*
D03*
Y907276D02*
D03*
X515541Y341450D02*
D03*
Y356650D02*
D03*
Y371850D02*
D03*
X546041Y341450D02*
D03*
Y356650D02*
D03*
Y371850D02*
D03*
X175456Y348905D02*
D03*
Y364105D02*
D03*
Y379305D02*
D03*
X205956Y348905D02*
D03*
Y364105D02*
D03*
Y379305D02*
D03*
D39*
X516713Y820680D02*
D03*
X505965Y809932D02*
D03*
X495217Y799184D02*
D03*
X495146Y842247D02*
D03*
X484398Y831499D02*
D03*
X473650Y820751D02*
D03*
X516906Y261850D02*
D03*
X506158Y251102D02*
D03*
X495410Y240354D02*
D03*
X495339Y283417D02*
D03*
X484591Y272669D02*
D03*
X473843Y261921D02*
D03*
D40*
X521874Y947096D02*
D03*
X515450Y960872D02*
D03*
X509026Y974648D02*
D03*
X549516Y959986D02*
D03*
X543093Y973762D02*
D03*
X536669Y987537D02*
D03*
X523116Y389422D02*
D03*
X516692Y403198D02*
D03*
X510268Y416974D02*
D03*
X550758Y402312D02*
D03*
X544334Y416088D02*
D03*
X537910Y429864D02*
D03*
D41*
X326060Y767227D02*
D03*
X310860D02*
D03*
X295660D02*
D03*
X326060Y797727D02*
D03*
X310860D02*
D03*
X295660D02*
D03*
X431945Y217719D02*
D03*
X416745D02*
D03*
X401545D02*
D03*
X431945Y248219D02*
D03*
X416745D02*
D03*
X401545D02*
D03*
X295252Y241960D02*
D03*
X310452D02*
D03*
X325652D02*
D03*
X295252Y211460D02*
D03*
X310452D02*
D03*
X325652D02*
D03*
X432212Y774500D02*
D03*
X417012D02*
D03*
X401812D02*
D03*
X432212Y805000D02*
D03*
X417012D02*
D03*
X401812D02*
D03*
D42*
X851000Y911500D02*
D03*
Y971500D02*
D03*
X811000D02*
D03*
Y911500D02*
D03*
X1708950Y455000D02*
D03*
X1708000Y933550D02*
D03*
X1658500Y933550D02*
D03*
D43*
X735875Y1044750D02*
D03*
X735875Y1083750D02*
D03*
X748625Y1044750D02*
D03*
Y1083750D02*
D03*
X761375Y1044750D02*
D03*
X761375Y1083750D02*
D03*
X774125Y1044750D02*
D03*
X774125Y1083750D02*
D03*
X786875Y1044750D02*
D03*
X786875Y1083750D02*
D03*
X799625D02*
D03*
X799625Y1044750D02*
D03*
X812375Y1083750D02*
D03*
X812375Y1044750D02*
D03*
X825125Y1083750D02*
D03*
X825125Y1044750D02*
D03*
X837875Y1083750D02*
D03*
X837875Y1044750D02*
D03*
X850625Y1083750D02*
D03*
X850625Y1044750D02*
D03*
D44*
X614250Y259625D02*
D03*
Y299625D02*
D03*
Y396000D02*
D03*
Y436000D02*
D03*
X81000Y532375D02*
D03*
Y572375D02*
D03*
X614250Y532375D02*
D03*
Y572375D02*
D03*
X81000Y396000D02*
D03*
Y436000D02*
D03*
Y259625D02*
D03*
Y299625D02*
D03*
X614250Y707625D02*
D03*
Y667625D02*
D03*
Y844000D02*
D03*
Y804000D02*
D03*
Y980375D02*
D03*
Y940375D02*
D03*
X138750Y940375D02*
D03*
Y980375D02*
D03*
X81000Y667625D02*
D03*
Y707625D02*
D03*
Y804000D02*
D03*
Y844000D02*
D03*
D45*
X614250Y279625D02*
D03*
Y416000D02*
D03*
X81000Y552375D02*
D03*
X614250Y552375D02*
D03*
X81000Y416000D02*
D03*
Y279625D02*
D03*
X614250Y687625D02*
D03*
Y824000D02*
D03*
Y960375D02*
D03*
X138750Y960375D02*
D03*
X81000Y687625D02*
D03*
Y824000D02*
D03*
D46*
X368000Y1090250D02*
D03*
X328000D02*
D03*
X504375Y149750D02*
D03*
X464375D02*
D03*
X231625D02*
D03*
X191625D02*
D03*
X368000D02*
D03*
X328000D02*
D03*
X464375Y1090250D02*
D03*
X504375D02*
D03*
X231625D02*
D03*
X191625D02*
D03*
D47*
X348000D02*
D03*
X484375Y149750D02*
D03*
X211625D02*
D03*
X348000D02*
D03*
X484375Y1090250D02*
D03*
X211625D02*
D03*
D48*
X474628Y1000233D02*
D03*
X483608Y991253D02*
D03*
X492588Y982272D02*
D03*
X515074Y1004758D02*
D03*
X506094Y1013738D02*
D03*
X497114Y1022719D02*
D03*
X224489Y807883D02*
D03*
X215509Y816864D02*
D03*
X206529Y825844D02*
D03*
X184043Y803358D02*
D03*
X193023Y794378D02*
D03*
X202003Y785397D02*
D03*
X496847Y464348D02*
D03*
X505827Y455368D02*
D03*
X514808Y446387D02*
D03*
X492322Y423901D02*
D03*
X483341Y432882D02*
D03*
X474361Y441862D02*
D03*
X201737Y227027D02*
D03*
X192756Y236007D02*
D03*
X183776Y244987D02*
D03*
X206262Y267473D02*
D03*
X215242Y258493D02*
D03*
X224223Y249513D02*
D03*
D49*
X1065450Y229500D02*
D03*
X1078150D02*
D03*
X1090850D02*
D03*
X1103550D02*
D03*
X1065450Y301500D02*
D03*
X1078150D02*
D03*
X1090850D02*
D03*
X1103550D02*
D03*
X986950Y948000D02*
D03*
X974250D02*
D03*
X961550D02*
D03*
X948850D02*
D03*
X986950Y900000D02*
D03*
X974250D02*
D03*
X961550D02*
D03*
X948850D02*
D03*
D50*
X-61501Y1173751D02*
D03*
X1962251D02*
D03*
X-61501Y-57000D02*
D03*
X413500Y454750D02*
D03*
X413767Y1013121D02*
D03*
X1324000Y786250D02*
D03*
X1009500Y453500D02*
D03*
X827500Y620000D02*
D03*
X1634500Y554500D02*
D03*
X1962251Y-57000D02*
D03*
X1870790Y667750D02*
D03*
X1870790Y569750D02*
D03*
X943500Y211000D02*
D03*
D51*
X885750Y1054500D02*
D03*
Y1088500D02*
D03*
X251250Y595250D02*
D03*
Y561250D02*
D03*
X301500Y672250D02*
D03*
X301500Y638250D02*
D03*
X578164Y854566D02*
D03*
Y888566D02*
D03*
X497250Y722000D02*
D03*
Y756000D02*
D03*
X577750Y1006500D02*
D03*
Y972500D02*
D03*
X497500Y164250D02*
D03*
Y198250D02*
D03*
X576000Y464500D02*
D03*
X576000Y430500D02*
D03*
X135500Y395250D02*
D03*
Y361250D02*
D03*
X577500Y355250D02*
D03*
Y389250D02*
D03*
X251250Y638250D02*
D03*
Y672250D02*
D03*
X698000Y1054500D02*
D03*
Y1088500D02*
D03*
X648500Y1054500D02*
D03*
Y1088500D02*
D03*
X559500Y209750D02*
D03*
Y175750D02*
D03*
X170500Y993500D02*
D03*
Y959500D02*
D03*
X132500Y479250D02*
D03*
Y445250D02*
D03*
X582055Y1042883D02*
D03*
Y1076883D02*
D03*
X136500Y254250D02*
D03*
Y288250D02*
D03*
X301500Y561250D02*
D03*
Y595250D02*
D03*
D52*
X902750Y1071500D02*
D03*
X868750D02*
D03*
X234250Y578250D02*
D03*
X268250D02*
D03*
X284500Y655250D02*
D03*
X318500Y655250D02*
D03*
X595164Y871565D02*
D03*
X561164D02*
D03*
X514250Y739000D02*
D03*
X480250D02*
D03*
X560750Y989500D02*
D03*
X594750D02*
D03*
X514500Y181250D02*
D03*
X480500D02*
D03*
X559000Y447500D02*
D03*
X593000Y447500D02*
D03*
X118500Y378250D02*
D03*
X152500D02*
D03*
X594500Y372250D02*
D03*
X560500D02*
D03*
X268250Y655250D02*
D03*
X234250D02*
D03*
X715000Y1071500D02*
D03*
X681000D02*
D03*
X665500Y1071500D02*
D03*
X631500D02*
D03*
X542500Y192750D02*
D03*
X576500D02*
D03*
X153500Y976500D02*
D03*
X187500D02*
D03*
X115500Y462250D02*
D03*
X149500D02*
D03*
X599055Y1059883D02*
D03*
X565055D02*
D03*
X153500Y271250D02*
D03*
X119500D02*
D03*
X318500Y578250D02*
D03*
X284500D02*
D03*
D53*
X885750Y1087500D02*
D03*
Y1055500D02*
D03*
X251250Y562250D02*
D03*
Y594250D02*
D03*
X301500Y639250D02*
D03*
Y671250D02*
D03*
X578164Y887566D02*
D03*
Y855565D02*
D03*
X497250Y755000D02*
D03*
Y723000D02*
D03*
X577750Y973500D02*
D03*
Y1005500D02*
D03*
X497500Y197250D02*
D03*
Y165250D02*
D03*
X576000Y431500D02*
D03*
Y463500D02*
D03*
X135500Y362250D02*
D03*
Y394250D02*
D03*
X577500Y388250D02*
D03*
Y356250D02*
D03*
X251250Y671250D02*
D03*
Y639250D02*
D03*
X698000Y1087500D02*
D03*
Y1055500D02*
D03*
X648500Y1087500D02*
D03*
Y1055500D02*
D03*
X559500Y176750D02*
D03*
Y208750D02*
D03*
X170500Y960500D02*
D03*
Y992500D02*
D03*
X132500Y446250D02*
D03*
Y478250D02*
D03*
X582055Y1075883D02*
D03*
Y1043883D02*
D03*
X136500Y287250D02*
D03*
Y255250D02*
D03*
X301500Y594250D02*
D03*
Y562250D02*
D03*
D54*
X871750Y1071500D02*
D03*
X899750D02*
D03*
X265250Y578250D02*
D03*
X237250D02*
D03*
X315500Y655250D02*
D03*
X287500Y655250D02*
D03*
X564164Y871565D02*
D03*
X592164D02*
D03*
X483250Y739000D02*
D03*
X511250D02*
D03*
X591750Y989500D02*
D03*
X563750D02*
D03*
X483500Y181250D02*
D03*
X511500D02*
D03*
X590000Y447500D02*
D03*
X562000D02*
D03*
X149500Y378250D02*
D03*
X121500D02*
D03*
X563500Y372250D02*
D03*
X591500D02*
D03*
X237250Y655250D02*
D03*
X265250D02*
D03*
X684000Y1071500D02*
D03*
X712000D02*
D03*
X634500Y1071500D02*
D03*
X662500D02*
D03*
X573500Y192750D02*
D03*
X545500D02*
D03*
X184500Y976500D02*
D03*
X156500D02*
D03*
X146500Y462250D02*
D03*
X118500D02*
D03*
X568055Y1059883D02*
D03*
X596055D02*
D03*
X122500Y271250D02*
D03*
X150500D02*
D03*
X287500Y578250D02*
D03*
X315500D02*
D03*
D55*
X950000Y1005500D02*
D03*
D56*
X987000Y1005500D02*
D03*
X968500Y1005500D02*
D03*
X1005500D02*
D03*
X1024000D02*
D03*
X1005500Y1079500D02*
D03*
X987000Y1079500D02*
D03*
X968500D02*
D03*
X950000Y1079500D02*
D03*
D57*
X1024000Y1024000D02*
D03*
Y1042500D02*
D03*
Y1061000D02*
D03*
Y1079500D02*
D03*
X950000Y1061000D02*
D03*
Y1042500D02*
D03*
Y1024000D02*
D03*
D58*
X1045750Y928750D02*
D03*
X1055250Y905750D02*
D03*
X1036250D02*
D03*
X1105250Y929750D02*
D03*
X1114750Y906750D02*
D03*
X1095750D02*
D03*
X576000Y109500D02*
D03*
X566500Y132500D02*
D03*
X585500D02*
D03*
X516500Y109500D02*
D03*
X507000Y132500D02*
D03*
X526000D02*
D03*
D59*
X1036500Y310700D02*
D03*
Y298000D02*
D03*
X1036500Y285300D02*
D03*
X1036500Y272600D02*
D03*
Y259900D02*
D03*
X1036500Y247200D02*
D03*
X1036500Y234500D02*
D03*
X1133500Y310700D02*
D03*
Y298000D02*
D03*
X1133500Y285300D02*
D03*
X1133500Y272600D02*
D03*
Y259900D02*
D03*
X1133500Y247200D02*
D03*
X1133500Y234500D02*
D03*
X1036500Y221800D02*
D03*
X1133500D02*
D03*
D60*
X543482Y864058D02*
D03*
X538622Y852325D02*
D03*
X533762Y840591D02*
D03*
X504383Y852760D02*
D03*
X509243Y864494D02*
D03*
X514103Y876227D02*
D03*
X543216Y305687D02*
D03*
X538355Y293954D02*
D03*
X533495Y282220D02*
D03*
X504116Y294390D02*
D03*
X508976Y306123D02*
D03*
X513836Y317856D02*
D03*
D61*
X201161Y1016855D02*
D03*
X210142Y1025835D02*
D03*
X219122Y1034816D02*
D03*
X241608Y1012330D02*
D03*
X232628Y1003350D02*
D03*
X223647Y994369D02*
D03*
X195895Y463484D02*
D03*
X204875Y472465D02*
D03*
X213855Y481445D02*
D03*
X236341Y458959D02*
D03*
X227361Y449979D02*
D03*
X218381Y440998D02*
D03*
D62*
X1512650Y985750D02*
D03*
X1499950D02*
D03*
X1487250D02*
D03*
X1474550D02*
D03*
Y922750D02*
D03*
X1487250D02*
D03*
X1499950D02*
D03*
X1512650D02*
D03*
D63*
X1798750Y522000D02*
D03*
X1832750D02*
D03*
D64*
X1587000Y737500D02*
D03*
Y752500D02*
D03*
X1575000Y737500D02*
D03*
Y752500D02*
D03*
X1587000Y702500D02*
D03*
Y717500D02*
D03*
X1575000Y702500D02*
D03*
Y717500D02*
D03*
X1587000Y652500D02*
D03*
Y667500D02*
D03*
X1575000Y652500D02*
D03*
Y667500D02*
D03*
X1588000Y602500D02*
D03*
Y617500D02*
D03*
X1576000Y602500D02*
D03*
Y617500D02*
D03*
X1588000Y567500D02*
D03*
Y582500D02*
D03*
X1576000Y567500D02*
D03*
Y582500D02*
D03*
X1588000Y497500D02*
D03*
Y512500D02*
D03*
X1576000Y497500D02*
D03*
Y512500D02*
D03*
X1588000Y532500D02*
D03*
Y547500D02*
D03*
X1576000Y532500D02*
D03*
Y547500D02*
D03*
D65*
X1587000Y742500D02*
D03*
X1587000Y747500D02*
D03*
X1575000Y742500D02*
D03*
Y747500D02*
D03*
X1587000Y707500D02*
D03*
X1587000Y712500D02*
D03*
X1575000Y707500D02*
D03*
Y712500D02*
D03*
X1587000Y657500D02*
D03*
X1587000Y662500D02*
D03*
X1575000Y657500D02*
D03*
Y662500D02*
D03*
X1588000Y607500D02*
D03*
X1588000Y612500D02*
D03*
X1576000Y607500D02*
D03*
Y612500D02*
D03*
X1588000Y572500D02*
D03*
X1588000Y577500D02*
D03*
X1576000Y572500D02*
D03*
Y577500D02*
D03*
X1588000Y502500D02*
D03*
X1588000Y507500D02*
D03*
X1576000Y502500D02*
D03*
Y507500D02*
D03*
X1588000Y537500D02*
D03*
X1588000Y542500D02*
D03*
X1576000Y537500D02*
D03*
Y542500D02*
D03*
D66*
X586500Y35000D02*
D03*
X616500D02*
D03*
X626500D02*
D03*
X606500D02*
D03*
X646500D02*
D03*
X596500D02*
D03*
X556500D02*
D03*
X546500D02*
D03*
X516500D02*
D03*
X496500D02*
D03*
X486500D02*
D03*
X526500D02*
D03*
X476500D02*
D03*
X506500D02*
D03*
X536500D02*
D03*
X466500Y35000D02*
D03*
X456500Y35000D02*
D03*
X786500D02*
D03*
X676500D02*
D03*
X666500D02*
D03*
X656500D02*
D03*
X696500D02*
D03*
X766500D02*
D03*
X746500Y35000D02*
D03*
X726500Y35000D02*
D03*
X706500D02*
D03*
X756500D02*
D03*
X686500D02*
D03*
X716500D02*
D03*
X736500D02*
D03*
D67*
X636500Y40000D02*
D03*
X776500D02*
D03*
D68*
X469951Y890181D02*
D03*
X479190Y886354D02*
D03*
X466124Y880942D02*
D03*
X475363Y877115D02*
D03*
X469685Y331810D02*
D03*
X478923Y327983D02*
D03*
X465858Y322571D02*
D03*
X475097Y318745D02*
D03*
D69*
X455962Y885152D02*
D03*
X459789Y894390D02*
D03*
X485064Y873097D02*
D03*
X488891Y882336D02*
D03*
X455695Y326781D02*
D03*
X459522Y336020D02*
D03*
X484797Y314726D02*
D03*
X488624Y323965D02*
D03*
D70*
X463821Y845005D02*
D03*
X470893Y852076D02*
D03*
X263407Y951357D02*
D03*
X270478Y958428D02*
D03*
X284620Y972570D02*
D03*
X277549Y965499D02*
D03*
X463807Y286382D02*
D03*
X470878Y293453D02*
D03*
X263140Y392986D02*
D03*
X270211Y400057D02*
D03*
X284354Y414199D02*
D03*
X277283Y407128D02*
D03*
D71*
X465085Y942727D02*
D03*
X474148Y946954D02*
D03*
X469311Y933664D02*
D03*
X478374Y937890D02*
D03*
X464819Y384357D02*
D03*
X473882Y388583D02*
D03*
X469045Y375294D02*
D03*
X478108Y379520D02*
D03*
X562218Y407887D02*
D03*
X571282Y412113D02*
D03*
D72*
X459795Y929227D02*
D03*
X455569Y938290D02*
D03*
X459529Y370856D02*
D03*
X455302Y379919D02*
D03*
D73*
X487891Y942328D02*
D03*
X483665Y951391D02*
D03*
X487624Y383957D02*
D03*
X483398Y393020D02*
D03*
D74*
X268502Y856643D02*
D03*
X261431Y863714D02*
D03*
X247289Y877856D02*
D03*
X254360Y870785D02*
D03*
X268235Y298272D02*
D03*
X261164Y305344D02*
D03*
X247022Y319486D02*
D03*
X254093Y312415D02*
D03*
D75*
X238417Y970343D02*
D03*
X252560Y956201D02*
D03*
X265600Y997537D02*
D03*
X279743Y983394D02*
D03*
X238151Y411972D02*
D03*
X252293Y397830D02*
D03*
X265334Y439166D02*
D03*
X279476Y425024D02*
D03*
D76*
X249516Y831653D02*
D03*
X263658Y845796D02*
D03*
X222322Y858837D02*
D03*
X236464Y872979D02*
D03*
X249249Y273283D02*
D03*
X263391Y287425D02*
D03*
X222055Y300466D02*
D03*
X236197Y314608D02*
D03*
D77*
X1668750Y851500D02*
D03*
Y834500D02*
D03*
X1598500Y1027750D02*
D03*
Y1044750D02*
D03*
X1631250Y1044750D02*
D03*
Y1027750D02*
D03*
X1539750Y1027750D02*
D03*
Y1044750D02*
D03*
X1512000Y1027750D02*
D03*
Y1044750D02*
D03*
X1568750Y1027750D02*
D03*
Y1044750D02*
D03*
D78*
X1679000Y743000D02*
D03*
X1718000Y743000D02*
D03*
X1679000Y730250D02*
D03*
X1718000D02*
D03*
X1679000Y717500D02*
D03*
X1718000Y717500D02*
D03*
X1679000Y704750D02*
D03*
X1718000Y704750D02*
D03*
X1679000Y692000D02*
D03*
X1718000Y692000D02*
D03*
D79*
X1554500Y975857D02*
D03*
X1605500D02*
D03*
X1554500Y950429D02*
D03*
X1605500Y950429D02*
D03*
X1554500Y925000D02*
D03*
X1605500D02*
D03*
X1554500Y899571D02*
D03*
X1605500Y899572D02*
D03*
X1554500Y874143D02*
D03*
X1605500D02*
D03*
D80*
X419883Y743281D02*
D03*
X451883D02*
D03*
X261250Y744281D02*
D03*
X229250D02*
D03*
X418500Y183250D02*
D03*
X450500D02*
D03*
X261117Y183160D02*
D03*
X229117D02*
D03*
X115133Y851881D02*
D03*
X147133D02*
D03*
X591750Y745250D02*
D03*
X559750D02*
D03*
X486250Y501750D02*
D03*
X518250D02*
D03*
X110000Y735250D02*
D03*
X142000D02*
D03*
X105758Y614250D02*
D03*
X137757D02*
D03*
D81*
X435883Y729281D02*
D03*
Y757281D02*
D03*
X245250Y758281D02*
D03*
Y730281D02*
D03*
X434500Y169250D02*
D03*
Y197250D02*
D03*
X245117Y197160D02*
D03*
Y169160D02*
D03*
X131133Y837881D02*
D03*
Y865881D02*
D03*
X575750Y759250D02*
D03*
Y731250D02*
D03*
X502250Y487750D02*
D03*
Y515750D02*
D03*
X126000Y721250D02*
D03*
Y749250D02*
D03*
X121757Y600250D02*
D03*
Y628250D02*
D03*
D82*
X452883Y743281D02*
D03*
X418883D02*
D03*
X228250Y744281D02*
D03*
X262250D02*
D03*
X451500Y183250D02*
D03*
X417500D02*
D03*
X228117Y183160D02*
D03*
X262117D02*
D03*
X148133Y851881D02*
D03*
X114133D02*
D03*
X558750Y745250D02*
D03*
X592750D02*
D03*
X519250Y501750D02*
D03*
X485250D02*
D03*
X143000Y735250D02*
D03*
X109000D02*
D03*
X138757Y614250D02*
D03*
X104757D02*
D03*
D83*
X435883Y760281D02*
D03*
Y726281D02*
D03*
X245250Y727281D02*
D03*
Y761281D02*
D03*
X434500Y200250D02*
D03*
Y166250D02*
D03*
X245117Y166160D02*
D03*
Y200160D02*
D03*
X131133Y868881D02*
D03*
Y834881D02*
D03*
X575750Y728250D02*
D03*
Y762250D02*
D03*
X502250Y518750D02*
D03*
Y484750D02*
D03*
X126000Y752250D02*
D03*
Y718250D02*
D03*
X121757Y631250D02*
D03*
Y597250D02*
D03*
D84*
X1672250Y522050D02*
D03*
Y509350D02*
D03*
Y496650D02*
D03*
Y483950D02*
D03*
X1720250Y522050D02*
D03*
Y509350D02*
D03*
Y496650D02*
D03*
Y483950D02*
D03*
D85*
X1737750Y658000D02*
D03*
Y650000D02*
D03*
X1737750Y642000D02*
D03*
Y634000D02*
D03*
X1737750Y626000D02*
D03*
Y618000D02*
D03*
Y610000D02*
D03*
X1737750Y602000D02*
D03*
Y594000D02*
D03*
Y586000D02*
D03*
X1737750Y578000D02*
D03*
X1729750Y658000D02*
D03*
Y650000D02*
D03*
Y642000D02*
D03*
Y634000D02*
D03*
Y626000D02*
D03*
Y618000D02*
D03*
Y610000D02*
D03*
Y602000D02*
D03*
Y594000D02*
D03*
Y586000D02*
D03*
Y578000D02*
D03*
X1721750Y658000D02*
D03*
Y650000D02*
D03*
Y642000D02*
D03*
Y634000D02*
D03*
Y626000D02*
D03*
X1721750Y618000D02*
D03*
X1721750Y610000D02*
D03*
Y602000D02*
D03*
Y594000D02*
D03*
Y586000D02*
D03*
Y578000D02*
D03*
X1713750Y658000D02*
D03*
Y650000D02*
D03*
Y642000D02*
D03*
Y634000D02*
D03*
Y626000D02*
D03*
X1713750Y618000D02*
D03*
Y610000D02*
D03*
X1713750Y602000D02*
D03*
Y594000D02*
D03*
Y586000D02*
D03*
Y578000D02*
D03*
X1705750Y658000D02*
D03*
Y650000D02*
D03*
Y642000D02*
D03*
Y634000D02*
D03*
Y626000D02*
D03*
Y618000D02*
D03*
Y610000D02*
D03*
Y602000D02*
D03*
Y594000D02*
D03*
Y586000D02*
D03*
Y578000D02*
D03*
X1697750Y658000D02*
D03*
Y650000D02*
D03*
Y642000D02*
D03*
Y634000D02*
D03*
Y626000D02*
D03*
Y618000D02*
D03*
Y610000D02*
D03*
Y602000D02*
D03*
Y594000D02*
D03*
Y586000D02*
D03*
Y578000D02*
D03*
X1689750Y658000D02*
D03*
Y650000D02*
D03*
X1689750Y642000D02*
D03*
X1689750Y634000D02*
D03*
Y626000D02*
D03*
Y618000D02*
D03*
Y610000D02*
D03*
Y602000D02*
D03*
X1689750Y594000D02*
D03*
Y586000D02*
D03*
X1689750Y578000D02*
D03*
X1681750Y658000D02*
D03*
Y650000D02*
D03*
Y642000D02*
D03*
Y634000D02*
D03*
Y626000D02*
D03*
X1681750Y618000D02*
D03*
Y610000D02*
D03*
X1681750Y602000D02*
D03*
Y594000D02*
D03*
Y586000D02*
D03*
Y578000D02*
D03*
X1673750Y658000D02*
D03*
Y650000D02*
D03*
Y642000D02*
D03*
Y634000D02*
D03*
Y626000D02*
D03*
X1673750Y618000D02*
D03*
X1673750Y610000D02*
D03*
Y602000D02*
D03*
Y594000D02*
D03*
Y586000D02*
D03*
Y578000D02*
D03*
X1665750Y658000D02*
D03*
Y650000D02*
D03*
Y642000D02*
D03*
Y634000D02*
D03*
Y626000D02*
D03*
X1665750Y618000D02*
D03*
X1665750Y610000D02*
D03*
Y602000D02*
D03*
Y594000D02*
D03*
Y586000D02*
D03*
Y578000D02*
D03*
X1657750Y658000D02*
D03*
Y650000D02*
D03*
X1657750Y642000D02*
D03*
Y634000D02*
D03*
X1657750Y626000D02*
D03*
Y618000D02*
D03*
Y610000D02*
D03*
X1657750Y602000D02*
D03*
Y594000D02*
D03*
Y586000D02*
D03*
X1657750Y578000D02*
D03*
X418740Y341850D02*
D03*
X415410Y338520D02*
D03*
X412080Y335190D02*
D03*
X408750Y331860D02*
D03*
X405420Y328530D02*
D03*
X402090Y325200D02*
D03*
X398760Y328530D02*
D03*
X402090Y331860D02*
D03*
X408750Y338520D02*
D03*
X405420Y335190D02*
D03*
X415410Y345180D02*
D03*
X412080Y341850D02*
D03*
X408750Y345180D02*
D03*
X412080Y348510D02*
D03*
X402090Y338520D02*
D03*
X405420Y341850D02*
D03*
X398760Y335190D02*
D03*
X395430Y331860D02*
D03*
X405420Y348510D02*
D03*
X408750Y351840D02*
D03*
X402090Y345180D02*
D03*
X392100Y335190D02*
D03*
X395430Y338520D02*
D03*
X415410Y358500D02*
D03*
X412080Y355170D02*
D03*
X418740D02*
D03*
X415410Y351840D02*
D03*
X385440Y328530D02*
D03*
X388770Y331860D02*
D03*
Y325200D02*
D03*
X392100Y328530D02*
D03*
X385440Y335190D02*
D03*
X382110Y331860D02*
D03*
X392100Y341850D02*
D03*
X388770Y338520D02*
D03*
X405420Y355170D02*
D03*
X402090Y351840D02*
D03*
X412080Y361830D02*
D03*
X408750Y358500D02*
D03*
X405420Y361830D02*
D03*
X408750Y365160D02*
D03*
X402090Y358500D02*
D03*
Y365160D02*
D03*
X405420Y368490D02*
D03*
X402090Y371820D02*
D03*
X375450Y325200D02*
D03*
X378780Y328530D02*
D03*
X375450Y331860D02*
D03*
X372120Y328530D02*
D03*
X385440Y341850D02*
D03*
X378780Y335190D02*
D03*
X382110Y338520D02*
D03*
X365460Y328530D02*
D03*
X362130Y325200D02*
D03*
X375450Y338520D02*
D03*
X378780Y341850D02*
D03*
X368790Y331860D02*
D03*
X372120Y335190D02*
D03*
Y341850D02*
D03*
X362130Y331860D02*
D03*
X365460Y335190D02*
D03*
X358800D02*
D03*
X355470Y331860D02*
D03*
X365460Y341850D02*
D03*
X362130Y338520D02*
D03*
X348810Y325200D02*
D03*
X352140Y328530D02*
D03*
Y335190D02*
D03*
X348810Y331860D02*
D03*
X358800Y341850D02*
D03*
X355470Y338520D02*
D03*
X345480Y328530D02*
D03*
Y335190D02*
D03*
X342150Y331860D02*
D03*
X335490Y325200D02*
D03*
X338820Y328530D02*
D03*
Y335190D02*
D03*
X335490Y331860D02*
D03*
X345480Y341850D02*
D03*
X342150Y338520D02*
D03*
X328830Y325200D02*
D03*
X332160Y328530D02*
D03*
X328830Y331860D02*
D03*
X338820Y341850D02*
D03*
X335490Y338520D02*
D03*
X322169Y331860D02*
D03*
X332160Y341850D02*
D03*
X328830Y338520D02*
D03*
X315509Y325200D02*
D03*
X318839Y328530D02*
D03*
Y335190D02*
D03*
X315509Y331860D02*
D03*
X322169Y338520D02*
D03*
X312180Y328530D02*
D03*
Y335190D02*
D03*
X318839Y341850D02*
D03*
X315509Y338520D02*
D03*
X415410Y331860D02*
D03*
X402090Y385140D02*
D03*
Y391800D02*
D03*
X405420Y388470D02*
D03*
X408750Y385140D02*
D03*
X412080Y381810D02*
D03*
X415410Y378480D02*
D03*
X405420Y395130D02*
D03*
X408750Y391800D02*
D03*
X412080Y395130D02*
D03*
X408750Y398460D02*
D03*
X415410D02*
D03*
X412080Y401790D02*
D03*
Y388470D02*
D03*
X415410Y405120D02*
D03*
X418740Y408450D02*
D03*
X415410Y411780D02*
D03*
X412080Y408450D02*
D03*
X402090Y405120D02*
D03*
X405420Y408450D02*
D03*
X408750Y411780D02*
D03*
X415410Y418440D02*
D03*
X412080Y415110D02*
D03*
X418740Y421771D02*
D03*
Y428430D02*
D03*
X412080Y421771D02*
D03*
X415410Y425101D02*
D03*
X408750Y418440D02*
D03*
X405420Y415110D02*
D03*
X402090Y411780D02*
D03*
X408750Y425101D02*
D03*
X405420Y421771D02*
D03*
X402090Y418441D02*
D03*
X412080Y435091D02*
D03*
X405420Y428430D02*
D03*
X408750Y431761D02*
D03*
X402090Y425101D02*
D03*
X398760Y421771D02*
D03*
X395430Y418441D02*
D03*
X405420Y435091D02*
D03*
X398760Y428430D02*
D03*
X402090Y431761D02*
D03*
X395430Y425101D02*
D03*
X392100Y421771D02*
D03*
X388770Y418441D02*
D03*
X392100Y428430D02*
D03*
X395430Y431761D02*
D03*
X388770Y425101D02*
D03*
X385440Y421771D02*
D03*
X382110Y418441D02*
D03*
X392100Y435091D02*
D03*
X385440Y428430D02*
D03*
X388770Y431761D02*
D03*
X382110Y425101D02*
D03*
X378780Y421771D02*
D03*
X375450Y418441D02*
D03*
X378780Y428430D02*
D03*
X382110Y431761D02*
D03*
X375450Y425101D02*
D03*
X372120Y421771D02*
D03*
X368790Y418441D02*
D03*
X378780Y435091D02*
D03*
X372120Y428430D02*
D03*
X375450Y431761D02*
D03*
X368790Y425101D02*
D03*
X365460Y421771D02*
D03*
X362130Y418441D02*
D03*
X365460Y428430D02*
D03*
X368790Y431761D02*
D03*
X362130Y425101D02*
D03*
X358800Y421771D02*
D03*
X355470Y418441D02*
D03*
X365460Y435091D02*
D03*
X358800Y428430D02*
D03*
X362130Y431761D02*
D03*
X355470Y425101D02*
D03*
X352140Y421771D02*
D03*
X352140Y428430D02*
D03*
X355470Y431761D02*
D03*
X348809Y425101D02*
D03*
X345479Y421771D02*
D03*
X352139Y435091D02*
D03*
X345479Y428430D02*
D03*
X348809Y431761D02*
D03*
X342149Y425101D02*
D03*
X338819Y421771D02*
D03*
X342149Y431761D02*
D03*
X335489Y425101D02*
D03*
X338819Y428430D02*
D03*
X332159Y421771D02*
D03*
X328829Y418441D02*
D03*
X325499Y415110D02*
D03*
X338819Y435091D02*
D03*
X332159Y428430D02*
D03*
X335489Y431761D02*
D03*
X328829Y425101D02*
D03*
X325499Y421771D02*
D03*
X322169Y418441D02*
D03*
X315509Y411780D02*
D03*
X318839Y415110D02*
D03*
Y408450D02*
D03*
X322169Y411780D02*
D03*
X315509Y418441D02*
D03*
X318839Y421771D02*
D03*
X322169Y425101D02*
D03*
X325499Y428430D02*
D03*
X315509Y425101D02*
D03*
X318839Y428430D02*
D03*
X325499Y408450D02*
D03*
Y401790D02*
D03*
Y395130D02*
D03*
Y388470D02*
D03*
Y381810D02*
D03*
Y375150D02*
D03*
Y368490D02*
D03*
Y361830D02*
D03*
Y355170D02*
D03*
Y348510D02*
D03*
Y341850D02*
D03*
Y335190D02*
D03*
Y328530D02*
D03*
X322169Y405120D02*
D03*
Y398460D02*
D03*
Y391800D02*
D03*
Y385140D02*
D03*
Y378480D02*
D03*
Y371820D02*
D03*
Y365160D02*
D03*
Y351840D02*
D03*
Y358500D02*
D03*
X318839Y348510D02*
D03*
Y355170D02*
D03*
Y361830D02*
D03*
Y368490D02*
D03*
Y375150D02*
D03*
Y381810D02*
D03*
Y388470D02*
D03*
Y395130D02*
D03*
Y401790D02*
D03*
X315509Y351840D02*
D03*
Y358500D02*
D03*
Y365160D02*
D03*
Y371820D02*
D03*
Y378480D02*
D03*
Y385140D02*
D03*
Y391800D02*
D03*
Y398460D02*
D03*
Y405120D02*
D03*
Y345180D02*
D03*
X308850Y338520D02*
D03*
X312179Y348510D02*
D03*
Y395130D02*
D03*
Y388470D02*
D03*
Y381810D02*
D03*
Y375150D02*
D03*
Y368490D02*
D03*
Y361830D02*
D03*
Y355170D02*
D03*
X308849Y345180D02*
D03*
Y351840D02*
D03*
Y365160D02*
D03*
Y378480D02*
D03*
Y391800D02*
D03*
X419007Y900221D02*
D03*
X415677Y896891D02*
D03*
X412347Y893561D02*
D03*
X409017Y890231D02*
D03*
X405687Y886901D02*
D03*
X402357Y883571D02*
D03*
X399027Y886901D02*
D03*
X402357Y890231D02*
D03*
X409017Y896891D02*
D03*
X405687Y893561D02*
D03*
X415677Y903551D02*
D03*
X412347Y900221D02*
D03*
X409017Y903551D02*
D03*
X412347Y906881D02*
D03*
X402357Y896891D02*
D03*
X405687Y900221D02*
D03*
X399027Y893561D02*
D03*
X395697Y890231D02*
D03*
X405687Y906881D02*
D03*
X409017Y910211D02*
D03*
X402357Y903551D02*
D03*
X392367Y893561D02*
D03*
X395697Y896891D02*
D03*
X415677Y916871D02*
D03*
X412347Y913541D02*
D03*
X419007D02*
D03*
X415677Y910211D02*
D03*
X385707Y886901D02*
D03*
X389037Y890231D02*
D03*
Y883571D02*
D03*
X392367Y886901D02*
D03*
X385707Y893561D02*
D03*
X382377Y890231D02*
D03*
X392367Y900221D02*
D03*
X389037Y896891D02*
D03*
X405687Y913541D02*
D03*
X402357Y910211D02*
D03*
X412347Y920201D02*
D03*
X409017Y916871D02*
D03*
X405687Y920201D02*
D03*
X409017Y923531D02*
D03*
X402357Y916871D02*
D03*
Y923531D02*
D03*
X405687Y926861D02*
D03*
X402357Y930191D02*
D03*
X375717Y883571D02*
D03*
X379047Y886901D02*
D03*
X375717Y890231D02*
D03*
X372387Y886901D02*
D03*
X385707Y900221D02*
D03*
X379047Y893561D02*
D03*
X382377Y896891D02*
D03*
X365727Y886901D02*
D03*
X362397Y883571D02*
D03*
X375717Y896891D02*
D03*
X379047Y900221D02*
D03*
X369057Y890231D02*
D03*
X372387Y893561D02*
D03*
Y900221D02*
D03*
X362397Y890231D02*
D03*
X365727Y893561D02*
D03*
X359066D02*
D03*
X355736Y890231D02*
D03*
X365727Y900221D02*
D03*
X362397Y896891D02*
D03*
X349076Y883571D02*
D03*
X352406Y886901D02*
D03*
Y893561D02*
D03*
X349076Y890231D02*
D03*
X359066Y900221D02*
D03*
X355736Y896891D02*
D03*
X345746Y886901D02*
D03*
Y893561D02*
D03*
X342416Y890231D02*
D03*
X335756Y883571D02*
D03*
X339086Y886901D02*
D03*
Y893561D02*
D03*
X335756Y890231D02*
D03*
X345746Y900221D02*
D03*
X342416Y896891D02*
D03*
X329096Y883571D02*
D03*
X332426Y886901D02*
D03*
X329096Y890231D02*
D03*
X339086Y900221D02*
D03*
X335756Y896891D02*
D03*
X322436Y890231D02*
D03*
X332426Y900221D02*
D03*
X329096Y896891D02*
D03*
X315776Y883571D02*
D03*
X319106Y886901D02*
D03*
Y893561D02*
D03*
X315776Y890231D02*
D03*
X322436Y896891D02*
D03*
X312446Y886901D02*
D03*
Y893561D02*
D03*
X319106Y900221D02*
D03*
X315776Y896891D02*
D03*
X415677Y890231D02*
D03*
X402357Y943511D02*
D03*
Y950171D02*
D03*
X405687Y946841D02*
D03*
X409017Y943511D02*
D03*
X412347Y940181D02*
D03*
X415677Y936851D02*
D03*
X405687Y953501D02*
D03*
X409017Y950171D02*
D03*
X412347Y953501D02*
D03*
X409017Y956831D02*
D03*
X415677D02*
D03*
X412347Y960161D02*
D03*
Y946841D02*
D03*
X415677Y963491D02*
D03*
X419007Y966821D02*
D03*
X415677Y970151D02*
D03*
X412347Y966821D02*
D03*
X402357Y963491D02*
D03*
X405687Y966821D02*
D03*
X409017Y970151D02*
D03*
X415677Y976811D02*
D03*
X412347Y973481D02*
D03*
X419007Y980141D02*
D03*
Y986801D02*
D03*
X412347Y980141D02*
D03*
X415677Y983471D02*
D03*
X409017Y976811D02*
D03*
X405687Y973481D02*
D03*
X402357Y970151D02*
D03*
X409017Y983471D02*
D03*
X405687Y980141D02*
D03*
X402357Y976811D02*
D03*
X412347Y993461D02*
D03*
X405687Y986801D02*
D03*
X409017Y990131D02*
D03*
X402357Y983471D02*
D03*
X399027Y980141D02*
D03*
X395697Y976811D02*
D03*
X405687Y993461D02*
D03*
X399027Y986801D02*
D03*
X402357Y990131D02*
D03*
X395696Y983471D02*
D03*
X392367Y980141D02*
D03*
X389036Y976811D02*
D03*
X392366Y986801D02*
D03*
X395696Y990131D02*
D03*
X389036Y983471D02*
D03*
X385706Y980141D02*
D03*
X382377Y976811D02*
D03*
X392366Y993461D02*
D03*
X385706Y986801D02*
D03*
X389036Y990131D02*
D03*
X382376Y983471D02*
D03*
X379046Y980141D02*
D03*
X375716Y976811D02*
D03*
X379046Y986801D02*
D03*
X382376Y990131D02*
D03*
X375716Y983471D02*
D03*
X372386Y980141D02*
D03*
X369056Y976811D02*
D03*
X379046Y993461D02*
D03*
X372386Y986801D02*
D03*
X375716Y990131D02*
D03*
X369056Y983471D02*
D03*
X365726Y980141D02*
D03*
X362396Y976811D02*
D03*
X365726Y986801D02*
D03*
X369056Y990131D02*
D03*
X362396Y983471D02*
D03*
X359066Y980141D02*
D03*
X355736Y976811D02*
D03*
X365726Y993461D02*
D03*
X359066Y986801D02*
D03*
X362396Y990131D02*
D03*
X355736Y983471D02*
D03*
X352406Y980141D02*
D03*
X352406Y986801D02*
D03*
X355736Y990131D02*
D03*
X349076Y983471D02*
D03*
X345746Y980141D02*
D03*
X352406Y993461D02*
D03*
X345746Y986801D02*
D03*
X349076Y990131D02*
D03*
X342416Y983471D02*
D03*
X339086Y980141D02*
D03*
X342416Y990131D02*
D03*
X335756Y983471D02*
D03*
X339086Y986801D02*
D03*
X332426Y980141D02*
D03*
X329096Y976811D02*
D03*
X325766Y973481D02*
D03*
X339086Y993461D02*
D03*
X332426Y986801D02*
D03*
X335756Y990131D02*
D03*
X329096Y983471D02*
D03*
X325766Y980141D02*
D03*
X322436Y976811D02*
D03*
X315776Y970151D02*
D03*
X319106Y973481D02*
D03*
Y966821D02*
D03*
X322436Y970151D02*
D03*
X315776Y976811D02*
D03*
X319106Y980141D02*
D03*
X322436Y983471D02*
D03*
X325766Y986801D02*
D03*
X315776Y983471D02*
D03*
X319106Y986801D02*
D03*
X325766Y966821D02*
D03*
Y960161D02*
D03*
Y953501D02*
D03*
Y946841D02*
D03*
Y940181D02*
D03*
Y933521D02*
D03*
Y926861D02*
D03*
Y920201D02*
D03*
Y913541D02*
D03*
Y906881D02*
D03*
Y900221D02*
D03*
Y893561D02*
D03*
Y886901D02*
D03*
X322436Y963491D02*
D03*
Y956831D02*
D03*
Y950171D02*
D03*
Y943511D02*
D03*
Y936851D02*
D03*
Y930191D02*
D03*
Y923531D02*
D03*
Y910211D02*
D03*
Y916871D02*
D03*
X319106Y906881D02*
D03*
Y913541D02*
D03*
Y920201D02*
D03*
Y926861D02*
D03*
Y933521D02*
D03*
Y940181D02*
D03*
Y946841D02*
D03*
Y953501D02*
D03*
Y960161D02*
D03*
X315776Y910211D02*
D03*
Y916871D02*
D03*
Y923531D02*
D03*
Y930191D02*
D03*
Y936851D02*
D03*
Y943511D02*
D03*
Y950171D02*
D03*
Y956831D02*
D03*
Y963491D02*
D03*
Y903551D02*
D03*
X309116Y896891D02*
D03*
X312446Y906881D02*
D03*
Y953501D02*
D03*
Y946841D02*
D03*
Y940181D02*
D03*
Y933521D02*
D03*
Y926861D02*
D03*
Y920201D02*
D03*
Y913541D02*
D03*
X309116Y903551D02*
D03*
Y910211D02*
D03*
Y923531D02*
D03*
Y936851D02*
D03*
Y950171D02*
D03*
D86*
X1819000Y649000D02*
D03*
Y654000D02*
D03*
Y664000D02*
D03*
Y669000D02*
D03*
X1810260Y669000D02*
D03*
Y664000D02*
D03*
Y654000D02*
D03*
Y649000D02*
D03*
D87*
X1819000Y659000D02*
D03*
X1810260D02*
D03*
D88*
X890750Y708500D02*
D03*
X895750D02*
D03*
X900750D02*
D03*
X905750D02*
D03*
X910750D02*
D03*
X915750D02*
D03*
X920750D02*
D03*
X925750D02*
D03*
X930750D02*
D03*
X935750D02*
D03*
X940750D02*
D03*
X945750D02*
D03*
Y789000D02*
D03*
X940750D02*
D03*
X935750D02*
D03*
X930750D02*
D03*
X925750D02*
D03*
X920750D02*
D03*
X915750D02*
D03*
X910750D02*
D03*
X905750D02*
D03*
X900750D02*
D03*
X895750D02*
D03*
X890750D02*
D03*
X891500Y538000D02*
D03*
X896500D02*
D03*
X901500D02*
D03*
X906500D02*
D03*
X911500D02*
D03*
X916500D02*
D03*
X921500D02*
D03*
X926500D02*
D03*
X931500D02*
D03*
X936500D02*
D03*
X941500D02*
D03*
X946500D02*
D03*
Y457500D02*
D03*
X941500D02*
D03*
X936500D02*
D03*
X931500D02*
D03*
X926500D02*
D03*
X921500D02*
D03*
X916500D02*
D03*
X911500D02*
D03*
X906500D02*
D03*
X901500D02*
D03*
X896500D02*
D03*
X891500D02*
D03*
D89*
X958500Y721250D02*
D03*
Y726250D02*
D03*
Y731250D02*
D03*
Y736250D02*
D03*
Y741250D02*
D03*
Y746250D02*
D03*
Y751250D02*
D03*
Y756250D02*
D03*
Y761250D02*
D03*
Y766250D02*
D03*
Y771250D02*
D03*
Y776250D02*
D03*
X878000D02*
D03*
Y771250D02*
D03*
Y766250D02*
D03*
Y761250D02*
D03*
Y756250D02*
D03*
Y751250D02*
D03*
Y746250D02*
D03*
Y741250D02*
D03*
Y736250D02*
D03*
Y731250D02*
D03*
Y726250D02*
D03*
Y721250D02*
D03*
X878750Y470250D02*
D03*
Y475250D02*
D03*
Y480250D02*
D03*
Y485250D02*
D03*
Y490250D02*
D03*
Y495250D02*
D03*
Y500250D02*
D03*
Y505250D02*
D03*
Y510250D02*
D03*
Y515250D02*
D03*
Y520250D02*
D03*
Y525250D02*
D03*
X959250D02*
D03*
Y520250D02*
D03*
Y515250D02*
D03*
Y510250D02*
D03*
Y505250D02*
D03*
Y500250D02*
D03*
Y495250D02*
D03*
Y490250D02*
D03*
Y485250D02*
D03*
Y480250D02*
D03*
Y475250D02*
D03*
Y470250D02*
D03*
D90*
X878000Y575500D02*
D03*
X883000D02*
D03*
X888000D02*
D03*
X893000D02*
D03*
X898000D02*
D03*
X903000D02*
D03*
X908000D02*
D03*
X913000D02*
D03*
X918000D02*
D03*
X923000D02*
D03*
X928000D02*
D03*
X933000D02*
D03*
X938000D02*
D03*
X943000D02*
D03*
X948000D02*
D03*
X953000D02*
D03*
Y664500D02*
D03*
X948000D02*
D03*
X943000D02*
D03*
X938000D02*
D03*
X933000D02*
D03*
X928000D02*
D03*
X923000D02*
D03*
X918000D02*
D03*
X913000D02*
D03*
X908000D02*
D03*
X903000D02*
D03*
X898000D02*
D03*
X893000D02*
D03*
X888000D02*
D03*
X883000D02*
D03*
X878000D02*
D03*
D91*
X960000Y582500D02*
D03*
Y587500D02*
D03*
Y592500D02*
D03*
Y597500D02*
D03*
Y602500D02*
D03*
Y607500D02*
D03*
Y612500D02*
D03*
Y617500D02*
D03*
Y622500D02*
D03*
Y627500D02*
D03*
Y632500D02*
D03*
Y637500D02*
D03*
Y642500D02*
D03*
Y647500D02*
D03*
Y652500D02*
D03*
Y657500D02*
D03*
X871000D02*
D03*
Y652500D02*
D03*
Y647500D02*
D03*
Y642500D02*
D03*
Y637500D02*
D03*
Y632500D02*
D03*
Y627500D02*
D03*
Y622500D02*
D03*
Y617500D02*
D03*
Y612500D02*
D03*
Y607500D02*
D03*
Y602500D02*
D03*
Y597500D02*
D03*
Y592500D02*
D03*
Y587500D02*
D03*
Y582500D02*
D03*
D92*
X915500Y620000D02*
D03*
D93*
X1025250Y810000D02*
D03*
Y818000D02*
D03*
Y826000D02*
D03*
Y858000D02*
D03*
Y866000D02*
D03*
Y874000D02*
D03*
X1033250Y810000D02*
D03*
Y818000D02*
D03*
Y826000D02*
D03*
Y858000D02*
D03*
Y866000D02*
D03*
Y874000D02*
D03*
X1041250Y810000D02*
D03*
Y818000D02*
D03*
Y826000D02*
D03*
Y858000D02*
D03*
Y866000D02*
D03*
Y874000D02*
D03*
X1049250Y810000D02*
D03*
Y818000D02*
D03*
Y826000D02*
D03*
Y858000D02*
D03*
Y866000D02*
D03*
Y874000D02*
D03*
X1057250Y810000D02*
D03*
Y818000D02*
D03*
Y826000D02*
D03*
Y858000D02*
D03*
Y866000D02*
D03*
Y874000D02*
D03*
X1065250Y810000D02*
D03*
Y818000D02*
D03*
Y826000D02*
D03*
Y858000D02*
D03*
Y866000D02*
D03*
Y874000D02*
D03*
X1073250Y810000D02*
D03*
Y818000D02*
D03*
Y826000D02*
D03*
Y858000D02*
D03*
Y866000D02*
D03*
Y874000D02*
D03*
X1081250Y810000D02*
D03*
Y818000D02*
D03*
Y826000D02*
D03*
Y858000D02*
D03*
Y866000D02*
D03*
Y874000D02*
D03*
X1089250Y810000D02*
D03*
Y818000D02*
D03*
Y826000D02*
D03*
Y858000D02*
D03*
Y866000D02*
D03*
Y874000D02*
D03*
X1097250Y810000D02*
D03*
Y818000D02*
D03*
Y826000D02*
D03*
Y858000D02*
D03*
Y866000D02*
D03*
Y874000D02*
D03*
X1105250Y810000D02*
D03*
Y818000D02*
D03*
Y826000D02*
D03*
Y858000D02*
D03*
Y866000D02*
D03*
Y874000D02*
D03*
X1113250Y810000D02*
D03*
Y818000D02*
D03*
Y826000D02*
D03*
Y858000D02*
D03*
Y866000D02*
D03*
Y874000D02*
D03*
X1121250Y810000D02*
D03*
Y818000D02*
D03*
Y826000D02*
D03*
Y858000D02*
D03*
Y866000D02*
D03*
Y874000D02*
D03*
X1129250Y810000D02*
D03*
Y818000D02*
D03*
Y826000D02*
D03*
Y858000D02*
D03*
Y866000D02*
D03*
Y874000D02*
D03*
X1137250Y810000D02*
D03*
Y818000D02*
D03*
Y826000D02*
D03*
Y858000D02*
D03*
Y866000D02*
D03*
Y874000D02*
D03*
X1145250Y810000D02*
D03*
Y818000D02*
D03*
Y826000D02*
D03*
Y858000D02*
D03*
Y866000D02*
D03*
Y874000D02*
D03*
X1326250Y874250D02*
D03*
Y866250D02*
D03*
Y858250D02*
D03*
Y826250D02*
D03*
Y818250D02*
D03*
Y810250D02*
D03*
X1318250Y874250D02*
D03*
Y866250D02*
D03*
Y858250D02*
D03*
Y826250D02*
D03*
Y818250D02*
D03*
Y810250D02*
D03*
X1310250Y874250D02*
D03*
Y866250D02*
D03*
Y858250D02*
D03*
Y826250D02*
D03*
Y818250D02*
D03*
Y810250D02*
D03*
X1302250Y874250D02*
D03*
Y866250D02*
D03*
Y858250D02*
D03*
Y826250D02*
D03*
Y818250D02*
D03*
Y810250D02*
D03*
X1294250Y874250D02*
D03*
Y866250D02*
D03*
Y858250D02*
D03*
Y826250D02*
D03*
Y818250D02*
D03*
Y810250D02*
D03*
X1286250Y874250D02*
D03*
Y866250D02*
D03*
Y858250D02*
D03*
Y826250D02*
D03*
Y818250D02*
D03*
Y810250D02*
D03*
X1278250Y874250D02*
D03*
Y866250D02*
D03*
Y858250D02*
D03*
Y826250D02*
D03*
Y818250D02*
D03*
Y810250D02*
D03*
X1270250Y874250D02*
D03*
Y866250D02*
D03*
Y858250D02*
D03*
Y826250D02*
D03*
Y818250D02*
D03*
Y810250D02*
D03*
X1262250Y874250D02*
D03*
Y866250D02*
D03*
Y858250D02*
D03*
Y826250D02*
D03*
Y818250D02*
D03*
Y810250D02*
D03*
X1254250Y874250D02*
D03*
Y866250D02*
D03*
Y858250D02*
D03*
Y826250D02*
D03*
Y818250D02*
D03*
Y810250D02*
D03*
X1246250Y874250D02*
D03*
Y866250D02*
D03*
Y858250D02*
D03*
Y826250D02*
D03*
Y818250D02*
D03*
Y810250D02*
D03*
X1238250Y874250D02*
D03*
Y866250D02*
D03*
Y858250D02*
D03*
Y826250D02*
D03*
Y818250D02*
D03*
Y810250D02*
D03*
X1230250Y874250D02*
D03*
Y866250D02*
D03*
Y858250D02*
D03*
Y826250D02*
D03*
Y818250D02*
D03*
Y810250D02*
D03*
X1222250Y874250D02*
D03*
Y866250D02*
D03*
Y858250D02*
D03*
Y826250D02*
D03*
Y818250D02*
D03*
Y810250D02*
D03*
X1214250Y874250D02*
D03*
Y866250D02*
D03*
Y858250D02*
D03*
Y826250D02*
D03*
Y818250D02*
D03*
Y810250D02*
D03*
X1206250Y874250D02*
D03*
Y866250D02*
D03*
Y858250D02*
D03*
Y826250D02*
D03*
Y818250D02*
D03*
Y810250D02*
D03*
X1025250Y366000D02*
D03*
Y374000D02*
D03*
Y382000D02*
D03*
Y414000D02*
D03*
Y422000D02*
D03*
Y430000D02*
D03*
X1033250Y366000D02*
D03*
Y374000D02*
D03*
Y382000D02*
D03*
Y414000D02*
D03*
Y422000D02*
D03*
Y430000D02*
D03*
X1041250Y366000D02*
D03*
Y374000D02*
D03*
Y382000D02*
D03*
Y414000D02*
D03*
Y422000D02*
D03*
Y430000D02*
D03*
X1049250Y366000D02*
D03*
Y374000D02*
D03*
Y382000D02*
D03*
Y414000D02*
D03*
Y422000D02*
D03*
Y430000D02*
D03*
X1057250Y366000D02*
D03*
Y374000D02*
D03*
Y382000D02*
D03*
Y414000D02*
D03*
Y422000D02*
D03*
Y430000D02*
D03*
X1065250Y366000D02*
D03*
Y374000D02*
D03*
Y382000D02*
D03*
Y414000D02*
D03*
Y422000D02*
D03*
Y430000D02*
D03*
X1073250Y366000D02*
D03*
Y374000D02*
D03*
Y382000D02*
D03*
Y414000D02*
D03*
Y422000D02*
D03*
Y430000D02*
D03*
X1081250Y366000D02*
D03*
Y374000D02*
D03*
Y382000D02*
D03*
Y414000D02*
D03*
Y422000D02*
D03*
Y430000D02*
D03*
X1089250Y366000D02*
D03*
Y374000D02*
D03*
Y382000D02*
D03*
Y414000D02*
D03*
Y422000D02*
D03*
Y430000D02*
D03*
X1097250Y366000D02*
D03*
Y374000D02*
D03*
Y382000D02*
D03*
Y414000D02*
D03*
Y422000D02*
D03*
Y430000D02*
D03*
X1105250Y366000D02*
D03*
Y374000D02*
D03*
Y382000D02*
D03*
Y414000D02*
D03*
Y422000D02*
D03*
Y430000D02*
D03*
X1113250Y366000D02*
D03*
Y374000D02*
D03*
Y382000D02*
D03*
Y414000D02*
D03*
Y422000D02*
D03*
Y430000D02*
D03*
X1121250Y366000D02*
D03*
Y374000D02*
D03*
Y382000D02*
D03*
Y414000D02*
D03*
Y422000D02*
D03*
Y430000D02*
D03*
X1129250Y366000D02*
D03*
Y374000D02*
D03*
Y382000D02*
D03*
Y414000D02*
D03*
Y422000D02*
D03*
Y430000D02*
D03*
X1137250Y366000D02*
D03*
Y374000D02*
D03*
Y382000D02*
D03*
Y414000D02*
D03*
Y422000D02*
D03*
Y430000D02*
D03*
X1145250Y366000D02*
D03*
Y374000D02*
D03*
Y382000D02*
D03*
Y414000D02*
D03*
Y422000D02*
D03*
Y430000D02*
D03*
X1326250Y430250D02*
D03*
Y422250D02*
D03*
Y414250D02*
D03*
Y382250D02*
D03*
Y374250D02*
D03*
Y366250D02*
D03*
X1318250Y430250D02*
D03*
Y422250D02*
D03*
Y414250D02*
D03*
Y382250D02*
D03*
Y374250D02*
D03*
Y366250D02*
D03*
X1310250Y430250D02*
D03*
Y422250D02*
D03*
Y414250D02*
D03*
Y382250D02*
D03*
Y374250D02*
D03*
Y366250D02*
D03*
X1302250Y430250D02*
D03*
Y422250D02*
D03*
Y414250D02*
D03*
Y382250D02*
D03*
Y374250D02*
D03*
Y366250D02*
D03*
X1294250Y430250D02*
D03*
Y422250D02*
D03*
Y414250D02*
D03*
Y382250D02*
D03*
Y374250D02*
D03*
Y366250D02*
D03*
X1286250Y430250D02*
D03*
Y422250D02*
D03*
Y414250D02*
D03*
Y382250D02*
D03*
Y374250D02*
D03*
Y366250D02*
D03*
X1278250Y430250D02*
D03*
Y422250D02*
D03*
Y414250D02*
D03*
Y382250D02*
D03*
Y374250D02*
D03*
Y366250D02*
D03*
X1270250Y430250D02*
D03*
Y422250D02*
D03*
Y414250D02*
D03*
Y382250D02*
D03*
Y374250D02*
D03*
Y366250D02*
D03*
X1262250Y430250D02*
D03*
Y422250D02*
D03*
Y414250D02*
D03*
Y382250D02*
D03*
Y374250D02*
D03*
Y366250D02*
D03*
X1254250Y430250D02*
D03*
Y422250D02*
D03*
Y414250D02*
D03*
Y382250D02*
D03*
Y374250D02*
D03*
Y366250D02*
D03*
X1246250Y430250D02*
D03*
Y422250D02*
D03*
Y414250D02*
D03*
Y382250D02*
D03*
Y374250D02*
D03*
Y366250D02*
D03*
X1238250Y430250D02*
D03*
Y422250D02*
D03*
Y414250D02*
D03*
Y382250D02*
D03*
Y374250D02*
D03*
Y366250D02*
D03*
X1230250Y430250D02*
D03*
Y422250D02*
D03*
Y414250D02*
D03*
Y382250D02*
D03*
Y374250D02*
D03*
Y366250D02*
D03*
X1222250Y430250D02*
D03*
Y422250D02*
D03*
Y414250D02*
D03*
Y382250D02*
D03*
Y374250D02*
D03*
Y366250D02*
D03*
X1214250Y430250D02*
D03*
Y422250D02*
D03*
Y414250D02*
D03*
Y382250D02*
D03*
Y374250D02*
D03*
Y366250D02*
D03*
X1206250Y430250D02*
D03*
Y422250D02*
D03*
Y414250D02*
D03*
Y382250D02*
D03*
Y374250D02*
D03*
Y366250D02*
D03*
D94*
X1054500Y203000D02*
D03*
Y196500D02*
D03*
Y190000D02*
D03*
Y183500D02*
D03*
Y177000D02*
D03*
Y170500D02*
D03*
Y164000D02*
D03*
Y157500D02*
D03*
X1113500Y203000D02*
D03*
Y196500D02*
D03*
Y190000D02*
D03*
Y183500D02*
D03*
Y177000D02*
D03*
Y170500D02*
D03*
Y164000D02*
D03*
Y157500D02*
D03*
D95*
X1040250Y765000D02*
D03*
X1050250Y765000D02*
D03*
X1060250D02*
D03*
X1070250D02*
D03*
X1080250Y765000D02*
D03*
X1090250Y765000D02*
D03*
X1100250D02*
D03*
X1110250D02*
D03*
X1120250D02*
D03*
X1130250D02*
D03*
X1140250Y765000D02*
D03*
X1150250Y765000D02*
D03*
X1160250D02*
D03*
X1170250D02*
D03*
X1180250Y765000D02*
D03*
X1190250Y765000D02*
D03*
X1200250D02*
D03*
X1210250D02*
D03*
X1220250D02*
D03*
X1230250D02*
D03*
X1240250D02*
D03*
X1250250Y765000D02*
D03*
X1260250Y765000D02*
D03*
X1270250D02*
D03*
X1280250Y765000D02*
D03*
X1290250Y765000D02*
D03*
X1300250D02*
D03*
X1310250D02*
D03*
X1030250Y755000D02*
D03*
X1040250D02*
D03*
X1050250D02*
D03*
X1060250D02*
D03*
X1070250D02*
D03*
X1080250D02*
D03*
X1090250D02*
D03*
X1100250D02*
D03*
X1110250D02*
D03*
X1120250D02*
D03*
X1130250D02*
D03*
X1140250D02*
D03*
X1150250D02*
D03*
X1160250D02*
D03*
X1170250D02*
D03*
X1180250D02*
D03*
X1190250D02*
D03*
X1200250D02*
D03*
X1210250D02*
D03*
X1220250D02*
D03*
X1230250Y755000D02*
D03*
X1240250Y755000D02*
D03*
X1250250D02*
D03*
X1260250D02*
D03*
X1270250D02*
D03*
X1280250D02*
D03*
X1290250D02*
D03*
X1300250D02*
D03*
X1310250D02*
D03*
X1320250D02*
D03*
X1030250Y745000D02*
D03*
X1040250D02*
D03*
X1050250D02*
D03*
X1060250D02*
D03*
X1070250D02*
D03*
X1080250D02*
D03*
X1090250D02*
D03*
X1100250D02*
D03*
X1110250D02*
D03*
X1120250D02*
D03*
X1130250D02*
D03*
X1140250D02*
D03*
X1150250D02*
D03*
X1160250D02*
D03*
X1170250D02*
D03*
X1180250D02*
D03*
X1190250D02*
D03*
X1200250D02*
D03*
X1210250D02*
D03*
X1220250D02*
D03*
X1230250D02*
D03*
X1240250D02*
D03*
X1250250D02*
D03*
X1260250D02*
D03*
X1270250D02*
D03*
X1280250D02*
D03*
X1290250D02*
D03*
X1300250D02*
D03*
X1310250D02*
D03*
X1320250D02*
D03*
X1030250Y735000D02*
D03*
X1040250D02*
D03*
X1050250D02*
D03*
X1060250D02*
D03*
X1070250D02*
D03*
X1080250D02*
D03*
X1090250D02*
D03*
X1100250D02*
D03*
X1110250D02*
D03*
X1120250D02*
D03*
X1130250D02*
D03*
X1140250D02*
D03*
X1150250D02*
D03*
X1160250D02*
D03*
X1170250D02*
D03*
X1180250D02*
D03*
X1190250D02*
D03*
X1200250D02*
D03*
X1210250D02*
D03*
X1220250D02*
D03*
X1230250D02*
D03*
X1240250D02*
D03*
X1250250D02*
D03*
X1260250D02*
D03*
X1270250D02*
D03*
X1280250D02*
D03*
X1290250D02*
D03*
X1300250D02*
D03*
X1310250D02*
D03*
X1320250D02*
D03*
X1030250Y725000D02*
D03*
X1040250D02*
D03*
X1050250D02*
D03*
X1060250D02*
D03*
X1070250D02*
D03*
X1080250D02*
D03*
X1090250D02*
D03*
X1100250D02*
D03*
X1110250D02*
D03*
X1120250D02*
D03*
X1130250D02*
D03*
X1140250D02*
D03*
X1150250D02*
D03*
X1160250D02*
D03*
X1170250D02*
D03*
X1180250D02*
D03*
X1190250D02*
D03*
X1200250D02*
D03*
X1210250D02*
D03*
X1220250D02*
D03*
X1230250D02*
D03*
X1240250D02*
D03*
X1250250D02*
D03*
X1260250D02*
D03*
X1270250D02*
D03*
X1280250D02*
D03*
X1290250D02*
D03*
X1300250D02*
D03*
X1310250D02*
D03*
X1320250D02*
D03*
X1030250Y715000D02*
D03*
X1040250D02*
D03*
X1050250D02*
D03*
X1060250D02*
D03*
X1070250D02*
D03*
X1080250D02*
D03*
X1090250Y715000D02*
D03*
X1100250Y715000D02*
D03*
X1110250D02*
D03*
X1120250D02*
D03*
X1130250Y715000D02*
D03*
X1140250Y715000D02*
D03*
X1150250D02*
D03*
X1160250D02*
D03*
X1170250D02*
D03*
X1180250D02*
D03*
X1190250D02*
D03*
X1200250D02*
D03*
X1210250D02*
D03*
X1220250D02*
D03*
X1230250Y715000D02*
D03*
X1240250Y715000D02*
D03*
X1250250D02*
D03*
X1260250D02*
D03*
X1270250D02*
D03*
X1280250D02*
D03*
X1290250D02*
D03*
X1300250D02*
D03*
X1310250D02*
D03*
X1320250D02*
D03*
X1030250Y705000D02*
D03*
X1040250Y705000D02*
D03*
X1050250Y705000D02*
D03*
X1060250D02*
D03*
X1070250D02*
D03*
X1080250D02*
D03*
X1090250D02*
D03*
X1100250D02*
D03*
X1110250D02*
D03*
X1120250D02*
D03*
X1130250D02*
D03*
X1140250D02*
D03*
X1150250D02*
D03*
X1160250D02*
D03*
X1170250D02*
D03*
X1180250Y705000D02*
D03*
X1190250Y705000D02*
D03*
X1200250D02*
D03*
X1210250D02*
D03*
X1220250D02*
D03*
X1230250D02*
D03*
X1240250D02*
D03*
X1250250D02*
D03*
X1260250D02*
D03*
X1270250D02*
D03*
X1280250Y705000D02*
D03*
X1290250Y705000D02*
D03*
X1300250D02*
D03*
X1310250D02*
D03*
X1320250D02*
D03*
X1030250Y695000D02*
D03*
X1040250D02*
D03*
X1050250D02*
D03*
X1060250D02*
D03*
X1070250D02*
D03*
X1080250D02*
D03*
X1090250D02*
D03*
X1100250D02*
D03*
X1110250D02*
D03*
X1120250D02*
D03*
X1130250D02*
D03*
X1140250D02*
D03*
X1150250D02*
D03*
X1160250D02*
D03*
X1170250D02*
D03*
X1180250D02*
D03*
X1190250D02*
D03*
X1200250D02*
D03*
X1210250D02*
D03*
X1220250D02*
D03*
X1230250D02*
D03*
X1240250D02*
D03*
X1250250D02*
D03*
X1260250D02*
D03*
X1270250D02*
D03*
X1280250D02*
D03*
X1290250D02*
D03*
X1300250D02*
D03*
X1310250D02*
D03*
X1320250D02*
D03*
X1030250Y685000D02*
D03*
X1040250D02*
D03*
X1050250D02*
D03*
X1060250D02*
D03*
X1070250D02*
D03*
X1080250D02*
D03*
X1090250D02*
D03*
X1100250D02*
D03*
X1110250D02*
D03*
X1120250D02*
D03*
X1130250D02*
D03*
X1140250D02*
D03*
X1150250D02*
D03*
X1160250D02*
D03*
X1170250D02*
D03*
X1180250D02*
D03*
X1190250D02*
D03*
X1200250D02*
D03*
X1210250D02*
D03*
X1220250D02*
D03*
X1230250D02*
D03*
X1240250D02*
D03*
X1250250D02*
D03*
X1260250D02*
D03*
X1270250D02*
D03*
X1280250D02*
D03*
X1290250D02*
D03*
X1300250D02*
D03*
X1310250D02*
D03*
X1320250D02*
D03*
X1030250Y675000D02*
D03*
X1040250D02*
D03*
X1050250D02*
D03*
X1060250D02*
D03*
X1070250D02*
D03*
X1080250D02*
D03*
X1090250D02*
D03*
X1100250D02*
D03*
X1110250D02*
D03*
X1120250D02*
D03*
X1130250D02*
D03*
X1140250D02*
D03*
X1150250D02*
D03*
X1160250D02*
D03*
X1170250D02*
D03*
X1180250D02*
D03*
X1190250D02*
D03*
X1200250D02*
D03*
X1210250D02*
D03*
X1220250D02*
D03*
X1230250D02*
D03*
X1240250D02*
D03*
X1250250D02*
D03*
X1260250D02*
D03*
X1270250D02*
D03*
X1280250D02*
D03*
X1290250D02*
D03*
X1300250D02*
D03*
X1310250D02*
D03*
X1320250D02*
D03*
X1030250Y665000D02*
D03*
X1040250Y665000D02*
D03*
X1050250Y665000D02*
D03*
X1060250D02*
D03*
X1070250D02*
D03*
X1080250D02*
D03*
X1090250D02*
D03*
X1100250D02*
D03*
X1110250D02*
D03*
X1120250D02*
D03*
X1130250D02*
D03*
X1140250D02*
D03*
X1150250D02*
D03*
X1160250D02*
D03*
X1170250D02*
D03*
X1180250Y665000D02*
D03*
X1190250Y665000D02*
D03*
X1200250D02*
D03*
X1210250D02*
D03*
X1220250D02*
D03*
X1230250D02*
D03*
X1240250D02*
D03*
X1250250D02*
D03*
X1260250D02*
D03*
X1270250D02*
D03*
X1280250Y665000D02*
D03*
X1290250Y665000D02*
D03*
X1300250D02*
D03*
X1310250D02*
D03*
X1320250D02*
D03*
X1030250Y655000D02*
D03*
X1040250D02*
D03*
X1050250D02*
D03*
X1060250D02*
D03*
X1070250D02*
D03*
X1080250D02*
D03*
X1090250Y655000D02*
D03*
X1100250Y655000D02*
D03*
X1110250D02*
D03*
X1120250D02*
D03*
X1130250Y655000D02*
D03*
X1140250Y655000D02*
D03*
X1150250D02*
D03*
X1160250D02*
D03*
X1170250D02*
D03*
X1180250D02*
D03*
X1190250D02*
D03*
X1200250D02*
D03*
X1210250D02*
D03*
X1220250D02*
D03*
X1230250Y655000D02*
D03*
X1240250Y655000D02*
D03*
X1250250D02*
D03*
X1260250D02*
D03*
X1270250D02*
D03*
X1280250D02*
D03*
X1290250D02*
D03*
X1300250D02*
D03*
X1310250D02*
D03*
X1320250D02*
D03*
X1030250Y645000D02*
D03*
X1040250D02*
D03*
X1050250D02*
D03*
X1060250D02*
D03*
X1070250D02*
D03*
X1080250D02*
D03*
X1090250D02*
D03*
X1100250D02*
D03*
X1110250D02*
D03*
X1120250D02*
D03*
X1130250D02*
D03*
X1140250D02*
D03*
X1150250D02*
D03*
X1160250D02*
D03*
X1170250D02*
D03*
X1180250D02*
D03*
X1190250D02*
D03*
X1200250D02*
D03*
X1210250D02*
D03*
X1220250D02*
D03*
X1230250D02*
D03*
X1240250D02*
D03*
X1250250D02*
D03*
X1260250D02*
D03*
X1270250D02*
D03*
X1280250D02*
D03*
X1290250D02*
D03*
X1300250D02*
D03*
X1310250D02*
D03*
X1320250D02*
D03*
X1030250Y635000D02*
D03*
X1040250D02*
D03*
X1050250D02*
D03*
X1060250D02*
D03*
X1070250D02*
D03*
X1080250D02*
D03*
X1090250D02*
D03*
X1100250D02*
D03*
X1110250D02*
D03*
X1120250D02*
D03*
X1130250D02*
D03*
X1140250D02*
D03*
X1150250D02*
D03*
X1160250D02*
D03*
X1170250D02*
D03*
X1180250D02*
D03*
X1190250D02*
D03*
X1200250D02*
D03*
X1210250D02*
D03*
X1220250D02*
D03*
X1230250D02*
D03*
X1240250D02*
D03*
X1250250D02*
D03*
X1260250D02*
D03*
X1270250D02*
D03*
X1280250D02*
D03*
X1290250D02*
D03*
X1300250D02*
D03*
X1310250D02*
D03*
X1320250D02*
D03*
X1030250Y625000D02*
D03*
X1040250D02*
D03*
X1050250D02*
D03*
X1060250D02*
D03*
X1070250D02*
D03*
X1080250D02*
D03*
X1090250D02*
D03*
X1100250D02*
D03*
X1110250D02*
D03*
X1120250D02*
D03*
X1130250D02*
D03*
X1140250D02*
D03*
X1150250D02*
D03*
X1160250D02*
D03*
X1170250D02*
D03*
X1180250D02*
D03*
X1190250D02*
D03*
X1200250D02*
D03*
X1210250D02*
D03*
X1220250D02*
D03*
X1230250D02*
D03*
X1240250D02*
D03*
X1250250D02*
D03*
X1260250D02*
D03*
X1270250D02*
D03*
X1280250D02*
D03*
X1290250D02*
D03*
X1300250D02*
D03*
X1310250D02*
D03*
X1320250D02*
D03*
X1030250Y615000D02*
D03*
X1040250D02*
D03*
X1050250D02*
D03*
X1060250D02*
D03*
X1070250D02*
D03*
X1080250D02*
D03*
X1090250D02*
D03*
X1100250D02*
D03*
X1110250D02*
D03*
X1120250D02*
D03*
X1130250D02*
D03*
X1140250D02*
D03*
X1150250D02*
D03*
X1160250D02*
D03*
X1170250D02*
D03*
X1180250D02*
D03*
X1190250D02*
D03*
X1200250D02*
D03*
X1210250D02*
D03*
X1220250D02*
D03*
X1230250Y615000D02*
D03*
X1240250Y615000D02*
D03*
X1250250D02*
D03*
X1260250D02*
D03*
X1270250D02*
D03*
X1280250D02*
D03*
X1290250D02*
D03*
X1300250D02*
D03*
X1310250D02*
D03*
X1320250D02*
D03*
X1030250Y605000D02*
D03*
X1040250Y605000D02*
D03*
X1050250Y605000D02*
D03*
X1060250D02*
D03*
X1070250D02*
D03*
X1080250Y605000D02*
D03*
X1090250Y605000D02*
D03*
X1100250D02*
D03*
X1110250D02*
D03*
X1120250D02*
D03*
X1130250D02*
D03*
X1140250Y605000D02*
D03*
X1150250Y605000D02*
D03*
X1160250D02*
D03*
X1170250D02*
D03*
X1180250Y605000D02*
D03*
X1190250Y605000D02*
D03*
X1200250D02*
D03*
X1210250D02*
D03*
X1220250D02*
D03*
X1230250D02*
D03*
X1240250D02*
D03*
X1250250Y605000D02*
D03*
X1260250Y605000D02*
D03*
X1270250D02*
D03*
X1280250Y605000D02*
D03*
X1290250Y605000D02*
D03*
X1300250D02*
D03*
X1310250D02*
D03*
X1320250Y605000D02*
D03*
X1030250Y595000D02*
D03*
X1040250D02*
D03*
X1050250D02*
D03*
X1060250D02*
D03*
X1070250D02*
D03*
X1080250D02*
D03*
X1090250D02*
D03*
X1100250D02*
D03*
X1110250D02*
D03*
X1120250D02*
D03*
X1130250D02*
D03*
X1140250D02*
D03*
X1150250D02*
D03*
X1160250D02*
D03*
X1170250D02*
D03*
X1180250D02*
D03*
X1190250D02*
D03*
X1200250D02*
D03*
X1210250D02*
D03*
X1220250D02*
D03*
X1230250D02*
D03*
X1240250D02*
D03*
X1250250D02*
D03*
X1260250D02*
D03*
X1270250D02*
D03*
X1280250D02*
D03*
X1290250D02*
D03*
X1300250D02*
D03*
X1310250D02*
D03*
X1320250D02*
D03*
X1030250Y585000D02*
D03*
X1040250D02*
D03*
X1050250D02*
D03*
X1060250D02*
D03*
X1070250D02*
D03*
X1080250D02*
D03*
X1090250D02*
D03*
X1100250D02*
D03*
X1110250D02*
D03*
X1120250D02*
D03*
X1130250D02*
D03*
X1140250D02*
D03*
X1150250D02*
D03*
X1160250D02*
D03*
X1170250D02*
D03*
X1180250D02*
D03*
X1190250D02*
D03*
X1200250D02*
D03*
X1210250D02*
D03*
X1220250D02*
D03*
X1230250D02*
D03*
X1240250D02*
D03*
X1250250D02*
D03*
X1260250D02*
D03*
X1270250D02*
D03*
X1280250D02*
D03*
X1290250D02*
D03*
X1300250D02*
D03*
X1310250D02*
D03*
X1320250D02*
D03*
X1030250Y575000D02*
D03*
X1040250D02*
D03*
X1050250D02*
D03*
X1060250D02*
D03*
X1070250D02*
D03*
X1080250D02*
D03*
X1090250D02*
D03*
X1100250D02*
D03*
X1110250D02*
D03*
X1120250D02*
D03*
X1130250D02*
D03*
X1140250D02*
D03*
X1150250D02*
D03*
X1160250D02*
D03*
X1170250D02*
D03*
X1180250D02*
D03*
X1190250D02*
D03*
X1200250D02*
D03*
X1210250D02*
D03*
X1220250D02*
D03*
X1230250D02*
D03*
X1240250D02*
D03*
X1250250D02*
D03*
X1260250D02*
D03*
X1270250D02*
D03*
X1280250D02*
D03*
X1290250D02*
D03*
X1300250D02*
D03*
X1310250D02*
D03*
X1320250D02*
D03*
X1030250Y565000D02*
D03*
X1040250D02*
D03*
X1050250D02*
D03*
X1060250D02*
D03*
X1070250D02*
D03*
X1080250D02*
D03*
X1090250D02*
D03*
X1100250D02*
D03*
X1110250D02*
D03*
X1120250D02*
D03*
X1130250D02*
D03*
X1140250D02*
D03*
X1150250D02*
D03*
X1160250D02*
D03*
X1170250D02*
D03*
X1180250D02*
D03*
X1190250D02*
D03*
X1200250D02*
D03*
X1210250D02*
D03*
X1220250D02*
D03*
X1230250D02*
D03*
X1240250D02*
D03*
X1250250D02*
D03*
X1260250D02*
D03*
X1270250D02*
D03*
X1280250D02*
D03*
X1290250D02*
D03*
X1300250D02*
D03*
X1310250D02*
D03*
X1320250D02*
D03*
X1030250Y555000D02*
D03*
X1040250Y555000D02*
D03*
X1050250D02*
D03*
X1060250D02*
D03*
X1070250D02*
D03*
X1080250D02*
D03*
X1090250Y555000D02*
D03*
X1100250Y555000D02*
D03*
X1110250D02*
D03*
X1120250D02*
D03*
X1130250Y555000D02*
D03*
X1140250Y555000D02*
D03*
X1150250D02*
D03*
X1160250D02*
D03*
X1170250D02*
D03*
X1180250D02*
D03*
X1190250Y555000D02*
D03*
X1200250Y555000D02*
D03*
X1210250D02*
D03*
X1220250D02*
D03*
X1230250Y555000D02*
D03*
X1240250Y555000D02*
D03*
X1250250D02*
D03*
X1260250D02*
D03*
X1270250Y555000D02*
D03*
X1280250Y555000D02*
D03*
X1290250D02*
D03*
X1300250Y555000D02*
D03*
X1310250Y555000D02*
D03*
X1320250D02*
D03*
X1030250Y545000D02*
D03*
X1040250D02*
D03*
X1050250D02*
D03*
X1060250D02*
D03*
X1070250D02*
D03*
X1080250D02*
D03*
X1090250Y545000D02*
D03*
X1100250Y545000D02*
D03*
X1110250D02*
D03*
X1120250D02*
D03*
X1130250Y545000D02*
D03*
X1140250Y545000D02*
D03*
X1150250D02*
D03*
X1160250D02*
D03*
X1170250D02*
D03*
X1180250D02*
D03*
X1190250D02*
D03*
X1200250D02*
D03*
X1210250D02*
D03*
X1220250D02*
D03*
X1230250Y545000D02*
D03*
X1240250Y545000D02*
D03*
X1250250D02*
D03*
X1260250D02*
D03*
X1270250D02*
D03*
X1280250D02*
D03*
X1290250D02*
D03*
X1300250D02*
D03*
X1310250D02*
D03*
X1320250D02*
D03*
X1030250Y535000D02*
D03*
X1040250D02*
D03*
X1050250D02*
D03*
X1060250D02*
D03*
X1070250D02*
D03*
X1080250D02*
D03*
X1090250D02*
D03*
X1100250D02*
D03*
X1110250D02*
D03*
X1120250D02*
D03*
X1130250D02*
D03*
X1140250D02*
D03*
X1150250D02*
D03*
X1160250D02*
D03*
X1170250D02*
D03*
X1180250D02*
D03*
X1190250D02*
D03*
X1200250D02*
D03*
X1210250D02*
D03*
X1220250D02*
D03*
X1230250D02*
D03*
X1240250D02*
D03*
X1250250D02*
D03*
X1260250D02*
D03*
X1270250D02*
D03*
X1280250D02*
D03*
X1290250D02*
D03*
X1300250D02*
D03*
X1310250D02*
D03*
X1320250D02*
D03*
X1030250Y525000D02*
D03*
X1040250Y525000D02*
D03*
X1050250Y525000D02*
D03*
X1060250D02*
D03*
X1070250D02*
D03*
X1080250Y525000D02*
D03*
X1090250Y525000D02*
D03*
X1100250D02*
D03*
X1110250D02*
D03*
X1120250D02*
D03*
X1130250D02*
D03*
X1140250Y525000D02*
D03*
X1150250Y525000D02*
D03*
X1160250D02*
D03*
X1170250D02*
D03*
X1180250Y525000D02*
D03*
X1190250Y525000D02*
D03*
X1200250D02*
D03*
X1210250D02*
D03*
X1220250D02*
D03*
X1230250D02*
D03*
X1240250D02*
D03*
X1250250Y525000D02*
D03*
X1260250Y525000D02*
D03*
X1270250D02*
D03*
X1280250Y525000D02*
D03*
X1290250Y525000D02*
D03*
X1300250D02*
D03*
X1310250D02*
D03*
X1320250Y525000D02*
D03*
X1030250Y515000D02*
D03*
X1040250D02*
D03*
X1050250D02*
D03*
X1060250D02*
D03*
X1070250D02*
D03*
X1080250D02*
D03*
X1090250D02*
D03*
X1100250D02*
D03*
X1110250D02*
D03*
X1120250D02*
D03*
X1130250D02*
D03*
X1140250D02*
D03*
X1150250D02*
D03*
X1160250D02*
D03*
X1170250D02*
D03*
X1180250D02*
D03*
X1190250D02*
D03*
X1200250D02*
D03*
X1210250D02*
D03*
X1220250D02*
D03*
X1230250Y515000D02*
D03*
X1240250Y515000D02*
D03*
X1250250D02*
D03*
X1260250D02*
D03*
X1270250D02*
D03*
X1280250D02*
D03*
X1290250D02*
D03*
X1300250D02*
D03*
X1310250D02*
D03*
X1320250D02*
D03*
X1030250Y505000D02*
D03*
X1040250D02*
D03*
X1050250D02*
D03*
X1060250D02*
D03*
X1070250D02*
D03*
X1080250D02*
D03*
X1090250D02*
D03*
X1100250D02*
D03*
X1110250D02*
D03*
X1120250D02*
D03*
X1130250D02*
D03*
X1140250D02*
D03*
X1150250D02*
D03*
X1160250D02*
D03*
X1170250D02*
D03*
X1180250D02*
D03*
X1190250D02*
D03*
X1200250D02*
D03*
X1210250D02*
D03*
X1220250D02*
D03*
X1230250D02*
D03*
X1240250D02*
D03*
X1250250D02*
D03*
X1260250D02*
D03*
X1270250D02*
D03*
X1280250D02*
D03*
X1290250D02*
D03*
X1300250D02*
D03*
X1310250D02*
D03*
X1320250D02*
D03*
X1030250Y495000D02*
D03*
X1040250Y495000D02*
D03*
X1050250Y495000D02*
D03*
X1060250D02*
D03*
X1070250D02*
D03*
X1080250Y495000D02*
D03*
X1090250Y495000D02*
D03*
X1100250D02*
D03*
X1110250D02*
D03*
X1120250D02*
D03*
X1130250D02*
D03*
X1140250Y495000D02*
D03*
X1150250Y495000D02*
D03*
X1160250D02*
D03*
X1170250D02*
D03*
X1180250Y495000D02*
D03*
X1190250Y495000D02*
D03*
X1200250D02*
D03*
X1210250D02*
D03*
X1220250D02*
D03*
X1230250D02*
D03*
X1240250D02*
D03*
X1250250Y495000D02*
D03*
X1260250Y495000D02*
D03*
X1270250D02*
D03*
X1280250Y495000D02*
D03*
X1290250Y495000D02*
D03*
X1300250D02*
D03*
X1310250D02*
D03*
X1320250Y495000D02*
D03*
X1030250Y485000D02*
D03*
X1040250D02*
D03*
X1050250D02*
D03*
X1060250D02*
D03*
X1070250D02*
D03*
X1080250D02*
D03*
X1090250D02*
D03*
X1100250D02*
D03*
X1110250D02*
D03*
X1120250D02*
D03*
X1130250D02*
D03*
X1140250D02*
D03*
X1150250D02*
D03*
X1160250D02*
D03*
X1170250D02*
D03*
X1180250D02*
D03*
X1190250D02*
D03*
X1200250D02*
D03*
X1210250D02*
D03*
X1220250D02*
D03*
X1230250D02*
D03*
X1240250D02*
D03*
X1250250D02*
D03*
X1260250D02*
D03*
X1270250D02*
D03*
X1280250D02*
D03*
X1290250D02*
D03*
X1300250D02*
D03*
X1310250D02*
D03*
X1320250D02*
D03*
X1040250Y475000D02*
D03*
X1050250D02*
D03*
X1060250D02*
D03*
X1070250D02*
D03*
X1080250D02*
D03*
X1090250Y475000D02*
D03*
X1100250Y475000D02*
D03*
X1110250D02*
D03*
X1120250D02*
D03*
X1130250Y475000D02*
D03*
X1140250Y475000D02*
D03*
X1150250D02*
D03*
X1160250D02*
D03*
X1170250D02*
D03*
X1180250D02*
D03*
X1190250D02*
D03*
X1200250D02*
D03*
X1210250D02*
D03*
X1220250D02*
D03*
X1230250Y475000D02*
D03*
X1240250Y475000D02*
D03*
X1250250D02*
D03*
X1260250D02*
D03*
X1270250D02*
D03*
X1280250D02*
D03*
X1290250D02*
D03*
X1300250D02*
D03*
X1310250D02*
D03*
D96*
X928650Y929250D02*
D03*
Y925250D02*
D03*
Y921250D02*
D03*
Y917250D02*
D03*
X913150D02*
D03*
Y921250D02*
D03*
Y925250D02*
D03*
D97*
X926900Y911500D02*
D03*
X922900D02*
D03*
X918900D02*
D03*
X914900Y911500D02*
D03*
Y935000D02*
D03*
X918900D02*
D03*
X922900D02*
D03*
X926900D02*
D03*
D98*
X913650Y929250D02*
D03*
D99*
X643750Y634250D02*
D03*
X648750D02*
D03*
X653750D02*
D03*
X658750D02*
D03*
Y606250D02*
D03*
X653750D02*
D03*
X648750D02*
D03*
X643750D02*
D03*
D100*
X651250Y620250D02*
D03*
D101*
X703050Y418750D02*
D03*
X686000Y418750D02*
D03*
X668950Y418750D02*
D03*
X651900Y418750D02*
D03*
X720100D02*
D03*
X670450Y824000D02*
D03*
X687500Y824000D02*
D03*
X704550Y824000D02*
D03*
X721600Y824000D02*
D03*
X653400D02*
D03*
D102*
X686000Y512750D02*
D03*
X687500Y730000D02*
D03*
D103*
X1715125Y260750D02*
D03*
Y341250D02*
D03*
X1388000Y737750D02*
D03*
X1388000Y818250D02*
D03*
X1209000Y172500D02*
D03*
Y253000D02*
D03*
D104*
X1792125Y359000D02*
D03*
X1285750Y271000D02*
D03*
X1464750Y836250D02*
D03*
D105*
X1792125Y373500D02*
D03*
X1285750Y285500D02*
D03*
X1464750Y850750D02*
D03*
D106*
X1779625Y387500D02*
D03*
X1784625D02*
D03*
X1789625D02*
D03*
X1794625D02*
D03*
X1799625D02*
D03*
X1804625D02*
D03*
Y347500D02*
D03*
X1799625D02*
D03*
X1794625D02*
D03*
X1789625D02*
D03*
X1784625D02*
D03*
X1779625D02*
D03*
X1587000Y354000D02*
D03*
X1582000D02*
D03*
X1577000D02*
D03*
X1572000D02*
D03*
X1567000D02*
D03*
X1562000D02*
D03*
Y394000D02*
D03*
X1567000D02*
D03*
X1572000D02*
D03*
X1577000D02*
D03*
X1582000D02*
D03*
X1587000D02*
D03*
X1586750Y168500D02*
D03*
X1581750Y168500D02*
D03*
X1576750D02*
D03*
X1571750Y168500D02*
D03*
X1566750D02*
D03*
X1561750D02*
D03*
Y208500D02*
D03*
X1566750D02*
D03*
X1571750D02*
D03*
X1576750D02*
D03*
X1581750D02*
D03*
X1586750D02*
D03*
X1273250Y299500D02*
D03*
X1278250D02*
D03*
X1283250D02*
D03*
X1288250D02*
D03*
X1293250D02*
D03*
X1298250D02*
D03*
Y259500D02*
D03*
X1293250D02*
D03*
X1288250D02*
D03*
X1283250D02*
D03*
X1278250D02*
D03*
X1273250D02*
D03*
X1452250Y864750D02*
D03*
X1457250D02*
D03*
X1462250D02*
D03*
X1467250Y864750D02*
D03*
X1472250D02*
D03*
X1477250Y864750D02*
D03*
Y824750D02*
D03*
X1472250Y824750D02*
D03*
X1467250Y824750D02*
D03*
X1462250Y824750D02*
D03*
X1457250D02*
D03*
X1452250D02*
D03*
D107*
X1812125Y380000D02*
D03*
Y375000D02*
D03*
Y370000D02*
D03*
Y365000D02*
D03*
Y360000D02*
D03*
Y355000D02*
D03*
X1772125D02*
D03*
Y360000D02*
D03*
Y365000D02*
D03*
Y370000D02*
D03*
Y375000D02*
D03*
Y380000D02*
D03*
X1594500Y386500D02*
D03*
Y381500D02*
D03*
Y376500D02*
D03*
X1594500Y371500D02*
D03*
Y366500D02*
D03*
X1594500Y361500D02*
D03*
X1554500D02*
D03*
Y366500D02*
D03*
Y371500D02*
D03*
X1554500Y376500D02*
D03*
Y381500D02*
D03*
Y386500D02*
D03*
X1594250Y201000D02*
D03*
Y196000D02*
D03*
Y191000D02*
D03*
Y186000D02*
D03*
Y181000D02*
D03*
Y176000D02*
D03*
X1554250D02*
D03*
X1554250Y181000D02*
D03*
Y186000D02*
D03*
X1554250Y191000D02*
D03*
Y196000D02*
D03*
Y201000D02*
D03*
X1305750Y292000D02*
D03*
Y287000D02*
D03*
Y282000D02*
D03*
Y277000D02*
D03*
Y272000D02*
D03*
Y267000D02*
D03*
X1265750D02*
D03*
Y272000D02*
D03*
Y277000D02*
D03*
Y282000D02*
D03*
Y287000D02*
D03*
Y292000D02*
D03*
X1484750Y857250D02*
D03*
Y852250D02*
D03*
Y847250D02*
D03*
Y842250D02*
D03*
Y837250D02*
D03*
Y832250D02*
D03*
X1444750D02*
D03*
X1444750Y837250D02*
D03*
Y842250D02*
D03*
X1444750Y847250D02*
D03*
Y852250D02*
D03*
Y857250D02*
D03*
D108*
X1784000Y267500D02*
D03*
X1814000D02*
D03*
Y313500D02*
D03*
X1784000D02*
D03*
Y290700D02*
D03*
X1814000D02*
D03*
X1456750Y767250D02*
D03*
X1486750D02*
D03*
X1486640Y790750D02*
D03*
X1456640Y790750D02*
D03*
X1456640Y743700D02*
D03*
X1486640Y743700D02*
D03*
X1307640Y225550D02*
D03*
X1277640D02*
D03*
X1277640Y202350D02*
D03*
X1307640D02*
D03*
Y179250D02*
D03*
X1277640D02*
D03*
X1323750Y342750D02*
D03*
X1293750D02*
D03*
X1226500Y951250D02*
D03*
X1256500D02*
D03*
D109*
X601000Y149750D02*
D03*
X95250D02*
D03*
X600750Y1090250D02*
D03*
X152250D02*
D03*
D110*
X614250Y1076751D02*
D03*
X81000Y163250D02*
D03*
X138750Y1076750D02*
D03*
D111*
X614250Y163250D02*
D03*
D112*
X1605250Y356000D02*
D03*
X1623250D02*
D03*
X1605000Y170500D02*
D03*
X1623000D02*
D03*
D113*
X1566000Y374000D02*
D03*
X1565750Y188500D02*
D03*
D114*
X1580500Y374000D02*
D03*
X1580250Y188500D02*
D03*
D115*
X1467750Y450750D02*
D03*
X1548250D02*
D03*
X1548250Y265250D02*
D03*
X1467750D02*
D03*
D116*
X1304250Y327750D02*
D03*
Y309750D02*
D03*
X1809625Y416250D02*
D03*
Y398250D02*
D03*
X1482750Y893500D02*
D03*
X1482750Y875500D02*
D03*
D117*
X1497350Y382110D02*
D03*
Y352110D02*
D03*
X1520550Y382110D02*
D03*
X1520550Y352110D02*
D03*
X1474000Y382110D02*
D03*
Y352110D02*
D03*
X1497100Y196610D02*
D03*
Y166610D02*
D03*
X1520300Y196610D02*
D03*
Y166610D02*
D03*
X1474000Y196610D02*
D03*
Y166610D02*
D03*
D118*
X1883190Y663150D02*
D03*
D119*
X1853490Y579000D02*
D03*
Y585500D02*
D03*
Y592000D02*
D03*
Y598500D02*
D03*
Y605000D02*
D03*
Y646000D02*
D03*
Y652500D02*
D03*
Y659000D02*
D03*
Y665500D02*
D03*
Y672000D02*
D03*
D120*
X1718500Y189500D02*
D03*
X697500Y156500D02*
D03*
X1560000Y820000D02*
D03*
D121*
X1774000Y494000D02*
D03*
Y487500D02*
D03*
Y481000D02*
D03*
Y474500D02*
D03*
X1833000Y494000D02*
D03*
Y487500D02*
D03*
Y481000D02*
D03*
Y474500D02*
D03*
D122*
X985500Y211000D02*
D03*
D123*
X825750Y210750D02*
D03*
D124*
X1368000Y278000D02*
D03*
D125*
X1378000Y299000D02*
D03*
X1373000D02*
D03*
X1368000D02*
D03*
X1363000D02*
D03*
X1358000D02*
D03*
X1378000Y257000D02*
D03*
X1373000D02*
D03*
X1368000D02*
D03*
X1363000D02*
D03*
D126*
X1358000D02*
D03*
D127*
X1228750Y921750D02*
D03*
D128*
Y916750D02*
D03*
Y911750D02*
D03*
Y906750D02*
D03*
Y901750D02*
D03*
X1270750Y921750D02*
D03*
Y916750D02*
D03*
Y911750D02*
D03*
Y906750D02*
D03*
Y901750D02*
D03*
D129*
X1249750Y911750D02*
D03*
D130*
X336052Y667875D02*
D03*
X597073Y588625D02*
D03*
X387875Y667875D02*
D03*
X525948Y577250D02*
D03*
X526000Y659750D02*
D03*
X458823Y588750D02*
D03*
X387698Y577375D02*
D03*
D131*
X353302Y667875D02*
D03*
X353052Y648125D02*
D03*
X334052D02*
D03*
X579823Y588625D02*
D03*
X580073Y608375D02*
D03*
X599073D02*
D03*
X405125Y667875D02*
D03*
X404875Y648125D02*
D03*
X385875D02*
D03*
X543198Y577250D02*
D03*
X542948Y557500D02*
D03*
X523948D02*
D03*
X543250Y659750D02*
D03*
X543000Y640000D02*
D03*
X524000D02*
D03*
X441573Y588750D02*
D03*
X441823Y608500D02*
D03*
X460823D02*
D03*
X404948Y577375D02*
D03*
X404698Y557625D02*
D03*
X385698D02*
D03*
D132*
X441750Y662000D02*
D03*
X491375Y594500D02*
D03*
X491427Y677000D02*
D03*
X579875Y653875D02*
D03*
X353125Y594625D02*
D03*
D133*
X441750Y679250D02*
D03*
X461500Y679000D02*
D03*
Y660000D02*
D03*
X491375Y577250D02*
D03*
X471625Y577500D02*
D03*
Y596500D02*
D03*
X491427Y659750D02*
D03*
X471677Y660000D02*
D03*
Y679000D02*
D03*
X579875Y671125D02*
D03*
X599625Y670875D02*
D03*
Y651875D02*
D03*
X353125Y577375D02*
D03*
X333375Y577625D02*
D03*
Y596625D02*
D03*
D134*
X536000Y802250D02*
D03*
X539500D02*
D03*
X543000D02*
D03*
Y793750D02*
D03*
X539500D02*
D03*
X536000D02*
D03*
X550750Y256000D02*
D03*
X554250D02*
D03*
X557750Y256000D02*
D03*
Y247500D02*
D03*
X554250Y247500D02*
D03*
X550750D02*
D03*
X159750Y1033250D02*
D03*
X163250D02*
D03*
X166750D02*
D03*
Y1024750D02*
D03*
X163250D02*
D03*
X159750D02*
D03*
X168500Y766000D02*
D03*
X172000Y766000D02*
D03*
X175500D02*
D03*
Y757500D02*
D03*
X172000D02*
D03*
X168500D02*
D03*
D135*
X175322Y493286D02*
D03*
Y489786D02*
D03*
Y486286D02*
D03*
X166822D02*
D03*
X166822Y489786D02*
D03*
Y493286D02*
D03*
X545500Y1019500D02*
D03*
Y1023000D02*
D03*
X545500Y1026500D02*
D03*
X554000D02*
D03*
X554000Y1023000D02*
D03*
Y1019500D02*
D03*
X154483Y217129D02*
D03*
X154483Y213629D02*
D03*
Y210129D02*
D03*
X145983D02*
D03*
Y213629D02*
D03*
Y217129D02*
D03*
D136*
X541970Y468520D02*
D03*
X539495Y470995D02*
D03*
X537020Y473470D02*
D03*
X543030Y479480D02*
D03*
X545505Y477005D02*
D03*
X547980Y474530D02*
D03*
D137*
X363500Y380250D02*
D03*
X363767Y938621D02*
D03*
D138*
X186879Y596750D02*
D03*
X191879D02*
D03*
X196879D02*
D03*
X201879Y596750D02*
D03*
X206879D02*
D03*
X211879Y596750D02*
D03*
Y636750D02*
D03*
X206879D02*
D03*
X201879D02*
D03*
X196879Y636750D02*
D03*
X191879Y636750D02*
D03*
X186879D02*
D03*
D139*
X219379Y604250D02*
D03*
Y609250D02*
D03*
Y614250D02*
D03*
Y619250D02*
D03*
Y624250D02*
D03*
Y629250D02*
D03*
X179379D02*
D03*
X179379Y624250D02*
D03*
X179379Y619250D02*
D03*
Y614250D02*
D03*
Y609250D02*
D03*
Y604250D02*
D03*
D140*
X199379Y616750D02*
D03*
D141*
X1484750Y1028500D02*
D03*
Y1042500D02*
D03*
X1477750Y1042500D02*
D03*
Y1028500D02*
D03*
D156*
X45000Y870000D02*
D03*
Y165000D02*
D03*
X1822500Y183500D02*
D03*
Y1055500D02*
D03*
D157*
X1668000Y1050000D02*
D03*
X1715000D02*
D03*
X1762000D02*
D03*
D158*
X1065829Y986786D02*
D03*
Y1012215D02*
D03*
X1091257Y986786D02*
D03*
Y1012215D02*
D03*
X1116686Y986786D02*
D03*
Y1012215D02*
D03*
X1142114Y986786D02*
D03*
Y1012215D02*
D03*
X1167543Y986786D02*
D03*
Y1012215D02*
D03*
X1192971Y986786D02*
D03*
Y1012215D02*
D03*
X1294429Y987536D02*
D03*
Y1012964D02*
D03*
X1319857Y987536D02*
D03*
Y1012964D02*
D03*
X1345286Y987536D02*
D03*
Y1012964D02*
D03*
X1370714Y987536D02*
D03*
Y1012964D02*
D03*
X1396143Y987536D02*
D03*
Y1012964D02*
D03*
X1421571Y987536D02*
D03*
Y1012964D02*
D03*
D159*
X1833000Y794500D02*
D03*
X1833000Y878500D02*
D03*
D160*
X1718000Y794500D02*
D03*
X1760000D02*
D03*
Y836500D02*
D03*
X1718000Y836500D02*
D03*
X1718000Y878500D02*
D03*
D161*
X1760000D02*
D03*
D162*
X1683550Y455000D02*
D03*
D163*
X1852250Y960750D02*
D03*
D164*
X1789250D02*
D03*
D165*
X1822250Y1008750D02*
D03*
D166*
X1708000Y958950D02*
D03*
X1658500Y958950D02*
D03*
D167*
X1213754Y1111750D02*
D03*
X1237754D02*
D03*
X1225754D02*
D03*
X933504Y128000D02*
D03*
X945504D02*
D03*
X957504D02*
D03*
X1900250Y608254D02*
D03*
Y632253D02*
D03*
Y620253D02*
D03*
X439754Y1112000D02*
D03*
X463754D02*
D03*
X451754D02*
D03*
X500Y631746D02*
D03*
Y607746D02*
D03*
Y619746D02*
D03*
D168*
X75000Y947500D02*
D03*
X72500Y93500D02*
D03*
D169*
X1849790Y629750D02*
D03*
X1879290Y685250D02*
D03*
X1845790Y552250D02*
D03*
Y685250D02*
D03*
X1879290Y552250D02*
D03*
D170*
X868500Y211000D02*
D03*
D171*
X1368000Y278000D02*
D03*
X1361750Y273250D02*
D03*
Y282750D02*
D03*
X1374250D02*
D03*
Y273250D02*
D03*
X1245000Y905500D02*
D03*
X1254500D02*
D03*
Y918000D02*
D03*
X1245000D02*
D03*
X1249750Y911750D02*
D03*
D172*
X1385000Y870000D02*
D03*
X885000Y370000D02*
D03*
X1385000D02*
D03*
M02*
